<svg width="856" height="494" viewBox="0 0 856 494" fill="none" xmlns="http://www.w3.org/2000/svg">
<g clip-path="url(#clip0_24_2)">
<rect width="856" height="494" fill="white"/>
<rect width="856" height="494" fill="#A19A8A"/>
<rect x="0.5" y="0.5" width="455" height="493" fill="#2C2A28" stroke="black"/>
<path d="M160 223C225.63 223 278 265.048 278 316C278 366.952 225.63 409 160 409C94.3696 409 42 366.952 42 316C42 265.048 94.3696 223 160 223Z" stroke="#A19A8A" stroke-width="4"/>
<path d="M400 316C400 368.467 346.274 411 280 411C213.726 411 160 368.467 160 316C160 263.533 213.726 221 280 221C346.274 221 400 263.533 400 316Z" stroke="#A19A8A" stroke-width="4" stroke-dasharray="8 8"/>
<path d="M70.4 131.64C70.3467 131.64 70.2667 131.52 70.16 131.28C70.0533 131.04 69.9467 130.787 69.84 130.52L61.2 108.84C60.88 108.147 60.4933 107.587 60.04 107.16C59.5867 106.707 59.0133 106.387 58.32 106.2C57.8933 106.067 57.56 105.933 57.32 105.8C57.1067 105.667 57 105.507 57 105.32C57 105.16 57.1067 105.053 57.32 105C57.5333 104.92 57.8133 104.88 58.16 104.88C58.7733 104.88 59.3467 104.907 59.88 104.96C60.44 104.987 61.0533 105 61.72 105C62.4667 105 63.1733 104.987 63.84 104.96C64.5067 104.933 65.04 104.92 65.44 104.92C65.7867 104.92 66.0667 104.96 66.28 105.04C66.4933 105.093 66.6 105.2 66.6 105.36C66.6 105.547 66.4933 105.693 66.28 105.8C66.0667 105.907 65.7333 106.027 65.28 106.16C64.96 106.24 64.7467 106.413 64.64 106.68C64.5333 106.92 64.48 107.187 64.48 107.48C64.48 107.907 64.5333 108.307 64.64 108.68C64.7467 109.027 64.8 109.2 64.8 109.2C65.4133 110.747 65.9733 112.16 66.48 113.44C66.9867 114.72 67.48 115.96 67.96 117.16C68.4667 118.333 68.9867 119.547 69.52 120.8C70.08 122.027 70.6933 123.4 71.36 124.92C71.4933 125.213 71.6 125.347 71.68 125.32C71.7867 125.293 71.88 125.173 71.96 124.96L75.08 117.24C75.16 117.027 75.2133 116.853 75.24 116.72C75.2933 116.56 75.32 116.427 75.32 116.32C75.32 116.16 75.2933 116 75.24 115.84C75.1867 115.653 75.1067 115.427 75 115.16L72.72 109.48C72.3733 108.627 71.8267 107.92 71.08 107.36C70.3333 106.773 69.6133 106.387 68.92 106.2C68.4933 106.067 68.16 105.933 67.92 105.8C67.7067 105.667 67.6 105.507 67.6 105.32C67.6 105.16 67.7067 105.053 67.92 105C68.1333 104.92 68.4133 104.88 68.76 104.88C69.1867 104.88 69.5867 104.893 69.96 104.92C70.36 104.947 70.76 104.973 71.16 105C71.5867 105 72.04 105 72.52 105C73.1333 105 73.6933 104.987 74.2 104.96C74.7333 104.933 75.2 104.92 75.6 104.92C75.9467 104.92 76.2267 104.96 76.44 105.04C76.6533 105.093 76.76 105.2 76.76 105.36C76.76 105.573 76.6267 105.747 76.36 105.88C76.0933 106.013 75.8133 106.16 75.52 106.32C75.2533 106.48 75.12 106.72 75.12 107.04C75.12 107.093 75.12 107.147 75.12 107.2C75.1467 107.253 75.1733 107.307 75.2 107.36C75.2533 107.467 75.3467 107.733 75.48 108.16C75.64 108.56 75.8133 109.013 76 109.52C76.2133 110.027 76.4133 110.507 76.6 110.96C76.7867 111.387 76.92 111.693 77 111.88C77.1333 112.2 77.24 112.373 77.32 112.4C77.4267 112.4 77.56 112.227 77.72 111.88C77.9333 111.4 78.1467 110.853 78.36 110.24C78.6 109.627 78.8 109.053 78.96 108.52C79.1467 107.96 79.2667 107.573 79.32 107.36C79.3467 107.28 79.36 107.187 79.36 107.08C79.36 106.76 79.24 106.52 79 106.36C78.76 106.2 78.5067 106.053 78.24 105.92C78 105.76 77.88 105.573 77.88 105.36C77.88 105.2 77.9867 105.093 78.2 105.04C78.4133 104.96 78.6933 104.92 79.04 104.92C79.6267 104.92 80.0267 104.933 80.24 104.96C80.4533 104.987 80.7467 105 81.12 105C81.5733 105 81.96 104.987 82.28 104.96C82.6 104.907 83 104.88 83.48 104.88C83.8267 104.88 84.1067 104.92 84.32 105C84.5333 105.053 84.64 105.16 84.64 105.32C84.64 105.507 84.5333 105.667 84.32 105.8C84.1067 105.907 83.7733 106.013 83.32 106.12C82.4667 106.307 81.88 106.533 81.56 106.8C81.2667 107.067 80.9467 107.48 80.6 108.04C80.4667 108.28 80.2667 108.68 80 109.24C79.76 109.8 79.4933 110.413 79.2 111.08C78.9333 111.747 78.6933 112.373 78.48 112.96C78.4 113.147 78.32 113.413 78.24 113.76C78.1867 114.107 78.1867 114.347 78.24 114.48L82.36 125.08C82.4133 125.213 82.48 125.253 82.56 125.2C82.64 125.147 82.72 125.027 82.8 124.84C83.4667 123.08 84.2133 120.827 85.04 118.08C85.8933 115.333 86.7733 112.427 87.68 109.36C87.76 109.12 87.8133 108.88 87.84 108.64C87.8933 108.373 87.92 108.133 87.92 107.92C87.92 107.52 87.8267 107.16 87.64 106.84C87.48 106.52 87.1733 106.307 86.72 106.2C86.4533 106.12 86.16 106.013 85.84 105.88C85.5467 105.747 85.4 105.587 85.4 105.4C85.4 105.24 85.5067 105.133 85.72 105.08C85.9333 105 86.2133 104.96 86.56 104.96C87.0933 104.96 87.5733 104.973 88 105C88.4533 105 88.9333 105 89.44 105C90.1067 105 90.7467 104.987 91.36 104.96C91.9733 104.907 92.5333 104.88 93.04 104.88C93.3867 104.88 93.6667 104.92 93.88 105C94.0933 105.053 94.2 105.16 94.2 105.32C94.2 105.507 94.0933 105.667 93.88 105.8C93.6667 105.907 93.3333 106.013 92.88 106.12C92.24 106.253 91.6933 106.533 91.24 106.96C90.8133 107.36 90.4667 107.813 90.2 108.32C89.96 108.8 89.76 109.24 89.6 109.64L82.52 130.56C82.4933 130.667 82.4133 130.84 82.28 131.08C82.1467 131.347 82.0133 131.48 81.88 131.48C81.7733 131.48 81.6533 131.4 81.52 131.24C81.3867 131.08 81.28 130.907 81.2 130.72C80.5067 129.12 79.9067 127.693 79.4 126.44C78.8933 125.16 78.4 123.88 77.92 122.6C77.4667 121.32 76.92 119.907 76.28 118.36C76.2 118.173 76.1333 118.107 76.08 118.16C76.0267 118.187 75.9467 118.333 75.84 118.6C75.2 120.12 74.64 121.467 74.16 122.64C73.7067 123.813 73.2533 125.013 72.8 126.24C72.3467 127.44 71.84 128.827 71.28 130.4C71.1733 130.667 71.04 130.933 70.88 131.2C70.72 131.493 70.56 131.64 70.4 131.64ZM96.2806 131.2C95.934 131.2 95.654 131.16 95.4406 131.08C95.2273 131.027 95.1206 130.92 95.1206 130.76C95.1206 130.44 95.5606 130.2 96.4406 130.04C97.454 129.853 98.2006 129.547 98.6806 129.12C99.1606 128.693 99.4006 128 99.4006 127.04V109.04C99.4006 108.08 99.2006 107.4 98.8006 107C98.4273 106.6 97.734 106.307 96.7206 106.12C96.2673 106.04 95.934 105.933 95.7206 105.8C95.5073 105.667 95.4006 105.507 95.4006 105.32C95.4006 105.16 95.5073 105.053 95.7206 105C95.934 104.92 96.214 104.88 96.5606 104.88C97.574 104.88 98.4273 104.893 99.1206 104.92C99.8406 104.947 100.534 104.973 101.201 105C101.894 105 102.707 105 103.641 105C104.521 105 105.441 105 106.401 105C107.387 104.973 108.294 104.96 109.121 104.96C110.027 104.933 110.787 104.92 111.401 104.92C112.041 104.893 112.414 104.88 112.521 104.88C112.654 104.88 112.801 104.907 112.961 104.96C113.121 105.013 113.214 105.107 113.241 105.24C113.374 105.987 113.507 106.733 113.641 107.48C113.774 108.2 113.841 108.827 113.841 109.36C113.841 109.6 113.774 109.76 113.641 109.84C113.534 109.92 113.414 109.96 113.281 109.96C113.147 109.96 113.054 109.933 113.001 109.88C112.947 109.8 112.894 109.693 112.841 109.56C112.707 109.107 112.574 108.68 112.441 108.28C112.307 107.853 112.147 107.547 111.961 107.36C111.587 106.933 111.174 106.653 110.721 106.52C110.267 106.36 109.787 106.28 109.281 106.28H104.041C103.827 106.28 103.534 106.4 103.161 106.64C102.787 106.88 102.601 107.187 102.601 107.56V116.04C102.601 116.28 102.667 116.493 102.801 116.68C102.961 116.84 103.134 116.92 103.321 116.92H107.281C108.054 116.92 108.587 116.787 108.881 116.52C109.174 116.227 109.414 115.707 109.601 114.96C109.761 114.373 110.001 114.08 110.321 114.08C110.427 114.08 110.534 114.133 110.641 114.24C110.774 114.347 110.841 114.507 110.841 114.72C110.841 114.827 110.827 115.067 110.801 115.44C110.801 115.813 110.787 116.2 110.761 116.6C110.734 117 110.721 117.307 110.721 117.52C110.721 117.787 110.721 118.147 110.721 118.6C110.747 119.027 110.761 119.44 110.761 119.84C110.787 120.24 110.801 120.493 110.801 120.6C110.801 120.787 110.774 120.947 110.721 121.08C110.694 121.213 110.601 121.28 110.441 121.28C110.041 121.28 109.734 120.853 109.521 120C109.361 119.387 109.147 118.933 108.881 118.64C108.614 118.347 108.214 118.2 107.681 118.2H103.961C103.507 118.2 103.161 118.267 102.921 118.4C102.707 118.507 102.601 118.787 102.601 119.24V126.92C102.601 127.933 102.814 128.64 103.241 129.04C103.667 129.413 104.334 129.6 105.241 129.6H108.201C109.054 129.6 109.761 129.56 110.321 129.48C110.907 129.373 111.414 129.187 111.841 128.92C112.267 128.627 112.641 128.24 112.961 127.76C113.307 127.28 113.694 126.64 114.121 125.84C114.201 125.68 114.294 125.547 114.401 125.44C114.507 125.333 114.627 125.293 114.761 125.32C114.894 125.347 115.001 125.413 115.081 125.52C115.161 125.6 115.201 125.72 115.201 125.88C115.201 126.12 115.134 126.547 115.001 127.16C114.867 127.747 114.694 128.36 114.481 129C114.294 129.64 114.121 130.147 113.961 130.52C113.881 130.707 113.801 130.867 113.721 131C113.667 131.133 113.561 131.2 113.401 131.2C112.121 131.2 110.934 131.187 109.841 131.16C108.747 131.133 107.707 131.107 106.721 131.08C105.734 131.053 104.761 131.027 103.801 131C102.867 130.973 101.894 130.96 100.881 130.96C100.294 130.96 99.7873 130.973 99.3606 131C98.934 131.053 98.494 131.093 98.0406 131.12C97.5873 131.173 97.0006 131.2 96.2806 131.2ZM126.427 131.2C126.08 131.2 125.8 131.147 125.587 131.04C125.4 130.96 125.307 130.853 125.307 130.72C125.307 130.48 125.427 130.32 125.667 130.24C125.933 130.133 126.107 130.067 126.187 130.04C127.227 129.827 128.027 129.52 128.587 129.12C129.147 128.693 129.427 128.04 129.427 127.16V108.6C129.427 107.96 129.36 107.493 129.227 107.2C129.093 106.88 128.853 106.653 128.507 106.52C128.16 106.36 127.653 106.227 126.987 106.12C126.107 105.96 125.667 105.693 125.667 105.32C125.667 105.16 125.773 105.053 125.987 105C126.2 104.92 126.48 104.88 126.827 104.88C127.547 104.88 128.12 104.893 128.547 104.92C129 104.947 129.427 104.973 129.827 105C130.227 105 130.72 105 131.307 105C131.973 105 132.547 105 133.027 105C133.507 104.973 134 104.947 134.507 104.92C135.013 104.893 135.627 104.88 136.347 104.88C136.693 104.88 136.973 104.92 137.187 105C137.4 105.053 137.507 105.16 137.507 105.32C137.507 105.507 137.4 105.667 137.187 105.8C136.973 105.933 136.64 106.04 136.187 106.12C135.2 106.307 134.36 106.533 133.667 106.8C132.973 107.04 132.627 107.547 132.627 108.32V127.16C132.627 127.987 132.813 128.6 133.187 129C133.56 129.4 134.4 129.6 135.707 129.6H140.667C141.387 129.6 142.013 129.493 142.547 129.28C143.107 129.04 143.52 128.8 143.787 128.56C144.32 128.107 144.707 127.707 144.947 127.36C145.213 126.987 145.52 126.44 145.867 125.72C145.92 125.56 146.027 125.32 146.187 125C146.373 124.68 146.56 124.52 146.747 124.52C146.907 124.52 147.027 124.6 147.107 124.76C147.187 124.92 147.227 125.08 147.227 125.24C147.227 125.267 147.213 125.307 147.187 125.36C147.187 125.387 147.187 125.413 147.187 125.44C147 126.133 146.827 126.76 146.667 127.32C146.533 127.88 146.413 128.413 146.307 128.92C146.227 129.427 146.16 129.96 146.107 130.52C146.08 130.707 146.027 130.867 145.947 131C145.893 131.133 145.76 131.2 145.547 131.2C144.213 131.2 142.933 131.187 141.707 131.16C140.48 131.133 139.293 131.107 138.147 131.08C137.027 131.08 135.947 131.067 134.907 131.04C133.867 131.013 132.84 131 131.827 131C131.16 131 130.4 131.013 129.547 131.04C128.72 131.067 127.987 131.093 127.347 131.12C126.733 131.173 126.427 131.2 126.427 131.2ZM149.506 131.2C149.159 131.2 148.879 131.16 148.666 131.08C148.453 131.027 148.346 130.92 148.346 130.76C148.346 130.44 148.786 130.2 149.666 130.04C150.679 129.853 151.453 129.547 151.986 129.12C152.519 128.693 152.786 128.013 152.786 127.08V109C152.786 108.067 152.586 107.4 152.186 107C151.813 106.6 151.119 106.307 150.106 106.12C149.226 105.96 148.786 105.693 148.786 105.32C148.786 105.16 148.893 105.053 149.106 105C149.319 104.92 149.599 104.88 149.946 104.88C150.666 104.88 151.253 104.893 151.706 104.92C152.186 104.947 152.639 104.973 153.066 105C153.493 105 154.013 105 154.626 105C155.213 105 155.693 105 156.066 105C156.439 104.973 156.839 104.947 157.266 104.92C157.693 104.893 158.266 104.88 158.986 104.88C159.333 104.88 159.613 104.92 159.826 105C160.039 105.053 160.146 105.16 160.146 105.32C160.146 105.507 160.039 105.667 159.826 105.8C159.613 105.933 159.279 106.04 158.826 106.12C157.839 106.307 157.119 106.6 156.666 107C156.213 107.4 155.986 108.067 155.986 109V127.08C155.986 128.013 156.266 128.693 156.826 129.12C157.386 129.547 158.159 129.853 159.146 130.04C159.599 130.12 159.933 130.213 160.146 130.32C160.359 130.427 160.466 130.573 160.466 130.76C160.466 130.92 160.359 131.027 160.146 131.08C159.933 131.16 159.653 131.2 159.306 131.2C158.586 131.2 157.986 131.173 157.506 131.12C157.053 131.093 156.613 131.067 156.186 131.04C155.759 131.013 155.239 131 154.626 131C153.959 131 153.373 131.013 152.866 131.04C152.386 131.067 151.879 131.093 151.346 131.12C150.839 131.173 150.226 131.2 149.506 131.2ZM163.58 131.2C163.233 131.2 162.953 131.16 162.74 131.08C162.526 131.027 162.42 130.92 162.42 130.76C162.42 130.44 162.86 130.2 163.74 130.04C164.753 129.853 165.446 129.547 165.82 129.12C166.22 128.667 166.42 127.947 166.42 126.96V108.96C166.42 108.027 166.22 107.373 165.82 107C165.446 106.6 164.753 106.307 163.74 106.12C162.86 105.96 162.42 105.693 162.42 105.32C162.42 105.16 162.526 105.053 162.74 105C162.953 104.92 163.233 104.88 163.58 104.88C164.3 104.88 164.873 104.893 165.3 104.92C165.753 104.92 166.18 104.933 166.58 104.96C166.98 104.96 167.473 104.96 168.06 104.96C168.566 104.96 168.966 104.96 169.26 104.96C169.58 104.933 169.926 104.92 170.3 104.92C170.673 104.893 171.22 104.88 171.94 104.88C172.286 104.88 172.566 104.92 172.78 105C172.993 105.053 173.1 105.16 173.1 105.32C173.1 105.507 172.993 105.667 172.78 105.8C172.566 105.933 172.233 106.04 171.78 106.12C170.793 106.307 170.18 106.64 169.94 107.12C169.726 107.573 169.62 108.187 169.62 108.96V116.44C169.62 116.547 169.62 116.707 169.62 116.92C169.646 117.107 169.713 117.2 169.82 117.2C169.953 117.2 170.126 117.12 170.34 116.96C170.58 116.8 170.766 116.64 170.9 116.48L178.9 108.32C179.113 108.107 179.26 107.907 179.34 107.72C179.446 107.507 179.5 107.307 179.5 107.12C179.5 106.64 179.246 106.333 178.74 106.2C178.286 106.067 177.966 105.947 177.78 105.84C177.593 105.733 177.5 105.587 177.5 105.4C177.5 105.24 177.606 105.133 177.82 105.08C178.033 105 178.313 104.96 178.66 104.96H180.82C181.593 104.96 182.446 104.947 183.38 104.92C184.313 104.893 185.153 104.867 185.9 104.84C186.673 104.813 187.14 104.8 187.3 104.8C187.566 104.8 187.78 104.84 187.94 104.92C188.1 105 188.18 105.107 188.18 105.24C188.18 105.427 188.073 105.587 187.86 105.72C187.646 105.853 187.313 105.96 186.86 106.04C185.873 106.227 184.846 106.52 183.78 106.92C182.713 107.32 181.713 107.907 180.78 108.68C179.82 109.48 178.926 110.267 178.1 111.04C177.3 111.787 176.5 112.573 175.7 113.4C174.9 114.2 174.033 115.12 173.1 116.16C172.94 116.32 173.006 116.56 173.3 116.88L182.98 127.2C183.566 127.84 184.033 128.333 184.38 128.68C184.753 129.027 185.153 129.307 185.58 129.52C186.033 129.707 186.633 129.88 187.38 130.04C187.833 130.147 188.166 130.253 188.38 130.36C188.593 130.44 188.7 130.573 188.7 130.76C188.7 130.92 188.593 131.027 188.38 131.08C188.166 131.16 187.886 131.2 187.54 131.2C186.766 131.2 186.1 131.173 185.54 131.12C184.98 131.093 184.433 131.067 183.9 131.04C183.366 131.013 182.726 131 181.98 131C181.473 131 181.033 131 180.66 131C180.286 131.027 179.646 131.04 178.74 131.04C178.393 131.04 178.113 131.013 177.9 130.96C177.686 130.88 177.58 130.76 177.58 130.6C177.58 130.307 177.94 130.08 178.66 129.92C179.406 129.733 179.78 129.467 179.78 129.12C179.78 128.96 179.713 128.8 179.58 128.64C179.473 128.48 179.34 128.307 179.18 128.12L170.7 118.76C170.54 118.6 170.366 118.453 170.18 118.32C170.02 118.16 169.886 118.08 169.78 118.08C169.673 118.08 169.62 118.187 169.62 118.4C169.62 118.613 169.62 118.787 169.62 118.92C169.62 120.173 169.633 121.373 169.66 122.52C169.713 123.64 169.766 125 169.82 126.6C169.846 127.16 169.926 127.68 170.06 128.16C170.22 128.64 170.473 129.04 170.82 129.36C171.193 129.68 171.713 129.907 172.38 130.04C172.833 130.12 173.166 130.213 173.38 130.32C173.593 130.427 173.7 130.573 173.7 130.76C173.7 130.92 173.593 131.027 173.38 131.08C173.166 131.16 172.886 131.2 172.54 131.2C171.82 131.2 171.26 131.173 170.86 131.12C170.486 131.067 170.14 131.027 169.82 131C169.526 130.947 169.126 130.92 168.62 130.92C167.98 130.92 167.406 130.947 166.9 131C166.42 131.027 165.926 131.067 165.42 131.12C164.913 131.173 164.3 131.2 163.58 131.2ZM191.046 131.2C190.7 131.2 190.42 131.16 190.206 131.08C189.993 131.027 189.886 130.92 189.886 130.76C189.886 130.44 190.326 130.2 191.206 130.04C192.22 129.853 192.966 129.547 193.446 129.12C193.926 128.693 194.166 128 194.166 127.04V109.04C194.166 108.08 193.966 107.4 193.566 107C193.193 106.6 192.5 106.307 191.486 106.12C191.033 106.04 190.7 105.933 190.486 105.8C190.273 105.667 190.166 105.507 190.166 105.32C190.166 105.16 190.273 105.053 190.486 105C190.7 104.92 190.98 104.88 191.326 104.88C192.34 104.88 193.193 104.893 193.886 104.92C194.606 104.947 195.3 104.973 195.966 105C196.66 105 197.473 105 198.406 105C199.286 105 200.206 105 201.166 105C202.153 104.973 203.06 104.96 203.886 104.96C204.793 104.933 205.553 104.92 206.166 104.92C206.806 104.893 207.18 104.88 207.286 104.88C207.42 104.88 207.566 104.907 207.726 104.96C207.886 105.013 207.98 105.107 208.006 105.24C208.14 105.987 208.273 106.733 208.406 107.48C208.54 108.2 208.606 108.827 208.606 109.36C208.606 109.6 208.54 109.76 208.406 109.84C208.3 109.92 208.18 109.96 208.046 109.96C207.913 109.96 207.82 109.933 207.766 109.88C207.713 109.8 207.66 109.693 207.606 109.56C207.473 109.107 207.34 108.68 207.206 108.28C207.073 107.853 206.913 107.547 206.726 107.36C206.353 106.933 205.94 106.653 205.486 106.52C205.033 106.36 204.553 106.28 204.046 106.28H198.806C198.593 106.28 198.3 106.4 197.926 106.64C197.553 106.88 197.366 107.187 197.366 107.56V116.04C197.366 116.28 197.433 116.493 197.566 116.68C197.726 116.84 197.9 116.92 198.086 116.92H202.046C202.82 116.92 203.353 116.787 203.646 116.52C203.94 116.227 204.18 115.707 204.366 114.96C204.526 114.373 204.766 114.08 205.086 114.08C205.193 114.08 205.3 114.133 205.406 114.24C205.54 114.347 205.606 114.507 205.606 114.72C205.606 114.827 205.593 115.067 205.566 115.44C205.566 115.813 205.553 116.2 205.526 116.6C205.5 117 205.486 117.307 205.486 117.52C205.486 117.787 205.486 118.147 205.486 118.6C205.513 119.027 205.526 119.44 205.526 119.84C205.553 120.24 205.566 120.493 205.566 120.6C205.566 120.787 205.54 120.947 205.486 121.08C205.46 121.213 205.366 121.28 205.206 121.28C204.806 121.28 204.5 120.853 204.286 120C204.126 119.387 203.913 118.933 203.646 118.64C203.38 118.347 202.98 118.2 202.446 118.2H198.726C198.273 118.2 197.926 118.267 197.686 118.4C197.473 118.507 197.366 118.787 197.366 119.24V126.92C197.366 127.933 197.58 128.64 198.006 129.04C198.433 129.413 199.1 129.6 200.006 129.6H202.966C203.82 129.6 204.526 129.56 205.086 129.48C205.673 129.373 206.18 129.187 206.606 128.92C207.033 128.627 207.406 128.24 207.726 127.76C208.073 127.28 208.46 126.64 208.886 125.84C208.966 125.68 209.06 125.547 209.166 125.44C209.273 125.333 209.393 125.293 209.526 125.32C209.66 125.347 209.766 125.413 209.846 125.52C209.926 125.6 209.966 125.72 209.966 125.88C209.966 126.12 209.9 126.547 209.766 127.16C209.633 127.747 209.46 128.36 209.246 129C209.06 129.64 208.886 130.147 208.726 130.52C208.646 130.707 208.566 130.867 208.486 131C208.433 131.133 208.326 131.2 208.166 131.2C206.886 131.2 205.7 131.187 204.606 131.16C203.513 131.133 202.473 131.107 201.486 131.08C200.5 131.053 199.526 131.027 198.566 131C197.633 130.973 196.66 130.96 195.646 130.96C195.06 130.96 194.553 130.973 194.126 131C193.7 131.053 193.26 131.093 192.806 131.12C192.353 131.173 191.766 131.2 191.046 131.2ZM227.552 131.2C227.206 131.2 226.926 131.16 226.712 131.08C226.499 131.027 226.392 130.92 226.392 130.76C226.392 130.573 226.499 130.427 226.712 130.32C226.926 130.213 227.259 130.12 227.712 130.04C228.726 129.853 229.499 129.533 230.032 129.08C230.566 128.6 230.832 127.88 230.832 126.92V111.4C230.832 110.173 230.806 109.24 230.752 108.6C230.699 107.933 230.606 107.467 230.472 107.2C230.366 106.933 230.206 106.787 229.992 106.76C229.619 106.68 229.219 106.64 228.792 106.64C228.392 106.613 227.846 106.6 227.152 106.6H225.272C224.632 106.6 223.992 106.733 223.352 107C222.739 107.24 222.286 107.627 221.992 108.16C221.912 108.293 221.779 108.493 221.592 108.76C221.406 109 221.206 109.213 220.992 109.4C220.779 109.587 220.566 109.68 220.352 109.68C220.246 109.68 220.166 109.627 220.112 109.52C220.086 109.413 220.072 109.293 220.072 109.16C220.072 108.893 220.139 108.627 220.272 108.36C220.646 107.587 220.912 106.907 221.072 106.32C221.259 105.707 221.406 104.987 221.512 104.16C221.566 103.707 221.659 103.44 221.792 103.36C221.952 103.28 222.086 103.24 222.192 103.24C222.299 103.24 222.459 103.4 222.672 103.72C222.912 104.04 223.086 104.307 223.192 104.52C223.352 104.787 223.712 104.987 224.272 105.12C224.859 105.253 225.432 105.32 225.992 105.32H240.072C241.006 105.32 241.766 105.267 242.352 105.16C242.939 105.053 243.446 104.907 243.872 104.72C244.192 104.56 244.446 104.387 244.632 104.2C244.846 104.013 245.112 103.92 245.432 103.92C245.512 103.92 245.579 104.027 245.632 104.24C245.686 104.427 245.712 104.627 245.712 104.84C245.712 104.973 245.686 105.16 245.632 105.4C245.606 105.64 245.579 105.827 245.552 105.96C245.472 106.44 245.392 106.787 245.312 107C245.259 107.213 245.219 107.4 245.192 107.56C245.166 107.72 245.152 107.973 245.152 108.32V108.8C245.152 109.04 245.099 109.32 244.992 109.64C244.886 109.933 244.726 110.08 244.512 110.08C244.326 110.08 244.179 109.933 244.072 109.64C243.966 109.347 243.859 108.947 243.752 108.44C243.646 107.88 243.326 107.44 242.792 107.12C242.259 106.773 241.352 106.6 240.072 106.6H236.032C235.446 106.6 235.006 106.68 234.712 106.84C234.419 107 234.232 107.4 234.152 108.04C234.072 108.68 234.032 109.733 234.032 111.2V126.92C234.032 127.88 234.312 128.6 234.872 129.08C235.432 129.533 236.206 129.853 237.192 130.04C237.646 130.12 237.979 130.213 238.192 130.32C238.406 130.427 238.512 130.573 238.512 130.76C238.512 130.92 238.406 131.027 238.192 131.08C237.979 131.16 237.699 131.2 237.352 131.2C236.632 131.2 236.032 131.173 235.552 131.12C235.099 131.093 234.659 131.067 234.232 131.04C233.806 131.013 233.286 131 232.672 131C232.006 131 231.419 131.013 230.912 131.04C230.432 131.067 229.926 131.093 229.392 131.12C228.886 131.173 228.272 131.2 227.552 131.2ZM260.088 131.56C258.328 131.56 256.648 131.253 255.048 130.64C253.448 130 252.034 129.107 250.808 127.96C249.581 126.787 248.608 125.4 247.888 123.8C247.168 122.173 246.808 120.373 246.808 118.4C246.808 116.587 247.101 114.853 247.688 113.2C248.274 111.52 249.141 110.027 250.288 108.72C251.434 107.413 252.861 106.373 254.568 105.6C256.274 104.827 258.234 104.44 260.448 104.44C262.208 104.44 263.888 104.76 265.488 105.4C267.088 106.013 268.501 106.907 269.728 108.08C270.954 109.227 271.928 110.613 272.648 112.24C273.368 113.84 273.728 115.627 273.728 117.6C273.728 119.387 273.434 121.12 272.848 122.8C272.261 124.48 271.394 125.973 270.248 127.28C269.101 128.587 267.674 129.627 265.968 130.4C264.261 131.173 262.301 131.56 260.088 131.56ZM260.688 129.96C262.741 129.96 264.448 129.533 265.808 128.68C267.168 127.8 268.181 126.587 268.848 125.04C269.541 123.467 269.888 121.64 269.888 119.56C269.888 117.72 269.674 115.987 269.248 114.36C268.821 112.733 268.181 111.307 267.328 110.08C266.501 108.827 265.461 107.853 264.208 107.16C262.954 106.467 261.488 106.12 259.808 106.12C257.808 106.12 256.128 106.547 254.768 107.4C253.408 108.253 252.381 109.453 251.688 111C250.994 112.52 250.648 114.32 250.648 116.4C250.648 118.267 250.848 120.013 251.248 121.64C251.674 123.267 252.301 124.707 253.128 125.96C253.981 127.213 255.034 128.2 256.288 128.92C257.541 129.613 259.008 129.96 260.688 129.96ZM286.163 131.2C285.817 131.2 285.537 131.147 285.323 131.04C285.11 130.96 285.003 130.84 285.003 130.68C285.003 130.413 285.43 130.2 286.283 130.04C287.297 129.853 287.95 129.547 288.243 129.12C288.563 128.693 288.723 128 288.723 127.04V108.96C288.723 108.027 288.617 107.373 288.403 107C288.217 106.6 287.617 106.307 286.603 106.12C285.723 105.96 285.283 105.72 285.283 105.4C285.283 105.24 285.377 105.12 285.563 105.04C285.75 104.933 286.043 104.88 286.443 104.88C287.163 104.88 287.723 104.893 288.123 104.92C288.523 104.947 288.897 104.973 289.243 105C289.59 105 290.03 105 290.563 105C291.123 105 291.577 105 291.923 105C292.297 104.973 292.683 104.947 293.083 104.92C293.51 104.893 294.083 104.88 294.803 104.88C295.577 104.88 295.963 105.053 295.963 105.4C295.963 105.587 295.857 105.733 295.643 105.84C295.43 105.947 295.097 106.04 294.643 106.12C293.657 106.307 292.95 106.64 292.523 107.12C292.123 107.573 291.923 108.187 291.923 108.96V116.84C291.923 117 291.99 117.107 292.123 117.16C292.257 117.187 292.377 117.2 292.483 117.2H307.323C307.51 117.2 307.603 117.04 307.603 116.72V108.92C307.603 108.2 307.417 107.6 307.043 107.12C306.67 106.64 305.977 106.307 304.963 106.12C304.51 106.04 304.177 105.947 303.963 105.84C303.75 105.733 303.643 105.587 303.643 105.4C303.643 105.053 304.03 104.88 304.803 104.88C305.523 104.88 306.11 104.893 306.563 104.92C307.043 104.947 307.497 104.973 307.923 105C308.35 105 308.857 105 309.443 105C309.923 105 310.297 105 310.563 105C310.83 104.973 311.137 104.947 311.483 104.92C311.83 104.893 312.363 104.88 313.083 104.88C313.457 104.88 313.737 104.933 313.923 105.04C314.137 105.12 314.243 105.24 314.243 105.4C314.243 105.72 313.803 105.96 312.923 106.12C311.937 106.307 311.337 106.627 311.123 107.08C310.91 107.533 310.803 108.147 310.803 108.92V127C310.803 127.987 310.923 128.693 311.163 129.12C311.43 129.547 312.057 129.853 313.043 130.04C313.897 130.2 314.323 130.413 314.323 130.68C314.323 130.84 314.217 130.96 314.003 131.04C313.79 131.147 313.51 131.2 313.163 131.2C312.443 131.2 311.883 131.173 311.483 131.12C311.083 131.093 310.71 131.067 310.363 131.04C310.017 131.013 309.563 131 309.003 131C308.443 131 307.977 131.013 307.603 131.04C307.257 131.067 306.87 131.093 306.443 131.12C306.017 131.173 305.443 131.2 304.723 131.2C304.377 131.2 304.097 131.147 303.883 131.04C303.67 130.96 303.563 130.84 303.563 130.68C303.563 130.493 303.657 130.36 303.843 130.28C304.057 130.2 304.39 130.12 304.843 130.04C305.697 129.88 306.363 129.573 306.843 129.12C307.35 128.64 307.603 127.973 307.603 127.12V119.32C307.603 119.187 307.603 119.053 307.603 118.92C307.603 118.787 307.537 118.72 307.403 118.72H292.123C291.99 118.72 291.923 118.867 291.923 119.16V126.76C291.923 127.587 292.23 128.307 292.843 128.92C293.457 129.507 294.217 129.88 295.123 130.04C295.577 130.12 295.897 130.2 296.083 130.28C296.297 130.36 296.403 130.493 296.403 130.68C296.403 130.84 296.297 130.96 296.083 131.04C295.87 131.147 295.59 131.2 295.243 131.2C294.523 131.2 293.923 131.173 293.443 131.12C292.99 131.093 292.55 131.067 292.123 131.04C291.697 131.013 291.177 131 290.563 131C290.003 131 289.523 131.013 289.123 131.04C288.75 131.067 288.337 131.093 287.883 131.12C287.457 131.173 286.883 131.2 286.163 131.2ZM318.546 131.2C318.2 131.2 317.92 131.16 317.706 131.08C317.493 131.027 317.386 130.92 317.386 130.76C317.386 130.44 317.826 130.2 318.706 130.04C319.72 129.853 320.466 129.547 320.946 129.12C321.426 128.693 321.666 128 321.666 127.04V109.04C321.666 108.08 321.466 107.4 321.066 107C320.693 106.6 320 106.307 318.986 106.12C318.533 106.04 318.2 105.933 317.986 105.8C317.773 105.667 317.666 105.507 317.666 105.32C317.666 105.16 317.773 105.053 317.986 105C318.2 104.92 318.48 104.88 318.826 104.88C319.84 104.88 320.693 104.893 321.386 104.92C322.106 104.947 322.8 104.973 323.466 105C324.16 105 324.973 105 325.906 105C326.786 105 327.706 105 328.666 105C329.653 104.973 330.56 104.96 331.386 104.96C332.293 104.933 333.053 104.92 333.666 104.92C334.306 104.893 334.68 104.88 334.786 104.88C334.92 104.88 335.066 104.907 335.226 104.96C335.386 105.013 335.48 105.107 335.506 105.24C335.64 105.987 335.773 106.733 335.906 107.48C336.04 108.2 336.106 108.827 336.106 109.36C336.106 109.6 336.04 109.76 335.906 109.84C335.8 109.92 335.68 109.96 335.546 109.96C335.413 109.96 335.32 109.933 335.266 109.88C335.213 109.8 335.16 109.693 335.106 109.56C334.973 109.107 334.84 108.68 334.706 108.28C334.573 107.853 334.413 107.547 334.226 107.36C333.853 106.933 333.44 106.653 332.986 106.52C332.533 106.36 332.053 106.28 331.546 106.28H326.306C326.093 106.28 325.8 106.4 325.426 106.64C325.053 106.88 324.866 107.187 324.866 107.56V116.04C324.866 116.28 324.933 116.493 325.066 116.68C325.226 116.84 325.4 116.92 325.586 116.92H329.546C330.32 116.92 330.853 116.787 331.146 116.52C331.44 116.227 331.68 115.707 331.866 114.96C332.026 114.373 332.266 114.08 332.586 114.08C332.693 114.08 332.8 114.133 332.906 114.24C333.04 114.347 333.106 114.507 333.106 114.72C333.106 114.827 333.093 115.067 333.066 115.44C333.066 115.813 333.053 116.2 333.026 116.6C333 117 332.986 117.307 332.986 117.52C332.986 117.787 332.986 118.147 332.986 118.6C333.013 119.027 333.026 119.44 333.026 119.84C333.053 120.24 333.066 120.493 333.066 120.6C333.066 120.787 333.04 120.947 332.986 121.08C332.96 121.213 332.866 121.28 332.706 121.28C332.306 121.28 332 120.853 331.786 120C331.626 119.387 331.413 118.933 331.146 118.64C330.88 118.347 330.48 118.2 329.946 118.2H326.226C325.773 118.2 325.426 118.267 325.186 118.4C324.973 118.507 324.866 118.787 324.866 119.24V126.92C324.866 127.933 325.08 128.64 325.506 129.04C325.933 129.413 326.6 129.6 327.506 129.6H330.466C331.32 129.6 332.026 129.56 332.586 129.48C333.173 129.373 333.68 129.187 334.106 128.92C334.533 128.627 334.906 128.24 335.226 127.76C335.573 127.28 335.96 126.64 336.386 125.84C336.466 125.68 336.56 125.547 336.666 125.44C336.773 125.333 336.893 125.293 337.026 125.32C337.16 125.347 337.266 125.413 337.346 125.52C337.426 125.6 337.466 125.72 337.466 125.88C337.466 126.12 337.4 126.547 337.266 127.16C337.133 127.747 336.96 128.36 336.746 129C336.56 129.64 336.386 130.147 336.226 130.52C336.146 130.707 336.066 130.867 335.986 131C335.933 131.133 335.826 131.2 335.666 131.2C334.386 131.2 333.2 131.187 332.106 131.16C331.013 131.133 329.973 131.107 328.986 131.08C328 131.053 327.026 131.027 326.066 131C325.133 130.973 324.16 130.96 323.146 130.96C322.56 130.96 322.053 130.973 321.626 131C321.2 131.053 320.76 131.093 320.306 131.12C319.853 131.173 319.266 131.2 318.546 131.2ZM363.964 131.84C363.218 131.84 362.511 131.773 361.844 131.64C361.178 131.533 360.564 131.32 360.004 131C359.444 130.68 358.924 130.24 358.444 129.68C357.804 128.88 357.191 128.12 356.604 127.4C356.018 126.653 355.391 125.8 354.724 124.84C354.084 123.88 353.298 122.653 352.364 121.16C351.964 120.493 351.391 119.973 350.644 119.6C350.058 119.307 349.471 119.107 348.884 119C348.324 118.867 347.858 118.787 347.484 118.76C347.271 118.733 347.111 118.8 347.004 118.96C346.924 119.12 346.884 119.32 346.884 119.56V126.6C346.884 127.453 347.084 128.2 347.484 128.84C347.884 129.453 348.578 129.853 349.564 130.04C350.018 130.12 350.351 130.213 350.564 130.32C350.778 130.427 350.884 130.573 350.884 130.76C350.884 130.92 350.778 131.027 350.564 131.08C350.351 131.16 350.071 131.2 349.724 131.2C349.004 131.2 348.444 131.173 348.044 131.12C347.671 131.067 347.324 131.027 347.004 131C346.711 130.947 346.311 130.92 345.804 130.92C345.138 130.92 344.538 130.947 344.004 131C343.498 131.027 342.978 131.067 342.444 131.12C341.938 131.173 341.324 131.2 340.604 131.2C340.258 131.2 339.978 131.16 339.764 131.08C339.551 131.027 339.444 130.92 339.444 130.76C339.444 130.44 339.884 130.2 340.764 130.04C341.778 129.853 342.511 129.547 342.964 129.12C343.444 128.693 343.684 127.987 343.684 127V109.96C343.684 108.947 343.631 108.187 343.524 107.68C343.444 107.147 343.231 106.773 342.884 106.56C342.564 106.347 342.018 106.2 341.244 106.12C340.791 106.067 340.458 105.973 340.244 105.84C340.031 105.68 339.924 105.507 339.924 105.32C339.924 105.16 340.031 105.053 340.244 105C340.458 104.92 340.738 104.88 341.084 104.88C341.804 104.88 342.338 104.88 342.684 104.88C343.058 104.88 343.404 104.893 343.724 104.92C344.044 104.92 344.471 104.92 345.004 104.92C345.511 104.92 345.964 104.907 346.364 104.88C346.764 104.827 347.204 104.787 347.684 104.76C348.191 104.733 348.831 104.72 349.604 104.72C352.538 104.72 354.764 105.267 356.284 106.36C357.831 107.453 358.604 109.093 358.604 111.28C358.604 112.48 358.364 113.52 357.884 114.4C357.404 115.253 356.804 115.973 356.084 116.56C355.364 117.147 354.631 117.627 353.884 118C353.778 118.027 353.724 118.093 353.724 118.2C353.751 118.28 353.804 118.387 353.884 118.52C354.711 119.773 355.498 120.96 356.244 122.08C357.018 123.2 357.858 124.293 358.764 125.36C359.671 126.427 360.751 127.533 362.004 128.68C362.698 129.293 363.404 129.667 364.124 129.8C364.844 129.933 365.671 130 366.604 130C367.004 130 367.204 130.147 367.204 130.44C367.204 130.84 367.004 131.133 366.604 131.32C366.204 131.533 365.751 131.667 365.244 131.72C364.738 131.8 364.311 131.84 363.964 131.84ZM349.004 117.84C350.231 117.84 351.284 117.56 352.164 117C353.071 116.44 353.764 115.707 354.244 114.8C354.751 113.893 355.004 112.933 355.004 111.92C355.004 110.827 354.858 109.827 354.564 108.92C354.298 108.013 353.738 107.293 352.884 106.76C352.058 106.2 350.804 105.92 349.124 105.92C348.271 105.92 347.711 106.2 347.444 106.76C347.178 107.293 347.018 108.253 346.964 109.64C346.938 110.307 346.911 111.213 346.884 112.36C346.884 113.48 346.884 114.84 346.884 116.44C346.884 117.107 347.071 117.507 347.444 117.64C347.818 117.773 348.338 117.84 349.004 117.84ZM369.64 131.2C369.293 131.2 369.013 131.16 368.8 131.08C368.587 131.027 368.48 130.92 368.48 130.76C368.48 130.44 368.92 130.2 369.8 130.04C370.813 129.853 371.56 129.547 372.04 129.12C372.52 128.693 372.76 128 372.76 127.04V109.04C372.76 108.08 372.56 107.4 372.16 107C371.787 106.6 371.093 106.307 370.08 106.12C369.627 106.04 369.293 105.933 369.08 105.8C368.867 105.667 368.76 105.507 368.76 105.32C368.76 105.16 368.867 105.053 369.08 105C369.293 104.92 369.573 104.88 369.92 104.88C370.933 104.88 371.787 104.893 372.48 104.92C373.2 104.947 373.893 104.973 374.56 105C375.253 105 376.067 105 377 105C377.88 105 378.8 105 379.76 105C380.747 104.973 381.653 104.96 382.48 104.96C383.387 104.933 384.147 104.92 384.76 104.92C385.4 104.893 385.773 104.88 385.88 104.88C386.013 104.88 386.16 104.907 386.32 104.96C386.48 105.013 386.573 105.107 386.6 105.24C386.733 105.987 386.867 106.733 387 107.48C387.133 108.2 387.2 108.827 387.2 109.36C387.2 109.6 387.133 109.76 387 109.84C386.893 109.92 386.773 109.96 386.64 109.96C386.507 109.96 386.413 109.933 386.36 109.88C386.307 109.8 386.253 109.693 386.2 109.56C386.067 109.107 385.933 108.68 385.8 108.28C385.667 107.853 385.507 107.547 385.32 107.36C384.947 106.933 384.533 106.653 384.08 106.52C383.627 106.36 383.147 106.28 382.64 106.28H377.4C377.187 106.28 376.893 106.4 376.52 106.64C376.147 106.88 375.96 107.187 375.96 107.56V116.04C375.96 116.28 376.027 116.493 376.16 116.68C376.32 116.84 376.493 116.92 376.68 116.92H380.64C381.413 116.92 381.947 116.787 382.24 116.52C382.533 116.227 382.773 115.707 382.96 114.96C383.12 114.373 383.36 114.08 383.68 114.08C383.787 114.08 383.893 114.133 384 114.24C384.133 114.347 384.2 114.507 384.2 114.72C384.2 114.827 384.187 115.067 384.16 115.44C384.16 115.813 384.147 116.2 384.12 116.6C384.093 117 384.08 117.307 384.08 117.52C384.08 117.787 384.08 118.147 384.08 118.6C384.107 119.027 384.12 119.44 384.12 119.84C384.147 120.24 384.16 120.493 384.16 120.6C384.16 120.787 384.133 120.947 384.08 121.08C384.053 121.213 383.96 121.28 383.8 121.28C383.4 121.28 383.093 120.853 382.88 120C382.72 119.387 382.507 118.933 382.24 118.64C381.973 118.347 381.573 118.2 381.04 118.2H377.32C376.867 118.2 376.52 118.267 376.28 118.4C376.067 118.507 375.96 118.787 375.96 119.24V126.92C375.96 127.933 376.173 128.64 376.6 129.04C377.027 129.413 377.693 129.6 378.6 129.6H381.56C382.413 129.6 383.12 129.56 383.68 129.48C384.267 129.373 384.773 129.187 385.2 128.92C385.627 128.627 386 128.24 386.32 127.76C386.667 127.28 387.053 126.64 387.48 125.84C387.56 125.68 387.653 125.547 387.76 125.44C387.867 125.333 387.987 125.293 388.12 125.32C388.253 125.347 388.36 125.413 388.44 125.52C388.52 125.6 388.56 125.72 388.56 125.88C388.56 126.12 388.493 126.547 388.36 127.16C388.227 127.747 388.053 128.36 387.84 129C387.653 129.64 387.48 130.147 387.32 130.52C387.24 130.707 387.16 130.867 387.08 131C387.027 131.133 386.92 131.2 386.76 131.2C385.48 131.2 384.293 131.187 383.2 131.16C382.107 131.133 381.067 131.107 380.08 131.08C379.093 131.053 378.12 131.027 377.16 131C376.227 130.973 375.253 130.96 374.24 130.96C373.653 130.96 373.147 130.973 372.72 131C372.293 131.053 371.853 131.093 371.4 131.12C370.947 131.173 370.36 131.2 369.64 131.2ZM59.36 183.2C59.0133 183.2 58.7333 183.16 58.52 183.08C58.3067 183.027 58.2 182.92 58.2 182.76C58.2 182.44 58.64 182.2 59.52 182.04C60.5333 181.853 61.2267 181.547 61.6 181.12C62 180.693 62.2 179.987 62.2 179V162.12C62.2 160.92 62.04 160 61.72 159.36C61.4267 158.72 60.7733 158.307 59.76 158.12C59.3067 158.04 58.9733 157.933 58.76 157.8C58.5467 157.667 58.44 157.507 58.44 157.32C58.44 157.16 58.5467 157.053 58.76 157C58.9733 156.92 59.2533 156.88 59.6 156.88C60.5867 156.88 61.4133 156.893 62.08 156.92C62.7733 156.947 63.4533 156.973 64.12 157C64.7867 157 65.5733 157 66.48 157C67.2533 157 68.08 157 68.96 157C69.84 157 70.6933 157 71.52 157C72.3733 157 73.12 156.933 73.76 156.8C74.4267 156.667 75 156.6 75.48 156.6C75.6133 156.6 75.76 156.627 75.92 156.68C76.08 156.733 76.1733 156.827 76.2 156.96C76.2533 157.253 76.2933 157.693 76.32 158.28C76.3467 158.84 76.36 159.387 76.36 159.92C76.3867 160.453 76.4 160.813 76.4 161C76.4 161.56 76.28 161.84 76.04 161.84C75.9067 161.84 75.7867 161.8 75.68 161.72C75.5733 161.613 75.4933 161.493 75.44 161.36C75.3333 160.907 75.2 160.52 75.04 160.2C74.88 159.853 74.7067 159.587 74.52 159.4C74.1467 158.973 73.7333 158.693 73.28 158.56C72.8267 158.4 72.3467 158.32 71.84 158.32H66.76C66.1467 158.32 65.7733 158.52 65.64 158.92C65.5067 159.32 65.4267 159.787 65.4 160.32C65.3733 160.827 65.36 161.453 65.36 162.2C65.36 162.92 65.36 163.627 65.36 164.32C65.36 164.987 65.36 165.667 65.36 166.36C65.36 167.053 65.3733 167.64 65.4 168.12C65.4 168.333 65.4133 168.533 65.44 168.72C65.4933 168.907 65.6133 169 65.8 169C66.6533 169 67.52 168.987 68.4 168.96C69.28 168.907 69.96 168.88 70.44 168.88C71.0267 168.88 71.5333 168.72 71.96 168.4C72.3867 168.08 72.6933 167.693 72.88 167.24C72.9333 167.133 73.04 167 73.2 166.84C73.36 166.653 73.4933 166.56 73.6 166.56C73.7067 166.56 73.8267 166.627 73.96 166.76C74.0933 166.867 74.1467 167.013 74.12 167.2C74.0933 167.653 74.0667 168.053 74.04 168.4C74.0133 168.747 74 169.08 74 169.4C74 169.8 74.0133 170.213 74.04 170.64C74.0667 171.04 74.0933 171.533 74.12 172.12C74.12 172.307 74.0933 172.467 74.04 172.6C74.0133 172.733 73.92 172.8 73.76 172.8C73.4933 172.8 73.28 172.68 73.12 172.44C72.9867 172.2 72.8933 172.013 72.84 171.88C72.6533 171.267 72.3733 170.853 72 170.64C71.6267 170.4 71.28 170.28 70.96 170.28C70.6133 170.28 70.2667 170.28 69.92 170.28C69.6 170.253 69.28 170.24 68.96 170.24C68.5067 170.24 68.0667 170.24 67.64 170.24C67.2133 170.24 66.7867 170.267 66.36 170.32C66.0933 170.347 65.8667 170.44 65.68 170.6C65.4933 170.733 65.4 170.973 65.4 171.32C65.4 172.547 65.4 173.8 65.4 175.08C65.4267 176.333 65.4667 177.627 65.52 178.96C65.5733 179.813 65.7733 180.493 66.12 181C66.4933 181.507 67.1733 181.853 68.16 182.04C68.6133 182.12 68.9467 182.213 69.16 182.32C69.3733 182.427 69.48 182.573 69.48 182.76C69.48 182.92 69.3733 183.027 69.16 183.08C68.9467 183.16 68.6667 183.2 68.32 183.2C67.6 183.2 67.04 183.173 66.64 183.12C66.2667 183.067 65.92 183.027 65.6 183C65.3067 182.947 64.9067 182.92 64.4 182.92C63.76 182.92 63.1867 182.947 62.68 183C62.2 183.027 61.7067 183.067 61.2 183.12C60.6933 183.173 60.08 183.2 59.36 183.2ZM102.949 183.84C102.202 183.84 101.495 183.773 100.829 183.64C100.162 183.533 99.5488 183.32 98.9888 183C98.4288 182.68 97.9088 182.24 97.4288 181.68C96.7888 180.88 96.1754 180.12 95.5888 179.4C95.0021 178.653 94.3754 177.8 93.7088 176.84C93.0688 175.88 92.2821 174.653 91.3488 173.16C90.9488 172.493 90.3754 171.973 89.6288 171.6C89.0421 171.307 88.4554 171.107 87.8688 171C87.3088 170.867 86.8421 170.787 86.4688 170.76C86.2554 170.733 86.0954 170.8 85.9888 170.96C85.9088 171.12 85.8688 171.32 85.8688 171.56V178.6C85.8688 179.453 86.0688 180.2 86.4688 180.84C86.8688 181.453 87.5621 181.853 88.5488 182.04C89.0021 182.12 89.3354 182.213 89.5488 182.32C89.7621 182.427 89.8688 182.573 89.8688 182.76C89.8688 182.92 89.7621 183.027 89.5488 183.08C89.3354 183.16 89.0554 183.2 88.7088 183.2C87.9888 183.2 87.4288 183.173 87.0288 183.12C86.6554 183.067 86.3088 183.027 85.9888 183C85.6954 182.947 85.2954 182.92 84.7888 182.92C84.1221 182.92 83.5221 182.947 82.9888 183C82.4821 183.027 81.9621 183.067 81.4288 183.12C80.9221 183.173 80.3088 183.2 79.5888 183.2C79.2421 183.2 78.9621 183.16 78.7488 183.08C78.5354 183.027 78.4288 182.92 78.4288 182.76C78.4288 182.44 78.8688 182.2 79.7488 182.04C80.7621 181.853 81.4954 181.547 81.9488 181.12C82.4288 180.693 82.6688 179.987 82.6688 179V161.96C82.6688 160.947 82.6154 160.187 82.5088 159.68C82.4288 159.147 82.2154 158.773 81.8688 158.56C81.5488 158.347 81.0021 158.2 80.2288 158.12C79.7754 158.067 79.4421 157.973 79.2288 157.84C79.0154 157.68 78.9088 157.507 78.9088 157.32C78.9088 157.16 79.0154 157.053 79.2288 157C79.4421 156.92 79.7221 156.88 80.0688 156.88C80.7888 156.88 81.3221 156.88 81.6688 156.88C82.0421 156.88 82.3888 156.893 82.7088 156.92C83.0288 156.92 83.4554 156.92 83.9888 156.92C84.4954 156.92 84.9488 156.907 85.3488 156.88C85.7488 156.827 86.1888 156.787 86.6688 156.76C87.1754 156.733 87.8154 156.72 88.5888 156.72C91.5221 156.72 93.7488 157.267 95.2688 158.36C96.8154 159.453 97.5888 161.093 97.5888 163.28C97.5888 164.48 97.3488 165.52 96.8688 166.4C96.3888 167.253 95.7888 167.973 95.0688 168.56C94.3488 169.147 93.6154 169.627 92.8688 170C92.7621 170.027 92.7088 170.093 92.7088 170.2C92.7354 170.28 92.7888 170.387 92.8688 170.52C93.6954 171.773 94.4821 172.96 95.2288 174.08C96.0021 175.2 96.8421 176.293 97.7488 177.36C98.6554 178.427 99.7354 179.533 100.989 180.68C101.682 181.293 102.389 181.667 103.109 181.8C103.829 181.933 104.655 182 105.589 182C105.989 182 106.189 182.147 106.189 182.44C106.189 182.84 105.989 183.133 105.589 183.32C105.189 183.533 104.735 183.667 104.229 183.72C103.722 183.8 103.295 183.84 102.949 183.84ZM87.9888 169.84C89.2154 169.84 90.2688 169.56 91.1488 169C92.0554 168.44 92.7488 167.707 93.2288 166.8C93.7354 165.893 93.9888 164.933 93.9888 163.92C93.9888 162.827 93.8421 161.827 93.5488 160.92C93.2821 160.013 92.7221 159.293 91.8688 158.76C91.0421 158.2 89.7888 157.92 88.1088 157.92C87.2554 157.92 86.6954 158.2 86.4288 158.76C86.1621 159.293 86.0021 160.253 85.9488 161.64C85.9221 162.307 85.8954 163.213 85.8688 164.36C85.8688 165.48 85.8688 166.84 85.8688 168.44C85.8688 169.107 86.0554 169.507 86.4288 169.64C86.8021 169.773 87.3221 169.84 87.9888 169.84ZM121.064 183.56C119.304 183.56 117.624 183.253 116.024 182.64C114.424 182 113.011 181.107 111.784 179.96C110.558 178.787 109.584 177.4 108.864 175.8C108.144 174.173 107.784 172.373 107.784 170.4C107.784 168.587 108.078 166.853 108.664 165.2C109.251 163.52 110.118 162.027 111.264 160.72C112.411 159.413 113.838 158.373 115.544 157.6C117.251 156.827 119.211 156.44 121.424 156.44C123.184 156.44 124.864 156.76 126.464 157.4C128.064 158.013 129.478 158.907 130.704 160.08C131.931 161.227 132.904 162.613 133.624 164.24C134.344 165.84 134.704 167.627 134.704 169.6C134.704 171.387 134.411 173.12 133.824 174.8C133.238 176.48 132.371 177.973 131.224 179.28C130.078 180.587 128.651 181.627 126.944 182.4C125.238 183.173 123.278 183.56 121.064 183.56ZM121.664 181.96C123.718 181.96 125.424 181.533 126.784 180.68C128.144 179.8 129.158 178.587 129.824 177.04C130.518 175.467 130.864 173.64 130.864 171.56C130.864 169.72 130.651 167.987 130.224 166.36C129.798 164.733 129.158 163.307 128.304 162.08C127.478 160.827 126.438 159.853 125.184 159.16C123.931 158.467 122.464 158.12 120.784 158.12C118.784 158.12 117.104 158.547 115.744 159.4C114.384 160.253 113.358 161.453 112.664 163C111.971 164.52 111.624 166.32 111.624 168.4C111.624 170.267 111.824 172.013 112.224 173.64C112.651 175.267 113.278 176.707 114.104 177.96C114.958 179.213 116.011 180.2 117.264 180.92C118.518 181.613 119.984 181.96 121.664 181.96ZM138.412 183.2C138.066 183.2 137.786 183.16 137.572 183.08C137.359 183.027 137.252 182.92 137.252 182.76C137.252 182.573 137.359 182.427 137.572 182.32C137.786 182.213 138.119 182.12 138.572 182.04C139.239 181.907 139.786 181.587 140.212 181.08C140.639 180.573 140.919 179.853 141.052 178.92C141.372 176.52 141.652 174.24 141.892 172.08C142.132 169.893 142.319 167.933 142.452 166.2C142.612 164.44 142.692 163 142.692 161.88C142.692 161.667 142.692 161.44 142.692 161.2C142.692 160.96 142.679 160.747 142.652 160.56C142.626 160.347 142.586 160.133 142.532 159.92C142.479 159.68 142.319 159.453 142.052 159.24C141.572 158.84 141.106 158.573 140.652 158.44C140.199 158.28 139.666 158.147 139.052 158.04C138.786 157.987 138.572 157.893 138.412 157.76C138.252 157.6 138.172 157.427 138.172 157.24C138.172 157.027 138.292 156.907 138.532 156.88C138.799 156.827 139.132 156.8 139.532 156.8C139.799 156.8 140.199 156.813 140.732 156.84C141.292 156.867 141.892 156.907 142.532 156.96C143.172 157.013 143.759 157.053 144.292 157.08C144.852 157.107 145.266 157.12 145.532 157.12C145.719 157.12 145.879 157.173 146.012 157.28C146.146 157.387 146.239 157.547 146.292 157.76C146.426 158.24 146.559 158.747 146.692 159.28C146.826 159.813 146.986 160.333 147.172 160.84L153.492 176.88C153.572 177.067 153.719 177.187 153.932 177.24C154.146 177.267 154.306 177.187 154.412 177L162.292 160.6C162.426 160.147 162.559 159.64 162.692 159.08C162.826 158.52 162.932 158.027 163.012 157.6C163.092 157.253 163.226 157.08 163.412 157.08H164.852C165.652 157.08 166.492 157.027 167.372 156.92C168.279 156.813 168.959 156.76 169.412 156.76C169.546 156.76 169.719 156.787 169.932 156.84C170.146 156.867 170.252 156.973 170.252 157.16C170.252 157.347 170.172 157.493 170.012 157.6C169.879 157.707 169.612 157.84 169.212 158C168.866 158.133 168.479 158.28 168.052 158.44C167.626 158.6 167.226 158.76 166.852 158.92C166.586 159.027 166.359 159.213 166.172 159.48C165.986 159.72 165.892 159.987 165.892 160.28C165.892 162.147 165.919 163.907 165.972 165.56C166.052 167.187 166.132 168.76 166.212 170.28C166.292 171.773 166.386 173.253 166.492 174.72C166.599 176.187 166.692 177.68 166.772 179.2C166.826 180.027 167.092 180.667 167.572 181.12C168.052 181.547 168.786 181.853 169.772 182.04C170.226 182.12 170.559 182.213 170.772 182.32C170.986 182.427 171.092 182.573 171.092 182.76C171.092 182.92 170.986 183.027 170.772 183.08C170.559 183.16 170.279 183.2 169.932 183.2C169.212 183.2 168.612 183.173 168.132 183.12C167.679 183.093 167.239 183.067 166.812 183.04C166.386 183.013 165.866 183 165.252 183C164.719 183 164.266 183.013 163.892 183.04C163.546 183.067 163.159 183.093 162.732 183.12C162.332 183.173 161.772 183.2 161.052 183.2C160.706 183.2 160.426 183.16 160.212 183.08C159.999 183.027 159.892 182.92 159.892 182.76C159.892 182.573 159.999 182.427 160.212 182.32C160.426 182.187 160.759 182.093 161.212 182.04C161.986 181.933 162.519 181.667 162.812 181.24C163.106 180.787 163.252 180.093 163.252 179.16C163.252 177.24 163.226 175.507 163.172 173.96C163.146 172.413 163.092 170.893 163.012 169.4C162.932 167.88 162.852 166.227 162.772 164.44C162.746 164.147 162.666 164.013 162.532 164.04C162.399 164.04 162.266 164.173 162.132 164.44L152.932 183.2C152.879 183.333 152.759 183.4 152.572 183.4C152.386 183.427 152.266 183.347 152.212 183.16C151.172 180.04 150.052 176.973 148.852 173.96C147.679 170.92 146.346 167.653 144.852 164.16C144.799 164.027 144.706 163.96 144.572 163.96C144.439 163.96 144.359 164.027 144.332 164.16C144.092 166.027 143.866 167.747 143.652 169.32C143.466 170.867 143.319 172.4 143.212 173.92C143.106 175.44 143.052 177.107 143.052 178.92C143.052 179.64 143.279 180.307 143.732 180.92C144.186 181.507 144.826 181.88 145.652 182.04C146.106 182.12 146.439 182.213 146.652 182.32C146.866 182.427 146.972 182.573 146.972 182.76C146.972 182.92 146.866 183.027 146.652 183.08C146.439 183.16 146.159 183.2 145.812 183.2C145.092 183.2 144.546 183.173 144.172 183.12C143.826 183.093 143.506 183.067 143.212 183.04C142.946 183.013 142.559 183 142.052 183C141.572 183 141.199 183.013 140.932 183.04C140.666 183.067 140.359 183.093 140.012 183.12C139.666 183.173 139.132 183.2 138.412 183.2ZM187.835 183.2C187.488 183.2 187.208 183.16 186.995 183.08C186.781 183.027 186.675 182.92 186.675 182.76C186.675 182.573 186.781 182.427 186.995 182.32C187.208 182.213 187.541 182.12 187.995 182.04C189.008 181.853 189.781 181.493 190.315 180.96C190.848 180.4 191.115 179.64 191.115 178.68V172.76C191.115 172.227 190.968 171.653 190.675 171.04C190.408 170.4 190.221 169.987 190.115 169.8L185.435 162.12C185.248 161.8 184.955 161.36 184.555 160.8C184.155 160.213 183.715 159.667 183.235 159.16C182.781 158.653 182.328 158.333 181.875 158.2C181.448 158.067 181.115 157.933 180.875 157.8C180.661 157.667 180.555 157.507 180.555 157.32C180.555 157.16 180.661 157.053 180.875 157C181.088 156.92 181.368 156.88 181.715 156.88C182.328 156.88 183.035 156.907 183.835 156.96C184.635 156.987 185.488 157 186.395 157C187.008 157 187.581 156.987 188.115 156.96C188.675 156.933 189.168 156.92 189.595 156.92C189.941 156.92 190.221 156.96 190.435 157.04C190.648 157.093 190.755 157.2 190.755 157.36C190.755 157.547 190.648 157.707 190.435 157.84C190.221 157.947 189.888 158.053 189.435 158.16C189.061 158.267 188.755 158.387 188.515 158.52C188.275 158.653 188.155 158.867 188.155 159.16C188.155 159.507 188.328 159.987 188.675 160.6L192.355 167.4C192.888 168.413 193.261 168.92 193.475 168.92C193.635 168.92 193.808 168.813 193.995 168.6C194.181 168.36 194.448 167.96 194.795 167.4C195.408 166.467 195.955 165.573 196.435 164.72C196.915 163.867 197.488 162.84 198.155 161.64C198.421 161.187 198.608 160.8 198.715 160.48C198.821 160.133 198.875 159.84 198.875 159.6C198.875 159.093 198.688 158.747 198.315 158.56C197.968 158.373 197.608 158.253 197.235 158.2C196.968 158.147 196.675 158.053 196.355 157.92C196.061 157.76 195.915 157.587 195.915 157.4C195.915 157.24 196.021 157.133 196.235 157.08C196.448 157 196.728 156.96 197.075 156.96C197.688 156.96 198.195 156.973 198.595 157C198.995 157 199.488 157 200.075 157C200.901 157 201.688 156.987 202.435 156.96C203.181 156.907 203.781 156.88 204.235 156.88C204.581 156.88 204.861 156.92 205.075 157C205.288 157.053 205.395 157.16 205.395 157.32C205.395 157.507 205.181 157.68 204.755 157.84C204.328 158 203.835 158.16 203.275 158.32C202.581 158.507 201.995 158.893 201.515 159.48C201.061 160.04 200.475 160.867 199.755 161.96C199.221 162.787 198.768 163.48 198.395 164.04C198.048 164.6 197.715 165.12 197.395 165.6C197.101 166.08 196.795 166.587 196.475 167.12C196.155 167.627 195.768 168.253 195.315 169C194.968 169.56 194.728 170.013 194.595 170.36C194.461 170.707 194.381 171.04 194.355 171.36C194.328 171.653 194.315 172.067 194.315 172.6V178.68C194.315 179.587 194.595 180.333 195.155 180.92C195.715 181.48 196.488 181.853 197.475 182.04C197.928 182.12 198.261 182.213 198.475 182.32C198.688 182.427 198.795 182.573 198.795 182.76C198.795 182.92 198.688 183.027 198.475 183.08C198.261 183.16 197.981 183.2 197.635 183.2C196.915 183.2 196.315 183.173 195.835 183.12C195.381 183.093 194.941 183.067 194.515 183.04C194.088 183.013 193.568 183 192.955 183C192.288 183 191.701 183.013 191.195 183.04C190.715 183.067 190.208 183.093 189.675 183.12C189.168 183.173 188.555 183.2 187.835 183.2ZM217.978 183.56C216.218 183.56 214.538 183.253 212.938 182.64C211.338 182 209.925 181.107 208.698 179.96C207.472 178.787 206.498 177.4 205.778 175.8C205.058 174.173 204.698 172.373 204.698 170.4C204.698 168.587 204.992 166.853 205.578 165.2C206.165 163.52 207.032 162.027 208.178 160.72C209.325 159.413 210.752 158.373 212.458 157.6C214.165 156.827 216.125 156.44 218.338 156.44C220.098 156.44 221.778 156.76 223.378 157.4C224.978 158.013 226.392 158.907 227.618 160.08C228.845 161.227 229.818 162.613 230.538 164.24C231.258 165.84 231.618 167.627 231.618 169.6C231.618 171.387 231.325 173.12 230.738 174.8C230.152 176.48 229.285 177.973 228.138 179.28C226.992 180.587 225.565 181.627 223.858 182.4C222.152 183.173 220.192 183.56 217.978 183.56ZM218.578 181.96C220.632 181.96 222.338 181.533 223.698 180.68C225.058 179.8 226.072 178.587 226.738 177.04C227.432 175.467 227.778 173.64 227.778 171.56C227.778 169.72 227.565 167.987 227.138 166.36C226.712 164.733 226.072 163.307 225.218 162.08C224.392 160.827 223.352 159.853 222.098 159.16C220.845 158.467 219.378 158.12 217.698 158.12C215.698 158.12 214.018 158.547 212.658 159.4C211.298 160.253 210.272 161.453 209.578 163C208.885 164.52 208.538 166.32 208.538 168.4C208.538 170.267 208.738 172.013 209.138 173.64C209.565 175.267 210.192 176.707 211.018 177.96C211.872 179.213 212.925 180.2 214.178 180.92C215.432 181.613 216.898 181.96 218.578 181.96ZM248.286 183.56C245.913 183.56 243.926 183.147 242.326 182.32C240.726 181.467 239.526 180.28 238.726 178.76C237.926 177.213 237.526 175.427 237.526 173.4V161.12C237.526 160.16 237.326 159.467 236.926 159.04C236.553 158.587 236.14 158.307 235.686 158.2C234.806 157.96 234.366 157.667 234.366 157.32C234.366 157.16 234.473 157.053 234.686 157C234.9 156.92 235.18 156.88 235.526 156.88C236.14 156.88 236.74 156.907 237.326 156.96C237.94 156.987 238.62 157 239.366 157C239.98 157 240.553 156.987 241.086 156.96C241.646 156.933 242.14 156.92 242.566 156.92C242.913 156.92 243.193 156.96 243.406 157.04C243.62 157.093 243.726 157.2 243.726 157.36C243.726 157.547 243.62 157.693 243.406 157.8C243.193 157.907 242.86 158.027 242.406 158.16C242.086 158.267 241.726 158.573 241.326 159.08C240.926 159.587 240.726 160.24 240.726 161.04V172.28C240.726 174.413 241.086 176.173 241.806 177.56C242.526 178.92 243.513 179.933 244.766 180.6C246.046 181.24 247.5 181.56 249.126 181.56C251.873 181.56 253.886 180.613 255.166 178.72C256.446 176.8 257.086 174.28 257.086 171.16C257.086 170.573 257.073 169.8 257.046 168.84C257.046 167.88 257.033 166.853 257.006 165.76C256.98 164.64 256.953 163.573 256.926 162.56C256.926 161.867 256.86 161.213 256.726 160.6C256.62 159.987 256.446 159.467 256.206 159.04C255.966 158.587 255.66 158.307 255.286 158.2C255.02 158.12 254.726 158.013 254.406 157.88C254.113 157.747 253.966 157.587 253.966 157.4C253.966 157.24 254.073 157.133 254.286 157.08C254.5 157 254.78 156.96 255.126 156.96C255.74 156.96 256.246 156.973 256.646 157C257.046 157 257.54 157 258.126 157C258.553 157 258.953 157 259.326 157C259.7 156.973 260.06 156.947 260.406 156.92C260.753 156.893 261.073 156.88 261.366 156.88C261.713 156.88 261.993 156.92 262.206 157C262.42 157.053 262.526 157.16 262.526 157.32C262.526 157.667 262.086 157.933 261.206 158.12C260.513 158.253 260.02 158.587 259.726 159.12C259.433 159.653 259.26 160.32 259.206 161.12C259.073 163.413 258.98 165.507 258.926 167.4C258.9 169.293 258.86 171.16 258.806 173C258.753 175.053 258.26 176.88 257.326 178.48C256.393 180.08 255.14 181.333 253.566 182.24C252.02 183.12 250.26 183.56 248.286 183.56Z" fill="white"/>
</g>
<defs>
<clipPath id="clip0_24_2">
<rect width="856" height="494" fill="white"/>
</clipPath>
</defs>
</svg>
