<svg width="856" height="494" viewBox="0 0 856 494" fill="none" xmlns="http://www.w3.org/2000/svg">
<g clip-path="url(#clip0_24_2)">
<rect width="856" height="494" fill="white"/>
<rect width="856" height="494" fill="#A19A8A"/>
<rect x="0.5" y="0.5" width="455" height="493" fill="#2C2A28" stroke="black"/>
<path d="M151.5 238C189.658 238 224.119 248.924 248.988 266.483C273.862 284.047 289 308.124 289 334.5C289 360.876 273.862 384.953 248.988 402.517C224.119 420.076 189.658 431 151.5 431C113.342 431 78.8806 420.076 54.0117 402.517C29.1378 384.953 14 360.876 14 334.5C14 308.124 29.1378 284.047 54.0117 266.483C78.8806 248.924 113.342 238 151.5 238Z" stroke="#A19A8A" stroke-width="4"/>
<path d="M415 334.5C415 388.9 352.544 433 275.5 433C198.456 433 136 388.9 136 334.5C136 280.1 198.456 236 275.5 236C352.544 236 415 280.1 415 334.5Z" stroke="#A19A8A" stroke-width="4" stroke-dasharray="8 8"/>
<path d="M98.4 123.64C98.3467 123.64 98.2667 123.52 98.16 123.28C98.0533 123.04 97.9467 122.787 97.84 122.52L89.2 100.84C88.88 100.147 88.4933 99.5867 88.04 99.16C87.5867 98.7067 87.0133 98.3867 86.32 98.2C85.8933 98.0667 85.56 97.9333 85.32 97.8C85.1067 97.6667 85 97.5067 85 97.32C85 97.16 85.1067 97.0533 85.32 97C85.5333 96.92 85.8133 96.88 86.16 96.88C86.7733 96.88 87.3467 96.9067 87.88 96.96C88.44 96.9867 89.0533 97 89.72 97C90.4667 97 91.1733 96.9867 91.84 96.96C92.5067 96.9333 93.04 96.92 93.44 96.92C93.7867 96.92 94.0667 96.96 94.28 97.04C94.4933 97.0933 94.6 97.2 94.6 97.36C94.6 97.5467 94.4933 97.6933 94.28 97.8C94.0667 97.9067 93.7333 98.0267 93.28 98.16C92.96 98.24 92.7467 98.4133 92.64 98.68C92.5333 98.92 92.48 99.1867 92.48 99.48C92.48 99.9067 92.5333 100.307 92.64 100.68C92.7467 101.027 92.8 101.2 92.8 101.2C93.4133 102.747 93.9733 104.16 94.48 105.44C94.9867 106.72 95.48 107.96 95.96 109.16C96.4667 110.333 96.9867 111.547 97.52 112.8C98.08 114.027 98.6933 115.4 99.36 116.92C99.4933 117.213 99.6 117.347 99.68 117.32C99.7867 117.293 99.88 117.173 99.96 116.96L103.08 109.24C103.16 109.027 103.213 108.853 103.24 108.72C103.293 108.56 103.32 108.427 103.32 108.32C103.32 108.16 103.293 108 103.24 107.84C103.187 107.653 103.107 107.427 103 107.16L100.72 101.48C100.373 100.627 99.8267 99.92 99.08 99.36C98.3333 98.7733 97.6133 98.3867 96.92 98.2C96.4933 98.0667 96.16 97.9333 95.92 97.8C95.7067 97.6667 95.6 97.5067 95.6 97.32C95.6 97.16 95.7067 97.0533 95.92 97C96.1333 96.92 96.4133 96.88 96.76 96.88C97.1867 96.88 97.5867 96.8933 97.96 96.92C98.36 96.9467 98.76 96.9733 99.16 97C99.5867 97 100.04 97 100.52 97C101.133 97 101.693 96.9867 102.2 96.96C102.733 96.9333 103.2 96.92 103.6 96.92C103.947 96.92 104.227 96.96 104.44 97.04C104.653 97.0933 104.76 97.2 104.76 97.36C104.76 97.5733 104.627 97.7467 104.36 97.88C104.093 98.0133 103.813 98.16 103.52 98.32C103.253 98.48 103.12 98.72 103.12 99.04C103.12 99.0933 103.12 99.1467 103.12 99.2C103.147 99.2533 103.173 99.3067 103.2 99.36C103.253 99.4667 103.347 99.7333 103.48 100.16C103.64 100.56 103.813 101.013 104 101.52C104.213 102.027 104.413 102.507 104.6 102.96C104.787 103.387 104.92 103.693 105 103.88C105.133 104.2 105.24 104.373 105.32 104.4C105.427 104.4 105.56 104.227 105.72 103.88C105.933 103.4 106.147 102.853 106.36 102.24C106.6 101.627 106.8 101.053 106.96 100.52C107.147 99.96 107.267 99.5733 107.32 99.36C107.347 99.28 107.36 99.1867 107.36 99.08C107.36 98.76 107.24 98.52 107 98.36C106.76 98.2 106.507 98.0533 106.24 97.92C106 97.76 105.88 97.5733 105.88 97.36C105.88 97.2 105.987 97.0933 106.2 97.04C106.413 96.96 106.693 96.92 107.04 96.92C107.627 96.92 108.027 96.9333 108.24 96.96C108.453 96.9867 108.747 97 109.12 97C109.573 97 109.96 96.9867 110.28 96.96C110.6 96.9067 111 96.88 111.48 96.88C111.827 96.88 112.107 96.92 112.32 97C112.533 97.0533 112.64 97.16 112.64 97.32C112.64 97.5067 112.533 97.6667 112.32 97.8C112.107 97.9067 111.773 98.0133 111.32 98.12C110.467 98.3067 109.88 98.5333 109.56 98.8C109.267 99.0667 108.947 99.48 108.6 100.04C108.467 100.28 108.267 100.68 108 101.24C107.76 101.8 107.493 102.413 107.2 103.08C106.933 103.747 106.693 104.373 106.48 104.96C106.4 105.147 106.32 105.413 106.24 105.76C106.187 106.107 106.187 106.347 106.24 106.48L110.36 117.08C110.413 117.213 110.48 117.253 110.56 117.2C110.64 117.147 110.72 117.027 110.8 116.84C111.467 115.08 112.213 112.827 113.04 110.08C113.893 107.333 114.773 104.427 115.68 101.36C115.76 101.12 115.813 100.88 115.84 100.64C115.893 100.373 115.92 100.133 115.92 99.92C115.92 99.52 115.827 99.16 115.64 98.84C115.48 98.52 115.173 98.3067 114.72 98.2C114.453 98.12 114.16 98.0133 113.84 97.88C113.547 97.7467 113.4 97.5867 113.4 97.4C113.4 97.24 113.507 97.1333 113.72 97.08C113.933 97 114.213 96.96 114.56 96.96C115.093 96.96 115.573 96.9733 116 97C116.453 97 116.933 97 117.44 97C118.107 97 118.747 96.9867 119.36 96.96C119.973 96.9067 120.533 96.88 121.04 96.88C121.387 96.88 121.667 96.92 121.88 97C122.093 97.0533 122.2 97.16 122.2 97.32C122.2 97.5067 122.093 97.6667 121.88 97.8C121.667 97.9067 121.333 98.0133 120.88 98.12C120.24 98.2533 119.693 98.5333 119.24 98.96C118.813 99.36 118.467 99.8133 118.2 100.32C117.96 100.8 117.76 101.24 117.6 101.64L110.52 122.56C110.493 122.667 110.413 122.84 110.28 123.08C110.147 123.347 110.013 123.48 109.88 123.48C109.773 123.48 109.653 123.4 109.52 123.24C109.387 123.08 109.28 122.907 109.2 122.72C108.507 121.12 107.907 119.693 107.4 118.44C106.893 117.16 106.4 115.88 105.92 114.6C105.467 113.32 104.92 111.907 104.28 110.36C104.2 110.173 104.133 110.107 104.08 110.16C104.027 110.187 103.947 110.333 103.84 110.6C103.2 112.12 102.64 113.467 102.16 114.64C101.707 115.813 101.253 117.013 100.8 118.24C100.347 119.44 99.84 120.827 99.28 122.4C99.1733 122.667 99.04 122.933 98.88 123.2C98.72 123.493 98.56 123.64 98.4 123.64ZM124.281 123.2C123.934 123.2 123.654 123.16 123.441 123.08C123.227 123.027 123.121 122.92 123.121 122.76C123.121 122.44 123.561 122.2 124.441 122.04C125.454 121.853 126.201 121.547 126.681 121.12C127.161 120.693 127.401 120 127.401 119.04V101.04C127.401 100.08 127.201 99.4 126.801 99C126.427 98.6 125.734 98.3067 124.721 98.12C124.267 98.04 123.934 97.9333 123.721 97.8C123.507 97.6667 123.401 97.5067 123.401 97.32C123.401 97.16 123.507 97.0533 123.721 97C123.934 96.92 124.214 96.88 124.561 96.88C125.574 96.88 126.427 96.8933 127.121 96.92C127.841 96.9467 128.534 96.9733 129.201 97C129.894 97 130.707 97 131.641 97C132.521 97 133.441 97 134.401 97C135.387 96.9733 136.294 96.96 137.121 96.96C138.027 96.9333 138.787 96.92 139.401 96.92C140.041 96.8933 140.414 96.88 140.521 96.88C140.654 96.88 140.801 96.9067 140.961 96.96C141.121 97.0133 141.214 97.1067 141.241 97.24C141.374 97.9867 141.507 98.7333 141.641 99.48C141.774 100.2 141.841 100.827 141.841 101.36C141.841 101.6 141.774 101.76 141.641 101.84C141.534 101.92 141.414 101.96 141.281 101.96C141.147 101.96 141.054 101.933 141.001 101.88C140.947 101.8 140.894 101.693 140.841 101.56C140.707 101.107 140.574 100.68 140.441 100.28C140.307 99.8533 140.147 99.5467 139.961 99.36C139.587 98.9333 139.174 98.6533 138.721 98.52C138.267 98.36 137.787 98.28 137.281 98.28H132.041C131.827 98.28 131.534 98.4 131.161 98.64C130.787 98.88 130.601 99.1867 130.601 99.56V108.04C130.601 108.28 130.667 108.493 130.801 108.68C130.961 108.84 131.134 108.92 131.321 108.92H135.281C136.054 108.92 136.587 108.787 136.881 108.52C137.174 108.227 137.414 107.707 137.601 106.96C137.761 106.373 138.001 106.08 138.321 106.08C138.427 106.08 138.534 106.133 138.641 106.24C138.774 106.347 138.841 106.507 138.841 106.72C138.841 106.827 138.827 107.067 138.801 107.44C138.801 107.813 138.787 108.2 138.761 108.6C138.734 109 138.721 109.307 138.721 109.52C138.721 109.787 138.721 110.147 138.721 110.6C138.747 111.027 138.761 111.44 138.761 111.84C138.787 112.24 138.801 112.493 138.801 112.6C138.801 112.787 138.774 112.947 138.721 113.08C138.694 113.213 138.601 113.28 138.441 113.28C138.041 113.28 137.734 112.853 137.521 112C137.361 111.387 137.147 110.933 136.881 110.64C136.614 110.347 136.214 110.2 135.681 110.2H131.961C131.507 110.2 131.161 110.267 130.921 110.4C130.707 110.507 130.601 110.787 130.601 111.24V118.92C130.601 119.933 130.814 120.64 131.241 121.04C131.667 121.413 132.334 121.6 133.241 121.6H136.201C137.054 121.6 137.761 121.56 138.321 121.48C138.907 121.373 139.414 121.187 139.841 120.92C140.267 120.627 140.641 120.24 140.961 119.76C141.307 119.28 141.694 118.64 142.121 117.84C142.201 117.68 142.294 117.547 142.401 117.44C142.507 117.333 142.627 117.293 142.761 117.32C142.894 117.347 143.001 117.413 143.081 117.52C143.161 117.6 143.201 117.72 143.201 117.88C143.201 118.12 143.134 118.547 143.001 119.16C142.867 119.747 142.694 120.36 142.481 121C142.294 121.64 142.121 122.147 141.961 122.52C141.881 122.707 141.801 122.867 141.721 123C141.667 123.133 141.561 123.2 141.401 123.2C140.121 123.2 138.934 123.187 137.841 123.16C136.747 123.133 135.707 123.107 134.721 123.08C133.734 123.053 132.761 123.027 131.801 123C130.867 122.973 129.894 122.96 128.881 122.96C128.294 122.96 127.787 122.973 127.361 123C126.934 123.053 126.494 123.093 126.041 123.12C125.587 123.173 125.001 123.2 124.281 123.2ZM154.427 123.2C154.08 123.2 153.8 123.147 153.587 123.04C153.4 122.96 153.307 122.853 153.307 122.72C153.307 122.48 153.427 122.32 153.667 122.24C153.933 122.133 154.107 122.067 154.187 122.04C155.227 121.827 156.027 121.52 156.587 121.12C157.147 120.693 157.427 120.04 157.427 119.16V100.6C157.427 99.96 157.36 99.4933 157.227 99.2C157.093 98.88 156.853 98.6533 156.507 98.52C156.16 98.36 155.653 98.2267 154.987 98.12C154.107 97.96 153.667 97.6933 153.667 97.32C153.667 97.16 153.773 97.0533 153.987 97C154.2 96.92 154.48 96.88 154.827 96.88C155.547 96.88 156.12 96.8933 156.547 96.92C157 96.9467 157.427 96.9733 157.827 97C158.227 97 158.72 97 159.307 97C159.973 97 160.547 97 161.027 97C161.507 96.9733 162 96.9467 162.507 96.92C163.013 96.8933 163.627 96.88 164.347 96.88C164.693 96.88 164.973 96.92 165.187 97C165.4 97.0533 165.507 97.16 165.507 97.32C165.507 97.5067 165.4 97.6667 165.187 97.8C164.973 97.9333 164.64 98.04 164.187 98.12C163.2 98.3067 162.36 98.5333 161.667 98.8C160.973 99.04 160.627 99.5467 160.627 100.32V119.16C160.627 119.987 160.813 120.6 161.187 121C161.56 121.4 162.4 121.6 163.707 121.6H168.667C169.387 121.6 170.013 121.493 170.547 121.28C171.107 121.04 171.52 120.8 171.787 120.56C172.32 120.107 172.707 119.707 172.947 119.36C173.213 118.987 173.52 118.44 173.867 117.72C173.92 117.56 174.027 117.32 174.187 117C174.373 116.68 174.56 116.52 174.747 116.52C174.907 116.52 175.027 116.6 175.107 116.76C175.187 116.92 175.227 117.08 175.227 117.24C175.227 117.267 175.213 117.307 175.187 117.36C175.187 117.387 175.187 117.413 175.187 117.44C175 118.133 174.827 118.76 174.667 119.32C174.533 119.88 174.413 120.413 174.307 120.92C174.227 121.427 174.16 121.96 174.107 122.52C174.08 122.707 174.027 122.867 173.947 123C173.893 123.133 173.76 123.2 173.547 123.2C172.213 123.2 170.933 123.187 169.707 123.16C168.48 123.133 167.293 123.107 166.147 123.08C165.027 123.08 163.947 123.067 162.907 123.04C161.867 123.013 160.84 123 159.827 123C159.16 123 158.4 123.013 157.547 123.04C156.72 123.067 155.987 123.093 155.347 123.12C154.733 123.173 154.427 123.2 154.427 123.2ZM177.506 123.2C177.159 123.2 176.879 123.16 176.666 123.08C176.453 123.027 176.346 122.92 176.346 122.76C176.346 122.44 176.786 122.2 177.666 122.04C178.679 121.853 179.453 121.547 179.986 121.12C180.519 120.693 180.786 120.013 180.786 119.08V101C180.786 100.067 180.586 99.4 180.186 99C179.813 98.6 179.119 98.3067 178.106 98.12C177.226 97.96 176.786 97.6933 176.786 97.32C176.786 97.16 176.893 97.0533 177.106 97C177.319 96.92 177.599 96.88 177.946 96.88C178.666 96.88 179.253 96.8933 179.706 96.92C180.186 96.9467 180.639 96.9733 181.066 97C181.493 97 182.013 97 182.626 97C183.213 97 183.693 97 184.066 97C184.439 96.9733 184.839 96.9467 185.266 96.92C185.693 96.8933 186.266 96.88 186.986 96.88C187.333 96.88 187.613 96.92 187.826 97C188.039 97.0533 188.146 97.16 188.146 97.32C188.146 97.5067 188.039 97.6667 187.826 97.8C187.613 97.9333 187.279 98.04 186.826 98.12C185.839 98.3067 185.119 98.6 184.666 99C184.213 99.4 183.986 100.067 183.986 101V119.08C183.986 120.013 184.266 120.693 184.826 121.12C185.386 121.547 186.159 121.853 187.146 122.04C187.599 122.12 187.933 122.213 188.146 122.32C188.359 122.427 188.466 122.573 188.466 122.76C188.466 122.92 188.359 123.027 188.146 123.08C187.933 123.16 187.653 123.2 187.306 123.2C186.586 123.2 185.986 123.173 185.506 123.12C185.053 123.093 184.613 123.067 184.186 123.04C183.759 123.013 183.239 123 182.626 123C181.959 123 181.373 123.013 180.866 123.04C180.386 123.067 179.879 123.093 179.346 123.12C178.839 123.173 178.226 123.2 177.506 123.2ZM191.58 123.2C191.233 123.2 190.953 123.16 190.74 123.08C190.526 123.027 190.42 122.92 190.42 122.76C190.42 122.44 190.86 122.2 191.74 122.04C192.753 121.853 193.446 121.547 193.82 121.12C194.22 120.667 194.42 119.947 194.42 118.96V100.96C194.42 100.027 194.22 99.3733 193.82 99C193.446 98.6 192.753 98.3067 191.74 98.12C190.86 97.96 190.42 97.6933 190.42 97.32C190.42 97.16 190.526 97.0533 190.74 97C190.953 96.92 191.233 96.88 191.58 96.88C192.3 96.88 192.873 96.8933 193.3 96.92C193.753 96.92 194.18 96.9333 194.58 96.96C194.98 96.96 195.473 96.96 196.06 96.96C196.566 96.96 196.966 96.96 197.26 96.96C197.58 96.9333 197.926 96.92 198.3 96.92C198.673 96.8933 199.22 96.88 199.94 96.88C200.286 96.88 200.566 96.92 200.78 97C200.993 97.0533 201.1 97.16 201.1 97.32C201.1 97.5067 200.993 97.6667 200.78 97.8C200.566 97.9333 200.233 98.04 199.78 98.12C198.793 98.3067 198.18 98.64 197.94 99.12C197.726 99.5733 197.62 100.187 197.62 100.96V108.44C197.62 108.547 197.62 108.707 197.62 108.92C197.646 109.107 197.713 109.2 197.82 109.2C197.953 109.2 198.126 109.12 198.34 108.96C198.58 108.8 198.766 108.64 198.9 108.48L206.9 100.32C207.113 100.107 207.26 99.9067 207.34 99.72C207.446 99.5067 207.5 99.3067 207.5 99.12C207.5 98.64 207.246 98.3333 206.74 98.2C206.286 98.0667 205.966 97.9467 205.78 97.84C205.593 97.7333 205.5 97.5867 205.5 97.4C205.5 97.24 205.606 97.1333 205.82 97.08C206.033 97 206.313 96.96 206.66 96.96H208.82C209.593 96.96 210.446 96.9467 211.38 96.92C212.313 96.8933 213.153 96.8667 213.9 96.84C214.673 96.8133 215.14 96.8 215.3 96.8C215.566 96.8 215.78 96.84 215.94 96.92C216.1 97 216.18 97.1067 216.18 97.24C216.18 97.4267 216.073 97.5867 215.86 97.72C215.646 97.8533 215.313 97.96 214.86 98.04C213.873 98.2267 212.846 98.52 211.78 98.92C210.713 99.32 209.713 99.9067 208.78 100.68C207.82 101.48 206.926 102.267 206.1 103.04C205.3 103.787 204.5 104.573 203.7 105.4C202.9 106.2 202.033 107.12 201.1 108.16C200.94 108.32 201.006 108.56 201.3 108.88L210.98 119.2C211.566 119.84 212.033 120.333 212.38 120.68C212.753 121.027 213.153 121.307 213.58 121.52C214.033 121.707 214.633 121.88 215.38 122.04C215.833 122.147 216.166 122.253 216.38 122.36C216.593 122.44 216.7 122.573 216.7 122.76C216.7 122.92 216.593 123.027 216.38 123.08C216.166 123.16 215.886 123.2 215.54 123.2C214.766 123.2 214.1 123.173 213.54 123.12C212.98 123.093 212.433 123.067 211.9 123.04C211.366 123.013 210.726 123 209.98 123C209.473 123 209.033 123 208.66 123C208.286 123.027 207.646 123.04 206.74 123.04C206.393 123.04 206.113 123.013 205.9 122.96C205.686 122.88 205.58 122.76 205.58 122.6C205.58 122.307 205.94 122.08 206.66 121.92C207.406 121.733 207.78 121.467 207.78 121.12C207.78 120.96 207.713 120.8 207.58 120.64C207.473 120.48 207.34 120.307 207.18 120.12L198.7 110.76C198.54 110.6 198.366 110.453 198.18 110.32C198.02 110.16 197.886 110.08 197.78 110.08C197.673 110.08 197.62 110.187 197.62 110.4C197.62 110.613 197.62 110.787 197.62 110.92C197.62 112.173 197.633 113.373 197.66 114.52C197.713 115.64 197.766 117 197.82 118.6C197.846 119.16 197.926 119.68 198.06 120.16C198.22 120.64 198.473 121.04 198.82 121.36C199.193 121.68 199.713 121.907 200.38 122.04C200.833 122.12 201.166 122.213 201.38 122.32C201.593 122.427 201.7 122.573 201.7 122.76C201.7 122.92 201.593 123.027 201.38 123.08C201.166 123.16 200.886 123.2 200.54 123.2C199.82 123.2 199.26 123.173 198.86 123.12C198.486 123.067 198.14 123.027 197.82 123C197.526 122.947 197.126 122.92 196.62 122.92C195.98 122.92 195.406 122.947 194.9 123C194.42 123.027 193.926 123.067 193.42 123.12C192.913 123.173 192.3 123.2 191.58 123.2ZM219.046 123.2C218.7 123.2 218.42 123.16 218.206 123.08C217.993 123.027 217.886 122.92 217.886 122.76C217.886 122.44 218.326 122.2 219.206 122.04C220.22 121.853 220.966 121.547 221.446 121.12C221.926 120.693 222.166 120 222.166 119.04V101.04C222.166 100.08 221.966 99.4 221.566 99C221.193 98.6 220.5 98.3067 219.486 98.12C219.033 98.04 218.7 97.9333 218.486 97.8C218.273 97.6667 218.166 97.5067 218.166 97.32C218.166 97.16 218.273 97.0533 218.486 97C218.7 96.92 218.98 96.88 219.326 96.88C220.34 96.88 221.193 96.8933 221.886 96.92C222.606 96.9467 223.3 96.9733 223.966 97C224.66 97 225.473 97 226.406 97C227.286 97 228.206 97 229.166 97C230.153 96.9733 231.06 96.96 231.886 96.96C232.793 96.9333 233.553 96.92 234.166 96.92C234.806 96.8933 235.18 96.88 235.286 96.88C235.42 96.88 235.566 96.9067 235.726 96.96C235.886 97.0133 235.98 97.1067 236.006 97.24C236.14 97.9867 236.273 98.7333 236.406 99.48C236.54 100.2 236.606 100.827 236.606 101.36C236.606 101.6 236.54 101.76 236.406 101.84C236.3 101.92 236.18 101.96 236.046 101.96C235.913 101.96 235.82 101.933 235.766 101.88C235.713 101.8 235.66 101.693 235.606 101.56C235.473 101.107 235.34 100.68 235.206 100.28C235.073 99.8533 234.913 99.5467 234.726 99.36C234.353 98.9333 233.94 98.6533 233.486 98.52C233.033 98.36 232.553 98.28 232.046 98.28H226.806C226.593 98.28 226.3 98.4 225.926 98.64C225.553 98.88 225.366 99.1867 225.366 99.56V108.04C225.366 108.28 225.433 108.493 225.566 108.68C225.726 108.84 225.9 108.92 226.086 108.92H230.046C230.82 108.92 231.353 108.787 231.646 108.52C231.94 108.227 232.18 107.707 232.366 106.96C232.526 106.373 232.766 106.08 233.086 106.08C233.193 106.08 233.3 106.133 233.406 106.24C233.54 106.347 233.606 106.507 233.606 106.72C233.606 106.827 233.593 107.067 233.566 107.44C233.566 107.813 233.553 108.2 233.526 108.6C233.5 109 233.486 109.307 233.486 109.52C233.486 109.787 233.486 110.147 233.486 110.6C233.513 111.027 233.526 111.44 233.526 111.84C233.553 112.24 233.566 112.493 233.566 112.6C233.566 112.787 233.54 112.947 233.486 113.08C233.46 113.213 233.366 113.28 233.206 113.28C232.806 113.28 232.5 112.853 232.286 112C232.126 111.387 231.913 110.933 231.646 110.64C231.38 110.347 230.98 110.2 230.446 110.2H226.726C226.273 110.2 225.926 110.267 225.686 110.4C225.473 110.507 225.366 110.787 225.366 111.24V118.92C225.366 119.933 225.58 120.64 226.006 121.04C226.433 121.413 227.1 121.6 228.006 121.6H230.966C231.82 121.6 232.526 121.56 233.086 121.48C233.673 121.373 234.18 121.187 234.606 120.92C235.033 120.627 235.406 120.24 235.726 119.76C236.073 119.28 236.46 118.64 236.886 117.84C236.966 117.68 237.06 117.547 237.166 117.44C237.273 117.333 237.393 117.293 237.526 117.32C237.66 117.347 237.766 117.413 237.846 117.52C237.926 117.6 237.966 117.72 237.966 117.88C237.966 118.12 237.9 118.547 237.766 119.16C237.633 119.747 237.46 120.36 237.246 121C237.06 121.64 236.886 122.147 236.726 122.52C236.646 122.707 236.566 122.867 236.486 123C236.433 123.133 236.326 123.2 236.166 123.2C234.886 123.2 233.7 123.187 232.606 123.16C231.513 123.133 230.473 123.107 229.486 123.08C228.5 123.053 227.526 123.027 226.566 123C225.633 122.973 224.66 122.96 223.646 122.96C223.06 122.96 222.553 122.973 222.126 123C221.7 123.053 221.26 123.093 220.806 123.12C220.353 123.173 219.766 123.2 219.046 123.2ZM255.552 123.2C255.206 123.2 254.926 123.16 254.712 123.08C254.499 123.027 254.392 122.92 254.392 122.76C254.392 122.573 254.499 122.427 254.712 122.32C254.926 122.213 255.259 122.12 255.712 122.04C256.726 121.853 257.499 121.533 258.032 121.08C258.566 120.6 258.832 119.88 258.832 118.92V103.4C258.832 102.173 258.806 101.24 258.752 100.6C258.699 99.9333 258.606 99.4667 258.472 99.2C258.366 98.9333 258.206 98.7867 257.992 98.76C257.619 98.68 257.219 98.64 256.792 98.64C256.392 98.6133 255.846 98.6 255.152 98.6H253.272C252.632 98.6 251.992 98.7333 251.352 99C250.739 99.24 250.286 99.6267 249.992 100.16C249.912 100.293 249.779 100.493 249.592 100.76C249.406 101 249.206 101.213 248.992 101.4C248.779 101.587 248.566 101.68 248.352 101.68C248.246 101.68 248.166 101.627 248.112 101.52C248.086 101.413 248.072 101.293 248.072 101.16C248.072 100.893 248.139 100.627 248.272 100.36C248.646 99.5867 248.912 98.9067 249.072 98.32C249.259 97.7067 249.406 96.9867 249.512 96.16C249.566 95.7067 249.659 95.44 249.792 95.36C249.952 95.28 250.086 95.24 250.192 95.24C250.299 95.24 250.459 95.4 250.672 95.72C250.912 96.04 251.086 96.3067 251.192 96.52C251.352 96.7867 251.712 96.9867 252.272 97.12C252.859 97.2533 253.432 97.32 253.992 97.32H268.072C269.006 97.32 269.766 97.2667 270.352 97.16C270.939 97.0533 271.446 96.9067 271.872 96.72C272.192 96.56 272.446 96.3867 272.632 96.2C272.846 96.0133 273.112 95.92 273.432 95.92C273.512 95.92 273.579 96.0267 273.632 96.24C273.686 96.4267 273.712 96.6267 273.712 96.84C273.712 96.9733 273.686 97.16 273.632 97.4C273.606 97.64 273.579 97.8267 273.552 97.96C273.472 98.44 273.392 98.7867 273.312 99C273.259 99.2133 273.219 99.4 273.192 99.56C273.166 99.72 273.152 99.9733 273.152 100.32V100.8C273.152 101.04 273.099 101.32 272.992 101.64C272.886 101.933 272.726 102.08 272.512 102.08C272.326 102.08 272.179 101.933 272.072 101.64C271.966 101.347 271.859 100.947 271.752 100.44C271.646 99.88 271.326 99.44 270.792 99.12C270.259 98.7733 269.352 98.6 268.072 98.6H264.032C263.446 98.6 263.006 98.68 262.712 98.84C262.419 99 262.232 99.4 262.152 100.04C262.072 100.68 262.032 101.733 262.032 103.2V118.92C262.032 119.88 262.312 120.6 262.872 121.08C263.432 121.533 264.206 121.853 265.192 122.04C265.646 122.12 265.979 122.213 266.192 122.32C266.406 122.427 266.512 122.573 266.512 122.76C266.512 122.92 266.406 123.027 266.192 123.08C265.979 123.16 265.699 123.2 265.352 123.2C264.632 123.2 264.032 123.173 263.552 123.12C263.099 123.093 262.659 123.067 262.232 123.04C261.806 123.013 261.286 123 260.672 123C260.006 123 259.419 123.013 258.912 123.04C258.432 123.067 257.926 123.093 257.392 123.12C256.886 123.173 256.272 123.2 255.552 123.2ZM288.088 123.56C286.328 123.56 284.648 123.253 283.048 122.64C281.448 122 280.034 121.107 278.808 119.96C277.581 118.787 276.608 117.4 275.888 115.8C275.168 114.173 274.808 112.373 274.808 110.4C274.808 108.587 275.101 106.853 275.688 105.2C276.274 103.52 277.141 102.027 278.288 100.72C279.434 99.4133 280.861 98.3733 282.568 97.6C284.274 96.8267 286.234 96.44 288.448 96.44C290.208 96.44 291.888 96.76 293.488 97.4C295.088 98.0133 296.501 98.9067 297.728 100.08C298.954 101.227 299.928 102.613 300.648 104.24C301.368 105.84 301.728 107.627 301.728 109.6C301.728 111.387 301.434 113.12 300.848 114.8C300.261 116.48 299.394 117.973 298.248 119.28C297.101 120.587 295.674 121.627 293.968 122.4C292.261 123.173 290.301 123.56 288.088 123.56ZM288.688 121.96C290.741 121.96 292.448 121.533 293.808 120.68C295.168 119.8 296.181 118.587 296.848 117.04C297.541 115.467 297.888 113.64 297.888 111.56C297.888 109.72 297.674 107.987 297.248 106.36C296.821 104.733 296.181 103.307 295.328 102.08C294.501 100.827 293.461 99.8533 292.208 99.16C290.954 98.4667 289.488 98.12 287.808 98.12C285.808 98.12 284.128 98.5467 282.768 99.4C281.408 100.253 280.381 101.453 279.688 103C278.994 104.52 278.648 106.32 278.648 108.4C278.648 110.267 278.848 112.013 279.248 113.64C279.674 115.267 280.301 116.707 281.128 117.96C281.981 119.213 283.034 120.2 284.288 120.92C285.541 121.613 287.008 121.96 288.688 121.96ZM314.163 123.2C313.817 123.2 313.537 123.147 313.323 123.04C313.11 122.96 313.003 122.84 313.003 122.68C313.003 122.413 313.43 122.2 314.283 122.04C315.297 121.853 315.95 121.547 316.243 121.12C316.563 120.693 316.723 120 316.723 119.04V100.96C316.723 100.027 316.617 99.3733 316.403 99C316.217 98.6 315.617 98.3067 314.603 98.12C313.723 97.96 313.283 97.72 313.283 97.4C313.283 97.24 313.377 97.12 313.563 97.04C313.75 96.9333 314.043 96.88 314.443 96.88C315.163 96.88 315.723 96.8933 316.123 96.92C316.523 96.9467 316.897 96.9733 317.243 97C317.59 97 318.03 97 318.563 97C319.123 97 319.577 97 319.923 97C320.297 96.9733 320.683 96.9467 321.083 96.92C321.51 96.8933 322.083 96.88 322.803 96.88C323.577 96.88 323.963 97.0533 323.963 97.4C323.963 97.5867 323.857 97.7333 323.643 97.84C323.43 97.9467 323.097 98.04 322.643 98.12C321.657 98.3067 320.95 98.64 320.523 99.12C320.123 99.5733 319.923 100.187 319.923 100.96V108.84C319.923 109 319.99 109.107 320.123 109.16C320.257 109.187 320.377 109.2 320.483 109.2H335.323C335.51 109.2 335.603 109.04 335.603 108.72V100.92C335.603 100.2 335.417 99.6 335.043 99.12C334.67 98.64 333.977 98.3067 332.963 98.12C332.51 98.04 332.177 97.9467 331.963 97.84C331.75 97.7333 331.643 97.5867 331.643 97.4C331.643 97.0533 332.03 96.88 332.803 96.88C333.523 96.88 334.11 96.8933 334.563 96.92C335.043 96.9467 335.497 96.9733 335.923 97C336.35 97 336.857 97 337.443 97C337.923 97 338.297 97 338.563 97C338.83 96.9733 339.137 96.9467 339.483 96.92C339.83 96.8933 340.363 96.88 341.083 96.88C341.457 96.88 341.737 96.9333 341.923 97.04C342.137 97.12 342.243 97.24 342.243 97.4C342.243 97.72 341.803 97.96 340.923 98.12C339.937 98.3067 339.337 98.6267 339.123 99.08C338.91 99.5333 338.803 100.147 338.803 100.92V119C338.803 119.987 338.923 120.693 339.163 121.12C339.43 121.547 340.057 121.853 341.043 122.04C341.897 122.2 342.323 122.413 342.323 122.68C342.323 122.84 342.217 122.96 342.003 123.04C341.79 123.147 341.51 123.2 341.163 123.2C340.443 123.2 339.883 123.173 339.483 123.12C339.083 123.093 338.71 123.067 338.363 123.04C338.017 123.013 337.563 123 337.003 123C336.443 123 335.977 123.013 335.603 123.04C335.257 123.067 334.87 123.093 334.443 123.12C334.017 123.173 333.443 123.2 332.723 123.2C332.377 123.2 332.097 123.147 331.883 123.04C331.67 122.96 331.563 122.84 331.563 122.68C331.563 122.493 331.657 122.36 331.843 122.28C332.057 122.2 332.39 122.12 332.843 122.04C333.697 121.88 334.363 121.573 334.843 121.12C335.35 120.64 335.603 119.973 335.603 119.12V111.32C335.603 111.187 335.603 111.053 335.603 110.92C335.603 110.787 335.537 110.72 335.403 110.72H320.123C319.99 110.72 319.923 110.867 319.923 111.16V118.76C319.923 119.587 320.23 120.307 320.843 120.92C321.457 121.507 322.217 121.88 323.123 122.04C323.577 122.12 323.897 122.2 324.083 122.28C324.297 122.36 324.403 122.493 324.403 122.68C324.403 122.84 324.297 122.96 324.083 123.04C323.87 123.147 323.59 123.2 323.243 123.2C322.523 123.2 321.923 123.173 321.443 123.12C320.99 123.093 320.55 123.067 320.123 123.04C319.697 123.013 319.177 123 318.563 123C318.003 123 317.523 123.013 317.123 123.04C316.75 123.067 316.337 123.093 315.883 123.12C315.457 123.173 314.883 123.2 314.163 123.2ZM346.546 123.2C346.2 123.2 345.92 123.16 345.706 123.08C345.493 123.027 345.386 122.92 345.386 122.76C345.386 122.44 345.826 122.2 346.706 122.04C347.72 121.853 348.466 121.547 348.946 121.12C349.426 120.693 349.666 120 349.666 119.04V101.04C349.666 100.08 349.466 99.4 349.066 99C348.693 98.6 348 98.3067 346.986 98.12C346.533 98.04 346.2 97.9333 345.986 97.8C345.773 97.6667 345.666 97.5067 345.666 97.32C345.666 97.16 345.773 97.0533 345.986 97C346.2 96.92 346.48 96.88 346.826 96.88C347.84 96.88 348.693 96.8933 349.386 96.92C350.106 96.9467 350.8 96.9733 351.466 97C352.16 97 352.973 97 353.906 97C354.786 97 355.706 97 356.666 97C357.653 96.9733 358.56 96.96 359.386 96.96C360.293 96.9333 361.053 96.92 361.666 96.92C362.306 96.8933 362.68 96.88 362.786 96.88C362.92 96.88 363.066 96.9067 363.226 96.96C363.386 97.0133 363.48 97.1067 363.506 97.24C363.64 97.9867 363.773 98.7333 363.906 99.48C364.04 100.2 364.106 100.827 364.106 101.36C364.106 101.6 364.04 101.76 363.906 101.84C363.8 101.92 363.68 101.96 363.546 101.96C363.413 101.96 363.32 101.933 363.266 101.88C363.213 101.8 363.16 101.693 363.106 101.56C362.973 101.107 362.84 100.68 362.706 100.28C362.573 99.8533 362.413 99.5467 362.226 99.36C361.853 98.9333 361.44 98.6533 360.986 98.52C360.533 98.36 360.053 98.28 359.546 98.28H354.306C354.093 98.28 353.8 98.4 353.426 98.64C353.053 98.88 352.866 99.1867 352.866 99.56V108.04C352.866 108.28 352.933 108.493 353.066 108.68C353.226 108.84 353.4 108.92 353.586 108.92H357.546C358.32 108.92 358.853 108.787 359.146 108.52C359.44 108.227 359.68 107.707 359.866 106.96C360.026 106.373 360.266 106.08 360.586 106.08C360.693 106.08 360.8 106.133 360.906 106.24C361.04 106.347 361.106 106.507 361.106 106.72C361.106 106.827 361.093 107.067 361.066 107.44C361.066 107.813 361.053 108.2 361.026 108.6C361 109 360.986 109.307 360.986 109.52C360.986 109.787 360.986 110.147 360.986 110.6C361.013 111.027 361.026 111.44 361.026 111.84C361.053 112.24 361.066 112.493 361.066 112.6C361.066 112.787 361.04 112.947 360.986 113.08C360.96 113.213 360.866 113.28 360.706 113.28C360.306 113.28 360 112.853 359.786 112C359.626 111.387 359.413 110.933 359.146 110.64C358.88 110.347 358.48 110.2 357.946 110.2H354.226C353.773 110.2 353.426 110.267 353.186 110.4C352.973 110.507 352.866 110.787 352.866 111.24V118.92C352.866 119.933 353.08 120.64 353.506 121.04C353.933 121.413 354.6 121.6 355.506 121.6H358.466C359.32 121.6 360.026 121.56 360.586 121.48C361.173 121.373 361.68 121.187 362.106 120.92C362.533 120.627 362.906 120.24 363.226 119.76C363.573 119.28 363.96 118.64 364.386 117.84C364.466 117.68 364.56 117.547 364.666 117.44C364.773 117.333 364.893 117.293 365.026 117.32C365.16 117.347 365.266 117.413 365.346 117.52C365.426 117.6 365.466 117.72 365.466 117.88C365.466 118.12 365.4 118.547 365.266 119.16C365.133 119.747 364.96 120.36 364.746 121C364.56 121.64 364.386 122.147 364.226 122.52C364.146 122.707 364.066 122.867 363.986 123C363.933 123.133 363.826 123.2 363.666 123.2C362.386 123.2 361.2 123.187 360.106 123.16C359.013 123.133 357.973 123.107 356.986 123.08C356 123.053 355.026 123.027 354.066 123C353.133 122.973 352.16 122.96 351.146 122.96C350.56 122.96 350.053 122.973 349.626 123C349.2 123.053 348.76 123.093 348.306 123.12C347.853 123.173 347.266 123.2 346.546 123.2ZM391.964 123.84C391.218 123.84 390.511 123.773 389.844 123.64C389.178 123.533 388.564 123.32 388.004 123C387.444 122.68 386.924 122.24 386.444 121.68C385.804 120.88 385.191 120.12 384.604 119.4C384.018 118.653 383.391 117.8 382.724 116.84C382.084 115.88 381.298 114.653 380.364 113.16C379.964 112.493 379.391 111.973 378.644 111.6C378.058 111.307 377.471 111.107 376.884 111C376.324 110.867 375.858 110.787 375.484 110.76C375.271 110.733 375.111 110.8 375.004 110.96C374.924 111.12 374.884 111.32 374.884 111.56V118.6C374.884 119.453 375.084 120.2 375.484 120.84C375.884 121.453 376.578 121.853 377.564 122.04C378.018 122.12 378.351 122.213 378.564 122.32C378.778 122.427 378.884 122.573 378.884 122.76C378.884 122.92 378.778 123.027 378.564 123.08C378.351 123.16 378.071 123.2 377.724 123.2C377.004 123.2 376.444 123.173 376.044 123.12C375.671 123.067 375.324 123.027 375.004 123C374.711 122.947 374.311 122.92 373.804 122.92C373.138 122.92 372.538 122.947 372.004 123C371.498 123.027 370.978 123.067 370.444 123.12C369.938 123.173 369.324 123.2 368.604 123.2C368.258 123.2 367.978 123.16 367.764 123.08C367.551 123.027 367.444 122.92 367.444 122.76C367.444 122.44 367.884 122.2 368.764 122.04C369.778 121.853 370.511 121.547 370.964 121.12C371.444 120.693 371.684 119.987 371.684 119V101.96C371.684 100.947 371.631 100.187 371.524 99.68C371.444 99.1467 371.231 98.7733 370.884 98.56C370.564 98.3467 370.018 98.2 369.244 98.12C368.791 98.0667 368.458 97.9733 368.244 97.84C368.031 97.68 367.924 97.5067 367.924 97.32C367.924 97.16 368.031 97.0533 368.244 97C368.458 96.92 368.738 96.88 369.084 96.88C369.804 96.88 370.338 96.88 370.684 96.88C371.058 96.88 371.404 96.8933 371.724 96.92C372.044 96.92 372.471 96.92 373.004 96.92C373.511 96.92 373.964 96.9067 374.364 96.88C374.764 96.8267 375.204 96.7867 375.684 96.76C376.191 96.7333 376.831 96.72 377.604 96.72C380.538 96.72 382.764 97.2667 384.284 98.36C385.831 99.4533 386.604 101.093 386.604 103.28C386.604 104.48 386.364 105.52 385.884 106.4C385.404 107.253 384.804 107.973 384.084 108.56C383.364 109.147 382.631 109.627 381.884 110C381.778 110.027 381.724 110.093 381.724 110.2C381.751 110.28 381.804 110.387 381.884 110.52C382.711 111.773 383.498 112.96 384.244 114.08C385.018 115.2 385.858 116.293 386.764 117.36C387.671 118.427 388.751 119.533 390.004 120.68C390.698 121.293 391.404 121.667 392.124 121.8C392.844 121.933 393.671 122 394.604 122C395.004 122 395.204 122.147 395.204 122.44C395.204 122.84 395.004 123.133 394.604 123.32C394.204 123.533 393.751 123.667 393.244 123.72C392.738 123.8 392.311 123.84 391.964 123.84ZM377.004 109.84C378.231 109.84 379.284 109.56 380.164 109C381.071 108.44 381.764 107.707 382.244 106.8C382.751 105.893 383.004 104.933 383.004 103.92C383.004 102.827 382.858 101.827 382.564 100.92C382.298 100.013 381.738 99.2933 380.884 98.76C380.058 98.2 378.804 97.92 377.124 97.92C376.271 97.92 375.711 98.2 375.444 98.76C375.178 99.2933 375.018 100.253 374.964 101.64C374.938 102.307 374.911 103.213 374.884 104.36C374.884 105.48 374.884 106.84 374.884 108.44C374.884 109.107 375.071 109.507 375.444 109.64C375.818 109.773 376.338 109.84 377.004 109.84ZM397.64 123.2C397.293 123.2 397.013 123.16 396.8 123.08C396.587 123.027 396.48 122.92 396.48 122.76C396.48 122.44 396.92 122.2 397.8 122.04C398.813 121.853 399.56 121.547 400.04 121.12C400.52 120.693 400.76 120 400.76 119.04V101.04C400.76 100.08 400.56 99.4 400.16 99C399.787 98.6 399.093 98.3067 398.08 98.12C397.627 98.04 397.293 97.9333 397.08 97.8C396.867 97.6667 396.76 97.5067 396.76 97.32C396.76 97.16 396.867 97.0533 397.08 97C397.293 96.92 397.573 96.88 397.92 96.88C398.933 96.88 399.787 96.8933 400.48 96.92C401.2 96.9467 401.893 96.9733 402.56 97C403.253 97 404.067 97 405 97C405.88 97 406.8 97 407.76 97C408.747 96.9733 409.653 96.96 410.48 96.96C411.387 96.9333 412.147 96.92 412.76 96.92C413.4 96.8933 413.773 96.88 413.88 96.88C414.013 96.88 414.16 96.9067 414.32 96.96C414.48 97.0133 414.573 97.1067 414.6 97.24C414.733 97.9867 414.867 98.7333 415 99.48C415.133 100.2 415.2 100.827 415.2 101.36C415.2 101.6 415.133 101.76 415 101.84C414.893 101.92 414.773 101.96 414.64 101.96C414.507 101.96 414.413 101.933 414.36 101.88C414.307 101.8 414.253 101.693 414.2 101.56C414.067 101.107 413.933 100.68 413.8 100.28C413.667 99.8533 413.507 99.5467 413.32 99.36C412.947 98.9333 412.533 98.6533 412.08 98.52C411.627 98.36 411.147 98.28 410.64 98.28H405.4C405.187 98.28 404.893 98.4 404.52 98.64C404.147 98.88 403.96 99.1867 403.96 99.56V108.04C403.96 108.28 404.027 108.493 404.16 108.68C404.32 108.84 404.493 108.92 404.68 108.92H408.64C409.413 108.92 409.947 108.787 410.24 108.52C410.533 108.227 410.773 107.707 410.96 106.96C411.12 106.373 411.36 106.08 411.68 106.08C411.787 106.08 411.893 106.133 412 106.24C412.133 106.347 412.2 106.507 412.2 106.72C412.2 106.827 412.187 107.067 412.16 107.44C412.16 107.813 412.147 108.2 412.12 108.6C412.093 109 412.08 109.307 412.08 109.52C412.08 109.787 412.08 110.147 412.08 110.6C412.107 111.027 412.12 111.44 412.12 111.84C412.147 112.24 412.16 112.493 412.16 112.6C412.16 112.787 412.133 112.947 412.08 113.08C412.053 113.213 411.96 113.28 411.8 113.28C411.4 113.28 411.093 112.853 410.88 112C410.72 111.387 410.507 110.933 410.24 110.64C409.973 110.347 409.573 110.2 409.04 110.2H405.32C404.867 110.2 404.52 110.267 404.28 110.4C404.067 110.507 403.96 110.787 403.96 111.24V118.92C403.96 119.933 404.173 120.64 404.6 121.04C405.027 121.413 405.693 121.6 406.6 121.6H409.56C410.413 121.6 411.12 121.56 411.68 121.48C412.267 121.373 412.773 121.187 413.2 120.92C413.627 120.627 414 120.24 414.32 119.76C414.667 119.28 415.053 118.64 415.48 117.84C415.56 117.68 415.653 117.547 415.76 117.44C415.867 117.333 415.987 117.293 416.12 117.32C416.253 117.347 416.36 117.413 416.44 117.52C416.52 117.6 416.56 117.72 416.56 117.88C416.56 118.12 416.493 118.547 416.36 119.16C416.227 119.747 416.053 120.36 415.84 121C415.653 121.64 415.48 122.147 415.32 122.52C415.24 122.707 415.16 122.867 415.08 123C415.027 123.133 414.92 123.2 414.76 123.2C413.48 123.2 412.293 123.187 411.2 123.16C410.107 123.133 409.067 123.107 408.08 123.08C407.093 123.053 406.12 123.027 405.16 123C404.227 122.973 403.253 122.96 402.24 122.96C401.653 122.96 401.147 122.973 400.72 123C400.293 123.053 399.853 123.093 399.4 123.12C398.947 123.173 398.36 123.2 397.64 123.2ZM87.36 175.2C87.0133 175.2 86.7333 175.16 86.52 175.08C86.3067 175.027 86.2 174.92 86.2 174.76C86.2 174.44 86.64 174.2 87.52 174.04C88.5333 173.853 89.2267 173.547 89.6 173.12C90 172.693 90.2 171.987 90.2 171V154.12C90.2 152.92 90.04 152 89.72 151.36C89.4267 150.72 88.7733 150.307 87.76 150.12C87.3067 150.04 86.9733 149.933 86.76 149.8C86.5467 149.667 86.44 149.507 86.44 149.32C86.44 149.16 86.5467 149.053 86.76 149C86.9733 148.92 87.2533 148.88 87.6 148.88C88.5867 148.88 89.4133 148.893 90.08 148.92C90.7733 148.947 91.4533 148.973 92.12 149C92.7867 149 93.5733 149 94.48 149C95.2533 149 96.08 149 96.96 149C97.84 149 98.6933 149 99.52 149C100.373 149 101.12 148.933 101.76 148.8C102.427 148.667 103 148.6 103.48 148.6C103.613 148.6 103.76 148.627 103.92 148.68C104.08 148.733 104.173 148.827 104.2 148.96C104.253 149.253 104.293 149.693 104.32 150.28C104.347 150.84 104.36 151.387 104.36 151.92C104.387 152.453 104.4 152.813 104.4 153C104.4 153.56 104.28 153.84 104.04 153.84C103.907 153.84 103.787 153.8 103.68 153.72C103.573 153.613 103.493 153.493 103.44 153.36C103.333 152.907 103.2 152.52 103.04 152.2C102.88 151.853 102.707 151.587 102.52 151.4C102.147 150.973 101.733 150.693 101.28 150.56C100.827 150.4 100.347 150.32 99.84 150.32H94.76C94.1467 150.32 93.7733 150.52 93.64 150.92C93.5067 151.32 93.4267 151.787 93.4 152.32C93.3733 152.827 93.36 153.453 93.36 154.2C93.36 154.92 93.36 155.627 93.36 156.32C93.36 156.987 93.36 157.667 93.36 158.36C93.36 159.053 93.3733 159.64 93.4 160.12C93.4 160.333 93.4133 160.533 93.44 160.72C93.4933 160.907 93.6133 161 93.8 161C94.6533 161 95.52 160.987 96.4 160.96C97.28 160.907 97.96 160.88 98.44 160.88C99.0267 160.88 99.5333 160.72 99.96 160.4C100.387 160.08 100.693 159.693 100.88 159.24C100.933 159.133 101.04 159 101.2 158.84C101.36 158.653 101.493 158.56 101.6 158.56C101.707 158.56 101.827 158.627 101.96 158.76C102.093 158.867 102.147 159.013 102.12 159.2C102.093 159.653 102.067 160.053 102.04 160.4C102.013 160.747 102 161.08 102 161.4C102 161.8 102.013 162.213 102.04 162.64C102.067 163.04 102.093 163.533 102.12 164.12C102.12 164.307 102.093 164.467 102.04 164.6C102.013 164.733 101.92 164.8 101.76 164.8C101.493 164.8 101.28 164.68 101.12 164.44C100.987 164.2 100.893 164.013 100.84 163.88C100.653 163.267 100.373 162.853 100 162.64C99.6267 162.4 99.28 162.28 98.96 162.28C98.6133 162.28 98.2667 162.28 97.92 162.28C97.6 162.253 97.28 162.24 96.96 162.24C96.5067 162.24 96.0667 162.24 95.64 162.24C95.2133 162.24 94.7867 162.267 94.36 162.32C94.0933 162.347 93.8667 162.44 93.68 162.6C93.4933 162.733 93.4 162.973 93.4 163.32C93.4 164.547 93.4 165.8 93.4 167.08C93.4267 168.333 93.4667 169.627 93.52 170.96C93.5733 171.813 93.7733 172.493 94.12 173C94.4933 173.507 95.1733 173.853 96.16 174.04C96.6133 174.12 96.9467 174.213 97.16 174.32C97.3733 174.427 97.48 174.573 97.48 174.76C97.48 174.92 97.3733 175.027 97.16 175.08C96.9467 175.16 96.6667 175.2 96.32 175.2C95.6 175.2 95.04 175.173 94.64 175.12C94.2667 175.067 93.92 175.027 93.6 175C93.3067 174.947 92.9067 174.92 92.4 174.92C91.76 174.92 91.1867 174.947 90.68 175C90.2 175.027 89.7067 175.067 89.2 175.12C88.6933 175.173 88.08 175.2 87.36 175.2ZM130.949 175.84C130.202 175.84 129.495 175.773 128.829 175.64C128.162 175.533 127.549 175.32 126.989 175C126.429 174.68 125.909 174.24 125.429 173.68C124.789 172.88 124.175 172.12 123.589 171.4C123.002 170.653 122.375 169.8 121.709 168.84C121.069 167.88 120.282 166.653 119.349 165.16C118.949 164.493 118.375 163.973 117.629 163.6C117.042 163.307 116.455 163.107 115.869 163C115.309 162.867 114.842 162.787 114.469 162.76C114.255 162.733 114.095 162.8 113.989 162.96C113.909 163.12 113.869 163.32 113.869 163.56V170.6C113.869 171.453 114.069 172.2 114.469 172.84C114.869 173.453 115.562 173.853 116.549 174.04C117.002 174.12 117.335 174.213 117.549 174.32C117.762 174.427 117.869 174.573 117.869 174.76C117.869 174.92 117.762 175.027 117.549 175.08C117.335 175.16 117.055 175.2 116.709 175.2C115.989 175.2 115.429 175.173 115.029 175.12C114.655 175.067 114.309 175.027 113.989 175C113.695 174.947 113.295 174.92 112.789 174.92C112.122 174.92 111.522 174.947 110.989 175C110.482 175.027 109.962 175.067 109.429 175.12C108.922 175.173 108.309 175.2 107.589 175.2C107.242 175.2 106.962 175.16 106.749 175.08C106.535 175.027 106.429 174.92 106.429 174.76C106.429 174.44 106.869 174.2 107.749 174.04C108.762 173.853 109.495 173.547 109.949 173.12C110.429 172.693 110.669 171.987 110.669 171V153.96C110.669 152.947 110.615 152.187 110.509 151.68C110.429 151.147 110.215 150.773 109.869 150.56C109.549 150.347 109.002 150.2 108.229 150.12C107.775 150.067 107.442 149.973 107.229 149.84C107.015 149.68 106.909 149.507 106.909 149.32C106.909 149.16 107.015 149.053 107.229 149C107.442 148.92 107.722 148.88 108.069 148.88C108.789 148.88 109.322 148.88 109.669 148.88C110.042 148.88 110.389 148.893 110.709 148.92C111.029 148.92 111.455 148.92 111.989 148.92C112.495 148.92 112.949 148.907 113.349 148.88C113.749 148.827 114.189 148.787 114.669 148.76C115.175 148.733 115.815 148.72 116.589 148.72C119.522 148.72 121.749 149.267 123.269 150.36C124.815 151.453 125.589 153.093 125.589 155.28C125.589 156.48 125.349 157.52 124.869 158.4C124.389 159.253 123.789 159.973 123.069 160.56C122.349 161.147 121.615 161.627 120.869 162C120.762 162.027 120.709 162.093 120.709 162.2C120.735 162.28 120.789 162.387 120.869 162.52C121.695 163.773 122.482 164.96 123.229 166.08C124.002 167.2 124.842 168.293 125.749 169.36C126.655 170.427 127.735 171.533 128.989 172.68C129.682 173.293 130.389 173.667 131.109 173.8C131.829 173.933 132.655 174 133.589 174C133.989 174 134.189 174.147 134.189 174.44C134.189 174.84 133.989 175.133 133.589 175.32C133.189 175.533 132.735 175.667 132.229 175.72C131.722 175.8 131.295 175.84 130.949 175.84ZM115.989 161.84C117.215 161.84 118.269 161.56 119.149 161C120.055 160.44 120.749 159.707 121.229 158.8C121.735 157.893 121.989 156.933 121.989 155.92C121.989 154.827 121.842 153.827 121.549 152.92C121.282 152.013 120.722 151.293 119.869 150.76C119.042 150.2 117.789 149.92 116.109 149.92C115.255 149.92 114.695 150.2 114.429 150.76C114.162 151.293 114.002 152.253 113.949 153.64C113.922 154.307 113.895 155.213 113.869 156.36C113.869 157.48 113.869 158.84 113.869 160.44C113.869 161.107 114.055 161.507 114.429 161.64C114.802 161.773 115.322 161.84 115.989 161.84ZM149.064 175.56C147.304 175.56 145.624 175.253 144.024 174.64C142.424 174 141.011 173.107 139.784 171.96C138.558 170.787 137.584 169.4 136.864 167.8C136.144 166.173 135.784 164.373 135.784 162.4C135.784 160.587 136.078 158.853 136.664 157.2C137.251 155.52 138.118 154.027 139.264 152.72C140.411 151.413 141.838 150.373 143.544 149.6C145.251 148.827 147.211 148.44 149.424 148.44C151.184 148.44 152.864 148.76 154.464 149.4C156.064 150.013 157.478 150.907 158.704 152.08C159.931 153.227 160.904 154.613 161.624 156.24C162.344 157.84 162.704 159.627 162.704 161.6C162.704 163.387 162.411 165.12 161.824 166.8C161.238 168.48 160.371 169.973 159.224 171.28C158.078 172.587 156.651 173.627 154.944 174.4C153.238 175.173 151.278 175.56 149.064 175.56ZM149.664 173.96C151.718 173.96 153.424 173.533 154.784 172.68C156.144 171.8 157.158 170.587 157.824 169.04C158.518 167.467 158.864 165.64 158.864 163.56C158.864 161.72 158.651 159.987 158.224 158.36C157.798 156.733 157.158 155.307 156.304 154.08C155.478 152.827 154.438 151.853 153.184 151.16C151.931 150.467 150.464 150.12 148.784 150.12C146.784 150.12 145.104 150.547 143.744 151.4C142.384 152.253 141.358 153.453 140.664 155C139.971 156.52 139.624 158.32 139.624 160.4C139.624 162.267 139.824 164.013 140.224 165.64C140.651 167.267 141.278 168.707 142.104 169.96C142.958 171.213 144.011 172.2 145.264 172.92C146.518 173.613 147.984 173.96 149.664 173.96ZM166.412 175.2C166.066 175.2 165.786 175.16 165.572 175.08C165.359 175.027 165.252 174.92 165.252 174.76C165.252 174.573 165.359 174.427 165.572 174.32C165.786 174.213 166.119 174.12 166.572 174.04C167.239 173.907 167.786 173.587 168.212 173.08C168.639 172.573 168.919 171.853 169.052 170.92C169.372 168.52 169.652 166.24 169.892 164.08C170.132 161.893 170.319 159.933 170.452 158.2C170.612 156.44 170.692 155 170.692 153.88C170.692 153.667 170.692 153.44 170.692 153.2C170.692 152.96 170.679 152.747 170.652 152.56C170.626 152.347 170.586 152.133 170.532 151.92C170.479 151.68 170.319 151.453 170.052 151.24C169.572 150.84 169.106 150.573 168.652 150.44C168.199 150.28 167.666 150.147 167.052 150.04C166.786 149.987 166.572 149.893 166.412 149.76C166.252 149.6 166.172 149.427 166.172 149.24C166.172 149.027 166.292 148.907 166.532 148.88C166.799 148.827 167.132 148.8 167.532 148.8C167.799 148.8 168.199 148.813 168.732 148.84C169.292 148.867 169.892 148.907 170.532 148.96C171.172 149.013 171.759 149.053 172.292 149.08C172.852 149.107 173.266 149.12 173.532 149.12C173.719 149.12 173.879 149.173 174.012 149.28C174.146 149.387 174.239 149.547 174.292 149.76C174.426 150.24 174.559 150.747 174.692 151.28C174.826 151.813 174.986 152.333 175.172 152.84L181.492 168.88C181.572 169.067 181.719 169.187 181.932 169.24C182.146 169.267 182.306 169.187 182.412 169L190.292 152.6C190.426 152.147 190.559 151.64 190.692 151.08C190.826 150.52 190.932 150.027 191.012 149.6C191.092 149.253 191.226 149.08 191.412 149.08H192.852C193.652 149.08 194.492 149.027 195.372 148.92C196.279 148.813 196.959 148.76 197.412 148.76C197.546 148.76 197.719 148.787 197.932 148.84C198.146 148.867 198.252 148.973 198.252 149.16C198.252 149.347 198.172 149.493 198.012 149.6C197.879 149.707 197.612 149.84 197.212 150C196.866 150.133 196.479 150.28 196.052 150.44C195.626 150.6 195.226 150.76 194.852 150.92C194.586 151.027 194.359 151.213 194.172 151.48C193.986 151.72 193.892 151.987 193.892 152.28C193.892 154.147 193.919 155.907 193.972 157.56C194.052 159.187 194.132 160.76 194.212 162.28C194.292 163.773 194.386 165.253 194.492 166.72C194.599 168.187 194.692 169.68 194.772 171.2C194.826 172.027 195.092 172.667 195.572 173.12C196.052 173.547 196.786 173.853 197.772 174.04C198.226 174.12 198.559 174.213 198.772 174.32C198.986 174.427 199.092 174.573 199.092 174.76C199.092 174.92 198.986 175.027 198.772 175.08C198.559 175.16 198.279 175.2 197.932 175.2C197.212 175.2 196.612 175.173 196.132 175.12C195.679 175.093 195.239 175.067 194.812 175.04C194.386 175.013 193.866 175 193.252 175C192.719 175 192.266 175.013 191.892 175.04C191.546 175.067 191.159 175.093 190.732 175.12C190.332 175.173 189.772 175.2 189.052 175.2C188.706 175.2 188.426 175.16 188.212 175.08C187.999 175.027 187.892 174.92 187.892 174.76C187.892 174.573 187.999 174.427 188.212 174.32C188.426 174.187 188.759 174.093 189.212 174.04C189.986 173.933 190.519 173.667 190.812 173.24C191.106 172.787 191.252 172.093 191.252 171.16C191.252 169.24 191.226 167.507 191.172 165.96C191.146 164.413 191.092 162.893 191.012 161.4C190.932 159.88 190.852 158.227 190.772 156.44C190.746 156.147 190.666 156.013 190.532 156.04C190.399 156.04 190.266 156.173 190.132 156.44L180.932 175.2C180.879 175.333 180.759 175.4 180.572 175.4C180.386 175.427 180.266 175.347 180.212 175.16C179.172 172.04 178.052 168.973 176.852 165.96C175.679 162.92 174.346 159.653 172.852 156.16C172.799 156.027 172.706 155.96 172.572 155.96C172.439 155.96 172.359 156.027 172.332 156.16C172.092 158.027 171.866 159.747 171.652 161.32C171.466 162.867 171.319 164.4 171.212 165.92C171.106 167.44 171.052 169.107 171.052 170.92C171.052 171.64 171.279 172.307 171.732 172.92C172.186 173.507 172.826 173.88 173.652 174.04C174.106 174.12 174.439 174.213 174.652 174.32C174.866 174.427 174.972 174.573 174.972 174.76C174.972 174.92 174.866 175.027 174.652 175.08C174.439 175.16 174.159 175.2 173.812 175.2C173.092 175.2 172.546 175.173 172.172 175.12C171.826 175.093 171.506 175.067 171.212 175.04C170.946 175.013 170.559 175 170.052 175C169.572 175 169.199 175.013 168.932 175.04C168.666 175.067 168.359 175.093 168.012 175.12C167.666 175.173 167.132 175.2 166.412 175.2ZM215.835 175.2C215.488 175.2 215.208 175.16 214.995 175.08C214.781 175.027 214.675 174.92 214.675 174.76C214.675 174.573 214.781 174.427 214.995 174.32C215.208 174.213 215.541 174.12 215.995 174.04C217.008 173.853 217.781 173.493 218.315 172.96C218.848 172.4 219.115 171.64 219.115 170.68V164.76C219.115 164.227 218.968 163.653 218.675 163.04C218.408 162.4 218.221 161.987 218.115 161.8L213.435 154.12C213.248 153.8 212.955 153.36 212.555 152.8C212.155 152.213 211.715 151.667 211.235 151.16C210.781 150.653 210.328 150.333 209.875 150.2C209.448 150.067 209.115 149.933 208.875 149.8C208.661 149.667 208.555 149.507 208.555 149.32C208.555 149.16 208.661 149.053 208.875 149C209.088 148.92 209.368 148.88 209.715 148.88C210.328 148.88 211.035 148.907 211.835 148.96C212.635 148.987 213.488 149 214.395 149C215.008 149 215.581 148.987 216.115 148.96C216.675 148.933 217.168 148.92 217.595 148.92C217.941 148.92 218.221 148.96 218.435 149.04C218.648 149.093 218.755 149.2 218.755 149.36C218.755 149.547 218.648 149.707 218.435 149.84C218.221 149.947 217.888 150.053 217.435 150.16C217.061 150.267 216.755 150.387 216.515 150.52C216.275 150.653 216.155 150.867 216.155 151.16C216.155 151.507 216.328 151.987 216.675 152.6L220.355 159.4C220.888 160.413 221.261 160.92 221.475 160.92C221.635 160.92 221.808 160.813 221.995 160.6C222.181 160.36 222.448 159.96 222.795 159.4C223.408 158.467 223.955 157.573 224.435 156.72C224.915 155.867 225.488 154.84 226.155 153.64C226.421 153.187 226.608 152.8 226.715 152.48C226.821 152.133 226.875 151.84 226.875 151.6C226.875 151.093 226.688 150.747 226.315 150.56C225.968 150.373 225.608 150.253 225.235 150.2C224.968 150.147 224.675 150.053 224.355 149.92C224.061 149.76 223.915 149.587 223.915 149.4C223.915 149.24 224.021 149.133 224.235 149.08C224.448 149 224.728 148.96 225.075 148.96C225.688 148.96 226.195 148.973 226.595 149C226.995 149 227.488 149 228.075 149C228.901 149 229.688 148.987 230.435 148.96C231.181 148.907 231.781 148.88 232.235 148.88C232.581 148.88 232.861 148.92 233.075 149C233.288 149.053 233.395 149.16 233.395 149.32C233.395 149.507 233.181 149.68 232.755 149.84C232.328 150 231.835 150.16 231.275 150.32C230.581 150.507 229.995 150.893 229.515 151.48C229.061 152.04 228.475 152.867 227.755 153.96C227.221 154.787 226.768 155.48 226.395 156.04C226.048 156.6 225.715 157.12 225.395 157.6C225.101 158.08 224.795 158.587 224.475 159.12C224.155 159.627 223.768 160.253 223.315 161C222.968 161.56 222.728 162.013 222.595 162.36C222.461 162.707 222.381 163.04 222.355 163.36C222.328 163.653 222.315 164.067 222.315 164.6V170.68C222.315 171.587 222.595 172.333 223.155 172.92C223.715 173.48 224.488 173.853 225.475 174.04C225.928 174.12 226.261 174.213 226.475 174.32C226.688 174.427 226.795 174.573 226.795 174.76C226.795 174.92 226.688 175.027 226.475 175.08C226.261 175.16 225.981 175.2 225.635 175.2C224.915 175.2 224.315 175.173 223.835 175.12C223.381 175.093 222.941 175.067 222.515 175.04C222.088 175.013 221.568 175 220.955 175C220.288 175 219.701 175.013 219.195 175.04C218.715 175.067 218.208 175.093 217.675 175.12C217.168 175.173 216.555 175.2 215.835 175.2ZM245.978 175.56C244.218 175.56 242.538 175.253 240.938 174.64C239.338 174 237.925 173.107 236.698 171.96C235.472 170.787 234.498 169.4 233.778 167.8C233.058 166.173 232.698 164.373 232.698 162.4C232.698 160.587 232.992 158.853 233.578 157.2C234.165 155.52 235.032 154.027 236.178 152.72C237.325 151.413 238.752 150.373 240.458 149.6C242.165 148.827 244.125 148.44 246.338 148.44C248.098 148.44 249.778 148.76 251.378 149.4C252.978 150.013 254.392 150.907 255.618 152.08C256.845 153.227 257.818 154.613 258.538 156.24C259.258 157.84 259.618 159.627 259.618 161.6C259.618 163.387 259.325 165.12 258.738 166.8C258.152 168.48 257.285 169.973 256.138 171.28C254.992 172.587 253.565 173.627 251.858 174.4C250.152 175.173 248.192 175.56 245.978 175.56ZM246.578 173.96C248.632 173.96 250.338 173.533 251.698 172.68C253.058 171.8 254.072 170.587 254.738 169.04C255.432 167.467 255.778 165.64 255.778 163.56C255.778 161.72 255.565 159.987 255.138 158.36C254.712 156.733 254.072 155.307 253.218 154.08C252.392 152.827 251.352 151.853 250.098 151.16C248.845 150.467 247.378 150.12 245.698 150.12C243.698 150.12 242.018 150.547 240.658 151.4C239.298 152.253 238.272 153.453 237.578 155C236.885 156.52 236.538 158.32 236.538 160.4C236.538 162.267 236.738 164.013 237.138 165.64C237.565 167.267 238.192 168.707 239.018 169.96C239.872 171.213 240.925 172.2 242.178 172.92C243.432 173.613 244.898 173.96 246.578 173.96ZM276.286 175.56C273.913 175.56 271.926 175.147 270.326 174.32C268.726 173.467 267.526 172.28 266.726 170.76C265.926 169.213 265.526 167.427 265.526 165.4V153.12C265.526 152.16 265.326 151.467 264.926 151.04C264.553 150.587 264.14 150.307 263.686 150.2C262.806 149.96 262.366 149.667 262.366 149.32C262.366 149.16 262.473 149.053 262.686 149C262.9 148.92 263.18 148.88 263.526 148.88C264.14 148.88 264.74 148.907 265.326 148.96C265.94 148.987 266.62 149 267.366 149C267.98 149 268.553 148.987 269.086 148.96C269.646 148.933 270.14 148.92 270.566 148.92C270.913 148.92 271.193 148.96 271.406 149.04C271.62 149.093 271.726 149.2 271.726 149.36C271.726 149.547 271.62 149.693 271.406 149.8C271.193 149.907 270.86 150.027 270.406 150.16C270.086 150.267 269.726 150.573 269.326 151.08C268.926 151.587 268.726 152.24 268.726 153.04V164.28C268.726 166.413 269.086 168.173 269.806 169.56C270.526 170.92 271.513 171.933 272.766 172.6C274.046 173.24 275.5 173.56 277.126 173.56C279.873 173.56 281.886 172.613 283.166 170.72C284.446 168.8 285.086 166.28 285.086 163.16C285.086 162.573 285.073 161.8 285.046 160.84C285.046 159.88 285.033 158.853 285.006 157.76C284.98 156.64 284.953 155.573 284.926 154.56C284.926 153.867 284.86 153.213 284.726 152.6C284.62 151.987 284.446 151.467 284.206 151.04C283.966 150.587 283.66 150.307 283.286 150.2C283.02 150.12 282.726 150.013 282.406 149.88C282.113 149.747 281.966 149.587 281.966 149.4C281.966 149.24 282.073 149.133 282.286 149.08C282.5 149 282.78 148.96 283.126 148.96C283.74 148.96 284.246 148.973 284.646 149C285.046 149 285.54 149 286.126 149C286.553 149 286.953 149 287.326 149C287.7 148.973 288.06 148.947 288.406 148.92C288.753 148.893 289.073 148.88 289.366 148.88C289.713 148.88 289.993 148.92 290.206 149C290.42 149.053 290.526 149.16 290.526 149.32C290.526 149.667 290.086 149.933 289.206 150.12C288.513 150.253 288.02 150.587 287.726 151.12C287.433 151.653 287.26 152.32 287.206 153.12C287.073 155.413 286.98 157.507 286.926 159.4C286.9 161.293 286.86 163.16 286.806 165C286.753 167.053 286.26 168.88 285.326 170.48C284.393 172.08 283.14 173.333 281.566 174.24C280.02 175.12 278.26 175.56 276.286 175.56Z" fill="white"/>
</g>
<defs>
<clipPath id="clip0_24_2">
<rect width="856" height="494" fill="white"/>
</clipPath>
</defs>
</svg>
