<svg width="856" height="494" viewBox="0 0 856 494" fill="none" xmlns="http://www.w3.org/2000/svg">
<g clip-path="url(#clip0_24_2)">
<rect width="856" height="494" fill="white"/>
<rect width="856" height="494" fill="#A19A8A"/>
<rect x="0.5" y="0.5" width="455" height="493" fill="#2C2A28" stroke="black"/>
<path d="M146 270C205.83 270 254 314.051 254 368C254 421.949 205.83 466 146 466C86.1696 466 38 421.949 38 368C38 314.051 86.1696 270 146 270Z" stroke="#A19A8A" stroke-width="4"/>
<path d="M366 368C366 423.228 316.751 468 256 468C195.249 468 146 423.228 146 368C146 312.772 195.249 268 256 268C316.751 268 366 312.772 366 368Z" stroke="#A19A8A" stroke-width="4" stroke-dasharray="8 8"/>
<path d="M70.4 163.64C70.3467 163.64 70.2667 163.52 70.16 163.28C70.0533 163.04 69.9467 162.787 69.84 162.52L61.2 140.84C60.88 140.147 60.4933 139.587 60.04 139.16C59.5867 138.707 59.0133 138.387 58.32 138.2C57.8933 138.067 57.56 137.933 57.32 137.8C57.1067 137.667 57 137.507 57 137.32C57 137.16 57.1067 137.053 57.32 137C57.5333 136.92 57.8133 136.88 58.16 136.88C58.7733 136.88 59.3467 136.907 59.88 136.96C60.44 136.987 61.0533 137 61.72 137C62.4667 137 63.1733 136.987 63.84 136.96C64.5067 136.933 65.04 136.92 65.44 136.92C65.7867 136.92 66.0667 136.96 66.28 137.04C66.4933 137.093 66.6 137.2 66.6 137.36C66.6 137.547 66.4933 137.693 66.28 137.8C66.0667 137.907 65.7333 138.027 65.28 138.16C64.96 138.24 64.7467 138.413 64.64 138.68C64.5333 138.92 64.48 139.187 64.48 139.48C64.48 139.907 64.5333 140.307 64.64 140.68C64.7467 141.027 64.8 141.2 64.8 141.2C65.4133 142.747 65.9733 144.16 66.48 145.44C66.9867 146.72 67.48 147.96 67.96 149.16C68.4667 150.333 68.9867 151.547 69.52 152.8C70.08 154.027 70.6933 155.4 71.36 156.92C71.4933 157.213 71.6 157.347 71.68 157.32C71.7867 157.293 71.88 157.173 71.96 156.96L75.08 149.24C75.16 149.027 75.2133 148.853 75.24 148.72C75.2933 148.56 75.32 148.427 75.32 148.32C75.32 148.16 75.2933 148 75.24 147.84C75.1867 147.653 75.1067 147.427 75 147.16L72.72 141.48C72.3733 140.627 71.8267 139.92 71.08 139.36C70.3333 138.773 69.6133 138.387 68.92 138.2C68.4933 138.067 68.16 137.933 67.92 137.8C67.7067 137.667 67.6 137.507 67.6 137.32C67.6 137.16 67.7067 137.053 67.92 137C68.1333 136.92 68.4133 136.88 68.76 136.88C69.1867 136.88 69.5867 136.893 69.96 136.92C70.36 136.947 70.76 136.973 71.16 137C71.5867 137 72.04 137 72.52 137C73.1333 137 73.6933 136.987 74.2 136.96C74.7333 136.933 75.2 136.92 75.6 136.92C75.9467 136.92 76.2267 136.96 76.44 137.04C76.6533 137.093 76.76 137.2 76.76 137.36C76.76 137.573 76.6267 137.747 76.36 137.88C76.0933 138.013 75.8133 138.16 75.52 138.32C75.2533 138.48 75.12 138.72 75.12 139.04C75.12 139.093 75.12 139.147 75.12 139.2C75.1467 139.253 75.1733 139.307 75.2 139.36C75.2533 139.467 75.3467 139.733 75.48 140.16C75.64 140.56 75.8133 141.013 76 141.52C76.2133 142.027 76.4133 142.507 76.6 142.96C76.7867 143.387 76.92 143.693 77 143.88C77.1333 144.2 77.24 144.373 77.32 144.4C77.4267 144.4 77.56 144.227 77.72 143.88C77.9333 143.4 78.1467 142.853 78.36 142.24C78.6 141.627 78.8 141.053 78.96 140.52C79.1467 139.96 79.2667 139.573 79.32 139.36C79.3467 139.28 79.36 139.187 79.36 139.08C79.36 138.76 79.24 138.52 79 138.36C78.76 138.2 78.5067 138.053 78.24 137.92C78 137.76 77.88 137.573 77.88 137.36C77.88 137.2 77.9867 137.093 78.2 137.04C78.4133 136.96 78.6933 136.92 79.04 136.92C79.6267 136.92 80.0267 136.933 80.24 136.96C80.4533 136.987 80.7467 137 81.12 137C81.5733 137 81.96 136.987 82.28 136.96C82.6 136.907 83 136.88 83.48 136.88C83.8267 136.88 84.1067 136.92 84.32 137C84.5333 137.053 84.64 137.16 84.64 137.32C84.64 137.507 84.5333 137.667 84.32 137.8C84.1067 137.907 83.7733 138.013 83.32 138.12C82.4667 138.307 81.88 138.533 81.56 138.8C81.2667 139.067 80.9467 139.48 80.6 140.04C80.4667 140.28 80.2667 140.68 80 141.24C79.76 141.8 79.4933 142.413 79.2 143.08C78.9333 143.747 78.6933 144.373 78.48 144.96C78.4 145.147 78.32 145.413 78.24 145.76C78.1867 146.107 78.1867 146.347 78.24 146.48L82.36 157.08C82.4133 157.213 82.48 157.253 82.56 157.2C82.64 157.147 82.72 157.027 82.8 156.84C83.4667 155.08 84.2133 152.827 85.04 150.08C85.8933 147.333 86.7733 144.427 87.68 141.36C87.76 141.12 87.8133 140.88 87.84 140.64C87.8933 140.373 87.92 140.133 87.92 139.92C87.92 139.52 87.8267 139.16 87.64 138.84C87.48 138.52 87.1733 138.307 86.72 138.2C86.4533 138.12 86.16 138.013 85.84 137.88C85.5467 137.747 85.4 137.587 85.4 137.4C85.4 137.24 85.5067 137.133 85.72 137.08C85.9333 137 86.2133 136.96 86.56 136.96C87.0933 136.96 87.5733 136.973 88 137C88.4533 137 88.9333 137 89.44 137C90.1067 137 90.7467 136.987 91.36 136.96C91.9733 136.907 92.5333 136.88 93.04 136.88C93.3867 136.88 93.6667 136.92 93.88 137C94.0933 137.053 94.2 137.16 94.2 137.32C94.2 137.507 94.0933 137.667 93.88 137.8C93.6667 137.907 93.3333 138.013 92.88 138.12C92.24 138.253 91.6933 138.533 91.24 138.96C90.8133 139.36 90.4667 139.813 90.2 140.32C89.96 140.8 89.76 141.24 89.6 141.64L82.52 162.56C82.4933 162.667 82.4133 162.84 82.28 163.08C82.1467 163.347 82.0133 163.48 81.88 163.48C81.7733 163.48 81.6533 163.4 81.52 163.24C81.3867 163.08 81.28 162.907 81.2 162.72C80.5067 161.12 79.9067 159.693 79.4 158.44C78.8933 157.16 78.4 155.88 77.92 154.6C77.4667 153.32 76.92 151.907 76.28 150.36C76.2 150.173 76.1333 150.107 76.08 150.16C76.0267 150.187 75.9467 150.333 75.84 150.6C75.2 152.12 74.64 153.467 74.16 154.64C73.7067 155.813 73.2533 157.013 72.8 158.24C72.3467 159.44 71.84 160.827 71.28 162.4C71.1733 162.667 71.04 162.933 70.88 163.2C70.72 163.493 70.56 163.64 70.4 163.64ZM96.2806 163.2C95.934 163.2 95.654 163.16 95.4406 163.08C95.2273 163.027 95.1206 162.92 95.1206 162.76C95.1206 162.44 95.5606 162.2 96.4406 162.04C97.454 161.853 98.2006 161.547 98.6806 161.12C99.1606 160.693 99.4006 160 99.4006 159.04V141.04C99.4006 140.08 99.2006 139.4 98.8006 139C98.4273 138.6 97.734 138.307 96.7206 138.12C96.2673 138.04 95.934 137.933 95.7206 137.8C95.5073 137.667 95.4006 137.507 95.4006 137.32C95.4006 137.16 95.5073 137.053 95.7206 137C95.934 136.92 96.214 136.88 96.5606 136.88C97.574 136.88 98.4273 136.893 99.1206 136.92C99.8406 136.947 100.534 136.973 101.201 137C101.894 137 102.707 137 103.641 137C104.521 137 105.441 137 106.401 137C107.387 136.973 108.294 136.96 109.121 136.96C110.027 136.933 110.787 136.92 111.401 136.92C112.041 136.893 112.414 136.88 112.521 136.88C112.654 136.88 112.801 136.907 112.961 136.96C113.121 137.013 113.214 137.107 113.241 137.24C113.374 137.987 113.507 138.733 113.641 139.48C113.774 140.2 113.841 140.827 113.841 141.36C113.841 141.6 113.774 141.76 113.641 141.84C113.534 141.92 113.414 141.96 113.281 141.96C113.147 141.96 113.054 141.933 113.001 141.88C112.947 141.8 112.894 141.693 112.841 141.56C112.707 141.107 112.574 140.68 112.441 140.28C112.307 139.853 112.147 139.547 111.961 139.36C111.587 138.933 111.174 138.653 110.721 138.52C110.267 138.36 109.787 138.28 109.281 138.28H104.041C103.827 138.28 103.534 138.4 103.161 138.64C102.787 138.88 102.601 139.187 102.601 139.56V148.04C102.601 148.28 102.667 148.493 102.801 148.68C102.961 148.84 103.134 148.92 103.321 148.92H107.281C108.054 148.92 108.587 148.787 108.881 148.52C109.174 148.227 109.414 147.707 109.601 146.96C109.761 146.373 110.001 146.08 110.321 146.08C110.427 146.08 110.534 146.133 110.641 146.24C110.774 146.347 110.841 146.507 110.841 146.72C110.841 146.827 110.827 147.067 110.801 147.44C110.801 147.813 110.787 148.2 110.761 148.6C110.734 149 110.721 149.307 110.721 149.52C110.721 149.787 110.721 150.147 110.721 150.6C110.747 151.027 110.761 151.44 110.761 151.84C110.787 152.24 110.801 152.493 110.801 152.6C110.801 152.787 110.774 152.947 110.721 153.08C110.694 153.213 110.601 153.28 110.441 153.28C110.041 153.28 109.734 152.853 109.521 152C109.361 151.387 109.147 150.933 108.881 150.64C108.614 150.347 108.214 150.2 107.681 150.2H103.961C103.507 150.2 103.161 150.267 102.921 150.4C102.707 150.507 102.601 150.787 102.601 151.24V158.92C102.601 159.933 102.814 160.64 103.241 161.04C103.667 161.413 104.334 161.6 105.241 161.6H108.201C109.054 161.6 109.761 161.56 110.321 161.48C110.907 161.373 111.414 161.187 111.841 160.92C112.267 160.627 112.641 160.24 112.961 159.76C113.307 159.28 113.694 158.64 114.121 157.84C114.201 157.68 114.294 157.547 114.401 157.44C114.507 157.333 114.627 157.293 114.761 157.32C114.894 157.347 115.001 157.413 115.081 157.52C115.161 157.6 115.201 157.72 115.201 157.88C115.201 158.12 115.134 158.547 115.001 159.16C114.867 159.747 114.694 160.36 114.481 161C114.294 161.64 114.121 162.147 113.961 162.52C113.881 162.707 113.801 162.867 113.721 163C113.667 163.133 113.561 163.2 113.401 163.2C112.121 163.2 110.934 163.187 109.841 163.16C108.747 163.133 107.707 163.107 106.721 163.08C105.734 163.053 104.761 163.027 103.801 163C102.867 162.973 101.894 162.96 100.881 162.96C100.294 162.96 99.7873 162.973 99.3606 163C98.934 163.053 98.494 163.093 98.0406 163.12C97.5873 163.173 97.0006 163.2 96.2806 163.2ZM126.427 163.2C126.08 163.2 125.8 163.147 125.587 163.04C125.4 162.96 125.307 162.853 125.307 162.72C125.307 162.48 125.427 162.32 125.667 162.24C125.933 162.133 126.107 162.067 126.187 162.04C127.227 161.827 128.027 161.52 128.587 161.12C129.147 160.693 129.427 160.04 129.427 159.16V140.6C129.427 139.96 129.36 139.493 129.227 139.2C129.093 138.88 128.853 138.653 128.507 138.52C128.16 138.36 127.653 138.227 126.987 138.12C126.107 137.96 125.667 137.693 125.667 137.32C125.667 137.16 125.773 137.053 125.987 137C126.2 136.92 126.48 136.88 126.827 136.88C127.547 136.88 128.12 136.893 128.547 136.92C129 136.947 129.427 136.973 129.827 137C130.227 137 130.72 137 131.307 137C131.973 137 132.547 137 133.027 137C133.507 136.973 134 136.947 134.507 136.92C135.013 136.893 135.627 136.88 136.347 136.88C136.693 136.88 136.973 136.92 137.187 137C137.4 137.053 137.507 137.16 137.507 137.32C137.507 137.507 137.4 137.667 137.187 137.8C136.973 137.933 136.64 138.04 136.187 138.12C135.2 138.307 134.36 138.533 133.667 138.8C132.973 139.04 132.627 139.547 132.627 140.32V159.16C132.627 159.987 132.813 160.6 133.187 161C133.56 161.4 134.4 161.6 135.707 161.6H140.667C141.387 161.6 142.013 161.493 142.547 161.28C143.107 161.04 143.52 160.8 143.787 160.56C144.32 160.107 144.707 159.707 144.947 159.36C145.213 158.987 145.52 158.44 145.867 157.72C145.92 157.56 146.027 157.32 146.187 157C146.373 156.68 146.56 156.52 146.747 156.52C146.907 156.52 147.027 156.6 147.107 156.76C147.187 156.92 147.227 157.08 147.227 157.24C147.227 157.267 147.213 157.307 147.187 157.36C147.187 157.387 147.187 157.413 147.187 157.44C147 158.133 146.827 158.76 146.667 159.32C146.533 159.88 146.413 160.413 146.307 160.92C146.227 161.427 146.16 161.96 146.107 162.52C146.08 162.707 146.027 162.867 145.947 163C145.893 163.133 145.76 163.2 145.547 163.2C144.213 163.2 142.933 163.187 141.707 163.16C140.48 163.133 139.293 163.107 138.147 163.08C137.027 163.08 135.947 163.067 134.907 163.04C133.867 163.013 132.84 163 131.827 163C131.16 163 130.4 163.013 129.547 163.04C128.72 163.067 127.987 163.093 127.347 163.12C126.733 163.173 126.427 163.2 126.427 163.2ZM149.506 163.2C149.159 163.2 148.879 163.16 148.666 163.08C148.453 163.027 148.346 162.92 148.346 162.76C148.346 162.44 148.786 162.2 149.666 162.04C150.679 161.853 151.453 161.547 151.986 161.12C152.519 160.693 152.786 160.013 152.786 159.08V141C152.786 140.067 152.586 139.4 152.186 139C151.813 138.6 151.119 138.307 150.106 138.12C149.226 137.96 148.786 137.693 148.786 137.32C148.786 137.16 148.893 137.053 149.106 137C149.319 136.92 149.599 136.88 149.946 136.88C150.666 136.88 151.253 136.893 151.706 136.92C152.186 136.947 152.639 136.973 153.066 137C153.493 137 154.013 137 154.626 137C155.213 137 155.693 137 156.066 137C156.439 136.973 156.839 136.947 157.266 136.92C157.693 136.893 158.266 136.88 158.986 136.88C159.333 136.88 159.613 136.92 159.826 137C160.039 137.053 160.146 137.16 160.146 137.32C160.146 137.507 160.039 137.667 159.826 137.8C159.613 137.933 159.279 138.04 158.826 138.12C157.839 138.307 157.119 138.6 156.666 139C156.213 139.4 155.986 140.067 155.986 141V159.08C155.986 160.013 156.266 160.693 156.826 161.12C157.386 161.547 158.159 161.853 159.146 162.04C159.599 162.12 159.933 162.213 160.146 162.32C160.359 162.427 160.466 162.573 160.466 162.76C160.466 162.92 160.359 163.027 160.146 163.08C159.933 163.16 159.653 163.2 159.306 163.2C158.586 163.2 157.986 163.173 157.506 163.12C157.053 163.093 156.613 163.067 156.186 163.04C155.759 163.013 155.239 163 154.626 163C153.959 163 153.373 163.013 152.866 163.04C152.386 163.067 151.879 163.093 151.346 163.12C150.839 163.173 150.226 163.2 149.506 163.2ZM163.58 163.2C163.233 163.2 162.953 163.16 162.74 163.08C162.526 163.027 162.42 162.92 162.42 162.76C162.42 162.44 162.86 162.2 163.74 162.04C164.753 161.853 165.446 161.547 165.82 161.12C166.22 160.667 166.42 159.947 166.42 158.96V140.96C166.42 140.027 166.22 139.373 165.82 139C165.446 138.6 164.753 138.307 163.74 138.12C162.86 137.96 162.42 137.693 162.42 137.32C162.42 137.16 162.526 137.053 162.74 137C162.953 136.92 163.233 136.88 163.58 136.88C164.3 136.88 164.873 136.893 165.3 136.92C165.753 136.92 166.18 136.933 166.58 136.96C166.98 136.96 167.473 136.96 168.06 136.96C168.566 136.96 168.966 136.96 169.26 136.96C169.58 136.933 169.926 136.92 170.3 136.92C170.673 136.893 171.22 136.88 171.94 136.88C172.286 136.88 172.566 136.92 172.78 137C172.993 137.053 173.1 137.16 173.1 137.32C173.1 137.507 172.993 137.667 172.78 137.8C172.566 137.933 172.233 138.04 171.78 138.12C170.793 138.307 170.18 138.64 169.94 139.12C169.726 139.573 169.62 140.187 169.62 140.96V148.44C169.62 148.547 169.62 148.707 169.62 148.92C169.646 149.107 169.713 149.2 169.82 149.2C169.953 149.2 170.126 149.12 170.34 148.96C170.58 148.8 170.766 148.64 170.9 148.48L178.9 140.32C179.113 140.107 179.26 139.907 179.34 139.72C179.446 139.507 179.5 139.307 179.5 139.12C179.5 138.64 179.246 138.333 178.74 138.2C178.286 138.067 177.966 137.947 177.78 137.84C177.593 137.733 177.5 137.587 177.5 137.4C177.5 137.24 177.606 137.133 177.82 137.08C178.033 137 178.313 136.96 178.66 136.96H180.82C181.593 136.96 182.446 136.947 183.38 136.92C184.313 136.893 185.153 136.867 185.9 136.84C186.673 136.813 187.14 136.8 187.3 136.8C187.566 136.8 187.78 136.84 187.94 136.92C188.1 137 188.18 137.107 188.18 137.24C188.18 137.427 188.073 137.587 187.86 137.72C187.646 137.853 187.313 137.96 186.86 138.04C185.873 138.227 184.846 138.52 183.78 138.92C182.713 139.32 181.713 139.907 180.78 140.68C179.82 141.48 178.926 142.267 178.1 143.04C177.3 143.787 176.5 144.573 175.7 145.4C174.9 146.2 174.033 147.12 173.1 148.16C172.94 148.32 173.006 148.56 173.3 148.88L182.98 159.2C183.566 159.84 184.033 160.333 184.38 160.68C184.753 161.027 185.153 161.307 185.58 161.52C186.033 161.707 186.633 161.88 187.38 162.04C187.833 162.147 188.166 162.253 188.38 162.36C188.593 162.44 188.7 162.573 188.7 162.76C188.7 162.92 188.593 163.027 188.38 163.08C188.166 163.16 187.886 163.2 187.54 163.2C186.766 163.2 186.1 163.173 185.54 163.12C184.98 163.093 184.433 163.067 183.9 163.04C183.366 163.013 182.726 163 181.98 163C181.473 163 181.033 163 180.66 163C180.286 163.027 179.646 163.04 178.74 163.04C178.393 163.04 178.113 163.013 177.9 162.96C177.686 162.88 177.58 162.76 177.58 162.6C177.58 162.307 177.94 162.08 178.66 161.92C179.406 161.733 179.78 161.467 179.78 161.12C179.78 160.96 179.713 160.8 179.58 160.64C179.473 160.48 179.34 160.307 179.18 160.12L170.7 150.76C170.54 150.6 170.366 150.453 170.18 150.32C170.02 150.16 169.886 150.08 169.78 150.08C169.673 150.08 169.62 150.187 169.62 150.4C169.62 150.613 169.62 150.787 169.62 150.92C169.62 152.173 169.633 153.373 169.66 154.52C169.713 155.64 169.766 157 169.82 158.6C169.846 159.16 169.926 159.68 170.06 160.16C170.22 160.64 170.473 161.04 170.82 161.36C171.193 161.68 171.713 161.907 172.38 162.04C172.833 162.12 173.166 162.213 173.38 162.32C173.593 162.427 173.7 162.573 173.7 162.76C173.7 162.92 173.593 163.027 173.38 163.08C173.166 163.16 172.886 163.2 172.54 163.2C171.82 163.2 171.26 163.173 170.86 163.12C170.486 163.067 170.14 163.027 169.82 163C169.526 162.947 169.126 162.92 168.62 162.92C167.98 162.92 167.406 162.947 166.9 163C166.42 163.027 165.926 163.067 165.42 163.12C164.913 163.173 164.3 163.2 163.58 163.2ZM191.046 163.2C190.7 163.2 190.42 163.16 190.206 163.08C189.993 163.027 189.886 162.92 189.886 162.76C189.886 162.44 190.326 162.2 191.206 162.04C192.22 161.853 192.966 161.547 193.446 161.12C193.926 160.693 194.166 160 194.166 159.04V141.04C194.166 140.08 193.966 139.4 193.566 139C193.193 138.6 192.5 138.307 191.486 138.12C191.033 138.04 190.7 137.933 190.486 137.8C190.273 137.667 190.166 137.507 190.166 137.32C190.166 137.16 190.273 137.053 190.486 137C190.7 136.92 190.98 136.88 191.326 136.88C192.34 136.88 193.193 136.893 193.886 136.92C194.606 136.947 195.3 136.973 195.966 137C196.66 137 197.473 137 198.406 137C199.286 137 200.206 137 201.166 137C202.153 136.973 203.06 136.96 203.886 136.96C204.793 136.933 205.553 136.92 206.166 136.92C206.806 136.893 207.18 136.88 207.286 136.88C207.42 136.88 207.566 136.907 207.726 136.96C207.886 137.013 207.98 137.107 208.006 137.24C208.14 137.987 208.273 138.733 208.406 139.48C208.54 140.2 208.606 140.827 208.606 141.36C208.606 141.6 208.54 141.76 208.406 141.84C208.3 141.92 208.18 141.96 208.046 141.96C207.913 141.96 207.82 141.933 207.766 141.88C207.713 141.8 207.66 141.693 207.606 141.56C207.473 141.107 207.34 140.68 207.206 140.28C207.073 139.853 206.913 139.547 206.726 139.36C206.353 138.933 205.94 138.653 205.486 138.52C205.033 138.36 204.553 138.28 204.046 138.28H198.806C198.593 138.28 198.3 138.4 197.926 138.64C197.553 138.88 197.366 139.187 197.366 139.56V148.04C197.366 148.28 197.433 148.493 197.566 148.68C197.726 148.84 197.9 148.92 198.086 148.92H202.046C202.82 148.92 203.353 148.787 203.646 148.52C203.94 148.227 204.18 147.707 204.366 146.96C204.526 146.373 204.766 146.08 205.086 146.08C205.193 146.08 205.3 146.133 205.406 146.24C205.54 146.347 205.606 146.507 205.606 146.72C205.606 146.827 205.593 147.067 205.566 147.44C205.566 147.813 205.553 148.2 205.526 148.6C205.5 149 205.486 149.307 205.486 149.52C205.486 149.787 205.486 150.147 205.486 150.6C205.513 151.027 205.526 151.44 205.526 151.84C205.553 152.24 205.566 152.493 205.566 152.6C205.566 152.787 205.54 152.947 205.486 153.08C205.46 153.213 205.366 153.28 205.206 153.28C204.806 153.28 204.5 152.853 204.286 152C204.126 151.387 203.913 150.933 203.646 150.64C203.38 150.347 202.98 150.2 202.446 150.2H198.726C198.273 150.2 197.926 150.267 197.686 150.4C197.473 150.507 197.366 150.787 197.366 151.24V158.92C197.366 159.933 197.58 160.64 198.006 161.04C198.433 161.413 199.1 161.6 200.006 161.6H202.966C203.82 161.6 204.526 161.56 205.086 161.48C205.673 161.373 206.18 161.187 206.606 160.92C207.033 160.627 207.406 160.24 207.726 159.76C208.073 159.28 208.46 158.64 208.886 157.84C208.966 157.68 209.06 157.547 209.166 157.44C209.273 157.333 209.393 157.293 209.526 157.32C209.66 157.347 209.766 157.413 209.846 157.52C209.926 157.6 209.966 157.72 209.966 157.88C209.966 158.12 209.9 158.547 209.766 159.16C209.633 159.747 209.46 160.36 209.246 161C209.06 161.64 208.886 162.147 208.726 162.52C208.646 162.707 208.566 162.867 208.486 163C208.433 163.133 208.326 163.2 208.166 163.2C206.886 163.2 205.7 163.187 204.606 163.16C203.513 163.133 202.473 163.107 201.486 163.08C200.5 163.053 199.526 163.027 198.566 163C197.633 162.973 196.66 162.96 195.646 162.96C195.06 162.96 194.553 162.973 194.126 163C193.7 163.053 193.26 163.093 192.806 163.12C192.353 163.173 191.766 163.2 191.046 163.2ZM227.552 163.2C227.206 163.2 226.926 163.16 226.712 163.08C226.499 163.027 226.392 162.92 226.392 162.76C226.392 162.573 226.499 162.427 226.712 162.32C226.926 162.213 227.259 162.12 227.712 162.04C228.726 161.853 229.499 161.533 230.032 161.08C230.566 160.6 230.832 159.88 230.832 158.92V143.4C230.832 142.173 230.806 141.24 230.752 140.6C230.699 139.933 230.606 139.467 230.472 139.2C230.366 138.933 230.206 138.787 229.992 138.76C229.619 138.68 229.219 138.64 228.792 138.64C228.392 138.613 227.846 138.6 227.152 138.6H225.272C224.632 138.6 223.992 138.733 223.352 139C222.739 139.24 222.286 139.627 221.992 140.16C221.912 140.293 221.779 140.493 221.592 140.76C221.406 141 221.206 141.213 220.992 141.4C220.779 141.587 220.566 141.68 220.352 141.68C220.246 141.68 220.166 141.627 220.112 141.52C220.086 141.413 220.072 141.293 220.072 141.16C220.072 140.893 220.139 140.627 220.272 140.36C220.646 139.587 220.912 138.907 221.072 138.32C221.259 137.707 221.406 136.987 221.512 136.16C221.566 135.707 221.659 135.44 221.792 135.36C221.952 135.28 222.086 135.24 222.192 135.24C222.299 135.24 222.459 135.4 222.672 135.72C222.912 136.04 223.086 136.307 223.192 136.52C223.352 136.787 223.712 136.987 224.272 137.12C224.859 137.253 225.432 137.32 225.992 137.32H240.072C241.006 137.32 241.766 137.267 242.352 137.16C242.939 137.053 243.446 136.907 243.872 136.72C244.192 136.56 244.446 136.387 244.632 136.2C244.846 136.013 245.112 135.92 245.432 135.92C245.512 135.92 245.579 136.027 245.632 136.24C245.686 136.427 245.712 136.627 245.712 136.84C245.712 136.973 245.686 137.16 245.632 137.4C245.606 137.64 245.579 137.827 245.552 137.96C245.472 138.44 245.392 138.787 245.312 139C245.259 139.213 245.219 139.4 245.192 139.56C245.166 139.72 245.152 139.973 245.152 140.32V140.8C245.152 141.04 245.099 141.32 244.992 141.64C244.886 141.933 244.726 142.08 244.512 142.08C244.326 142.08 244.179 141.933 244.072 141.64C243.966 141.347 243.859 140.947 243.752 140.44C243.646 139.88 243.326 139.44 242.792 139.12C242.259 138.773 241.352 138.6 240.072 138.6H236.032C235.446 138.6 235.006 138.68 234.712 138.84C234.419 139 234.232 139.4 234.152 140.04C234.072 140.68 234.032 141.733 234.032 143.2V158.92C234.032 159.88 234.312 160.6 234.872 161.08C235.432 161.533 236.206 161.853 237.192 162.04C237.646 162.12 237.979 162.213 238.192 162.32C238.406 162.427 238.512 162.573 238.512 162.76C238.512 162.92 238.406 163.027 238.192 163.08C237.979 163.16 237.699 163.2 237.352 163.2C236.632 163.2 236.032 163.173 235.552 163.12C235.099 163.093 234.659 163.067 234.232 163.04C233.806 163.013 233.286 163 232.672 163C232.006 163 231.419 163.013 230.912 163.04C230.432 163.067 229.926 163.093 229.392 163.12C228.886 163.173 228.272 163.2 227.552 163.2ZM260.088 163.56C258.328 163.56 256.648 163.253 255.048 162.64C253.448 162 252.034 161.107 250.808 159.96C249.581 158.787 248.608 157.4 247.888 155.8C247.168 154.173 246.808 152.373 246.808 150.4C246.808 148.587 247.101 146.853 247.688 145.2C248.274 143.52 249.141 142.027 250.288 140.72C251.434 139.413 252.861 138.373 254.568 137.6C256.274 136.827 258.234 136.44 260.448 136.44C262.208 136.44 263.888 136.76 265.488 137.4C267.088 138.013 268.501 138.907 269.728 140.08C270.954 141.227 271.928 142.613 272.648 144.24C273.368 145.84 273.728 147.627 273.728 149.6C273.728 151.387 273.434 153.12 272.848 154.8C272.261 156.48 271.394 157.973 270.248 159.28C269.101 160.587 267.674 161.627 265.968 162.4C264.261 163.173 262.301 163.56 260.088 163.56ZM260.688 161.96C262.741 161.96 264.448 161.533 265.808 160.68C267.168 159.8 268.181 158.587 268.848 157.04C269.541 155.467 269.888 153.64 269.888 151.56C269.888 149.72 269.674 147.987 269.248 146.36C268.821 144.733 268.181 143.307 267.328 142.08C266.501 140.827 265.461 139.853 264.208 139.16C262.954 138.467 261.488 138.12 259.808 138.12C257.808 138.12 256.128 138.547 254.768 139.4C253.408 140.253 252.381 141.453 251.688 143C250.994 144.52 250.648 146.32 250.648 148.4C250.648 150.267 250.848 152.013 251.248 153.64C251.674 155.267 252.301 156.707 253.128 157.96C253.981 159.213 255.034 160.2 256.288 160.92C257.541 161.613 259.008 161.96 260.688 161.96ZM286.163 163.2C285.817 163.2 285.537 163.147 285.323 163.04C285.11 162.96 285.003 162.84 285.003 162.68C285.003 162.413 285.43 162.2 286.283 162.04C287.297 161.853 287.95 161.547 288.243 161.12C288.563 160.693 288.723 160 288.723 159.04V140.96C288.723 140.027 288.617 139.373 288.403 139C288.217 138.6 287.617 138.307 286.603 138.12C285.723 137.96 285.283 137.72 285.283 137.4C285.283 137.24 285.377 137.12 285.563 137.04C285.75 136.933 286.043 136.88 286.443 136.88C287.163 136.88 287.723 136.893 288.123 136.92C288.523 136.947 288.897 136.973 289.243 137C289.59 137 290.03 137 290.563 137C291.123 137 291.577 137 291.923 137C292.297 136.973 292.683 136.947 293.083 136.92C293.51 136.893 294.083 136.88 294.803 136.88C295.577 136.88 295.963 137.053 295.963 137.4C295.963 137.587 295.857 137.733 295.643 137.84C295.43 137.947 295.097 138.04 294.643 138.12C293.657 138.307 292.95 138.64 292.523 139.12C292.123 139.573 291.923 140.187 291.923 140.96V148.84C291.923 149 291.99 149.107 292.123 149.16C292.257 149.187 292.377 149.2 292.483 149.2H307.323C307.51 149.2 307.603 149.04 307.603 148.72V140.92C307.603 140.2 307.417 139.6 307.043 139.12C306.67 138.64 305.977 138.307 304.963 138.12C304.51 138.04 304.177 137.947 303.963 137.84C303.75 137.733 303.643 137.587 303.643 137.4C303.643 137.053 304.03 136.88 304.803 136.88C305.523 136.88 306.11 136.893 306.563 136.92C307.043 136.947 307.497 136.973 307.923 137C308.35 137 308.857 137 309.443 137C309.923 137 310.297 137 310.563 137C310.83 136.973 311.137 136.947 311.483 136.92C311.83 136.893 312.363 136.88 313.083 136.88C313.457 136.88 313.737 136.933 313.923 137.04C314.137 137.12 314.243 137.24 314.243 137.4C314.243 137.72 313.803 137.96 312.923 138.12C311.937 138.307 311.337 138.627 311.123 139.08C310.91 139.533 310.803 140.147 310.803 140.92V159C310.803 159.987 310.923 160.693 311.163 161.12C311.43 161.547 312.057 161.853 313.043 162.04C313.897 162.2 314.323 162.413 314.323 162.68C314.323 162.84 314.217 162.96 314.003 163.04C313.79 163.147 313.51 163.2 313.163 163.2C312.443 163.2 311.883 163.173 311.483 163.12C311.083 163.093 310.71 163.067 310.363 163.04C310.017 163.013 309.563 163 309.003 163C308.443 163 307.977 163.013 307.603 163.04C307.257 163.067 306.87 163.093 306.443 163.12C306.017 163.173 305.443 163.2 304.723 163.2C304.377 163.2 304.097 163.147 303.883 163.04C303.67 162.96 303.563 162.84 303.563 162.68C303.563 162.493 303.657 162.36 303.843 162.28C304.057 162.2 304.39 162.12 304.843 162.04C305.697 161.88 306.363 161.573 306.843 161.12C307.35 160.64 307.603 159.973 307.603 159.12V151.32C307.603 151.187 307.603 151.053 307.603 150.92C307.603 150.787 307.537 150.72 307.403 150.72H292.123C291.99 150.72 291.923 150.867 291.923 151.16V158.76C291.923 159.587 292.23 160.307 292.843 160.92C293.457 161.507 294.217 161.88 295.123 162.04C295.577 162.12 295.897 162.2 296.083 162.28C296.297 162.36 296.403 162.493 296.403 162.68C296.403 162.84 296.297 162.96 296.083 163.04C295.87 163.147 295.59 163.2 295.243 163.2C294.523 163.2 293.923 163.173 293.443 163.12C292.99 163.093 292.55 163.067 292.123 163.04C291.697 163.013 291.177 163 290.563 163C290.003 163 289.523 163.013 289.123 163.04C288.75 163.067 288.337 163.093 287.883 163.12C287.457 163.173 286.883 163.2 286.163 163.2ZM318.546 163.2C318.2 163.2 317.92 163.16 317.706 163.08C317.493 163.027 317.386 162.92 317.386 162.76C317.386 162.44 317.826 162.2 318.706 162.04C319.72 161.853 320.466 161.547 320.946 161.12C321.426 160.693 321.666 160 321.666 159.04V141.04C321.666 140.08 321.466 139.4 321.066 139C320.693 138.6 320 138.307 318.986 138.12C318.533 138.04 318.2 137.933 317.986 137.8C317.773 137.667 317.666 137.507 317.666 137.32C317.666 137.16 317.773 137.053 317.986 137C318.2 136.92 318.48 136.88 318.826 136.88C319.84 136.88 320.693 136.893 321.386 136.92C322.106 136.947 322.8 136.973 323.466 137C324.16 137 324.973 137 325.906 137C326.786 137 327.706 137 328.666 137C329.653 136.973 330.56 136.96 331.386 136.96C332.293 136.933 333.053 136.92 333.666 136.92C334.306 136.893 334.68 136.88 334.786 136.88C334.92 136.88 335.066 136.907 335.226 136.96C335.386 137.013 335.48 137.107 335.506 137.24C335.64 137.987 335.773 138.733 335.906 139.48C336.04 140.2 336.106 140.827 336.106 141.36C336.106 141.6 336.04 141.76 335.906 141.84C335.8 141.92 335.68 141.96 335.546 141.96C335.413 141.96 335.32 141.933 335.266 141.88C335.213 141.8 335.16 141.693 335.106 141.56C334.973 141.107 334.84 140.68 334.706 140.28C334.573 139.853 334.413 139.547 334.226 139.36C333.853 138.933 333.44 138.653 332.986 138.52C332.533 138.36 332.053 138.28 331.546 138.28H326.306C326.093 138.28 325.8 138.4 325.426 138.64C325.053 138.88 324.866 139.187 324.866 139.56V148.04C324.866 148.28 324.933 148.493 325.066 148.68C325.226 148.84 325.4 148.92 325.586 148.92H329.546C330.32 148.92 330.853 148.787 331.146 148.52C331.44 148.227 331.68 147.707 331.866 146.96C332.026 146.373 332.266 146.08 332.586 146.08C332.693 146.08 332.8 146.133 332.906 146.24C333.04 146.347 333.106 146.507 333.106 146.72C333.106 146.827 333.093 147.067 333.066 147.44C333.066 147.813 333.053 148.2 333.026 148.6C333 149 332.986 149.307 332.986 149.52C332.986 149.787 332.986 150.147 332.986 150.6C333.013 151.027 333.026 151.44 333.026 151.84C333.053 152.24 333.066 152.493 333.066 152.6C333.066 152.787 333.04 152.947 332.986 153.08C332.96 153.213 332.866 153.28 332.706 153.28C332.306 153.28 332 152.853 331.786 152C331.626 151.387 331.413 150.933 331.146 150.64C330.88 150.347 330.48 150.2 329.946 150.2H326.226C325.773 150.2 325.426 150.267 325.186 150.4C324.973 150.507 324.866 150.787 324.866 151.24V158.92C324.866 159.933 325.08 160.64 325.506 161.04C325.933 161.413 326.6 161.6 327.506 161.6H330.466C331.32 161.6 332.026 161.56 332.586 161.48C333.173 161.373 333.68 161.187 334.106 160.92C334.533 160.627 334.906 160.24 335.226 159.76C335.573 159.28 335.96 158.64 336.386 157.84C336.466 157.68 336.56 157.547 336.666 157.44C336.773 157.333 336.893 157.293 337.026 157.32C337.16 157.347 337.266 157.413 337.346 157.52C337.426 157.6 337.466 157.72 337.466 157.88C337.466 158.12 337.4 158.547 337.266 159.16C337.133 159.747 336.96 160.36 336.746 161C336.56 161.64 336.386 162.147 336.226 162.52C336.146 162.707 336.066 162.867 335.986 163C335.933 163.133 335.826 163.2 335.666 163.2C334.386 163.2 333.2 163.187 332.106 163.16C331.013 163.133 329.973 163.107 328.986 163.08C328 163.053 327.026 163.027 326.066 163C325.133 162.973 324.16 162.96 323.146 162.96C322.56 162.96 322.053 162.973 321.626 163C321.2 163.053 320.76 163.093 320.306 163.12C319.853 163.173 319.266 163.2 318.546 163.2ZM363.964 163.84C363.218 163.84 362.511 163.773 361.844 163.64C361.178 163.533 360.564 163.32 360.004 163C359.444 162.68 358.924 162.24 358.444 161.68C357.804 160.88 357.191 160.12 356.604 159.4C356.018 158.653 355.391 157.8 354.724 156.84C354.084 155.88 353.298 154.653 352.364 153.16C351.964 152.493 351.391 151.973 350.644 151.6C350.058 151.307 349.471 151.107 348.884 151C348.324 150.867 347.858 150.787 347.484 150.76C347.271 150.733 347.111 150.8 347.004 150.96C346.924 151.12 346.884 151.32 346.884 151.56V158.6C346.884 159.453 347.084 160.2 347.484 160.84C347.884 161.453 348.578 161.853 349.564 162.04C350.018 162.12 350.351 162.213 350.564 162.32C350.778 162.427 350.884 162.573 350.884 162.76C350.884 162.92 350.778 163.027 350.564 163.08C350.351 163.16 350.071 163.2 349.724 163.2C349.004 163.2 348.444 163.173 348.044 163.12C347.671 163.067 347.324 163.027 347.004 163C346.711 162.947 346.311 162.92 345.804 162.92C345.138 162.92 344.538 162.947 344.004 163C343.498 163.027 342.978 163.067 342.444 163.12C341.938 163.173 341.324 163.2 340.604 163.2C340.258 163.2 339.978 163.16 339.764 163.08C339.551 163.027 339.444 162.92 339.444 162.76C339.444 162.44 339.884 162.2 340.764 162.04C341.778 161.853 342.511 161.547 342.964 161.12C343.444 160.693 343.684 159.987 343.684 159V141.96C343.684 140.947 343.631 140.187 343.524 139.68C343.444 139.147 343.231 138.773 342.884 138.56C342.564 138.347 342.018 138.2 341.244 138.12C340.791 138.067 340.458 137.973 340.244 137.84C340.031 137.68 339.924 137.507 339.924 137.32C339.924 137.16 340.031 137.053 340.244 137C340.458 136.92 340.738 136.88 341.084 136.88C341.804 136.88 342.338 136.88 342.684 136.88C343.058 136.88 343.404 136.893 343.724 136.92C344.044 136.92 344.471 136.92 345.004 136.92C345.511 136.92 345.964 136.907 346.364 136.88C346.764 136.827 347.204 136.787 347.684 136.76C348.191 136.733 348.831 136.72 349.604 136.72C352.538 136.72 354.764 137.267 356.284 138.36C357.831 139.453 358.604 141.093 358.604 143.28C358.604 144.48 358.364 145.52 357.884 146.4C357.404 147.253 356.804 147.973 356.084 148.56C355.364 149.147 354.631 149.627 353.884 150C353.778 150.027 353.724 150.093 353.724 150.2C353.751 150.28 353.804 150.387 353.884 150.52C354.711 151.773 355.498 152.96 356.244 154.08C357.018 155.2 357.858 156.293 358.764 157.36C359.671 158.427 360.751 159.533 362.004 160.68C362.698 161.293 363.404 161.667 364.124 161.8C364.844 161.933 365.671 162 366.604 162C367.004 162 367.204 162.147 367.204 162.44C367.204 162.84 367.004 163.133 366.604 163.32C366.204 163.533 365.751 163.667 365.244 163.72C364.738 163.8 364.311 163.84 363.964 163.84ZM349.004 149.84C350.231 149.84 351.284 149.56 352.164 149C353.071 148.44 353.764 147.707 354.244 146.8C354.751 145.893 355.004 144.933 355.004 143.92C355.004 142.827 354.858 141.827 354.564 140.92C354.298 140.013 353.738 139.293 352.884 138.76C352.058 138.2 350.804 137.92 349.124 137.92C348.271 137.92 347.711 138.2 347.444 138.76C347.178 139.293 347.018 140.253 346.964 141.64C346.938 142.307 346.911 143.213 346.884 144.36C346.884 145.48 346.884 146.84 346.884 148.44C346.884 149.107 347.071 149.507 347.444 149.64C347.818 149.773 348.338 149.84 349.004 149.84ZM369.64 163.2C369.293 163.2 369.013 163.16 368.8 163.08C368.587 163.027 368.48 162.92 368.48 162.76C368.48 162.44 368.92 162.2 369.8 162.04C370.813 161.853 371.56 161.547 372.04 161.12C372.52 160.693 372.76 160 372.76 159.04V141.04C372.76 140.08 372.56 139.4 372.16 139C371.787 138.6 371.093 138.307 370.08 138.12C369.627 138.04 369.293 137.933 369.08 137.8C368.867 137.667 368.76 137.507 368.76 137.32C368.76 137.16 368.867 137.053 369.08 137C369.293 136.92 369.573 136.88 369.92 136.88C370.933 136.88 371.787 136.893 372.48 136.92C373.2 136.947 373.893 136.973 374.56 137C375.253 137 376.067 137 377 137C377.88 137 378.8 137 379.76 137C380.747 136.973 381.653 136.96 382.48 136.96C383.387 136.933 384.147 136.92 384.76 136.92C385.4 136.893 385.773 136.88 385.88 136.88C386.013 136.88 386.16 136.907 386.32 136.96C386.48 137.013 386.573 137.107 386.6 137.24C386.733 137.987 386.867 138.733 387 139.48C387.133 140.2 387.2 140.827 387.2 141.36C387.2 141.6 387.133 141.76 387 141.84C386.893 141.92 386.773 141.96 386.64 141.96C386.507 141.96 386.413 141.933 386.36 141.88C386.307 141.8 386.253 141.693 386.2 141.56C386.067 141.107 385.933 140.68 385.8 140.28C385.667 139.853 385.507 139.547 385.32 139.36C384.947 138.933 384.533 138.653 384.08 138.52C383.627 138.36 383.147 138.28 382.64 138.28H377.4C377.187 138.28 376.893 138.4 376.52 138.64C376.147 138.88 375.96 139.187 375.96 139.56V148.04C375.96 148.28 376.027 148.493 376.16 148.68C376.32 148.84 376.493 148.92 376.68 148.92H380.64C381.413 148.92 381.947 148.787 382.24 148.52C382.533 148.227 382.773 147.707 382.96 146.96C383.12 146.373 383.36 146.08 383.68 146.08C383.787 146.08 383.893 146.133 384 146.24C384.133 146.347 384.2 146.507 384.2 146.72C384.2 146.827 384.187 147.067 384.16 147.44C384.16 147.813 384.147 148.2 384.12 148.6C384.093 149 384.08 149.307 384.08 149.52C384.08 149.787 384.08 150.147 384.08 150.6C384.107 151.027 384.12 151.44 384.12 151.84C384.147 152.24 384.16 152.493 384.16 152.6C384.16 152.787 384.133 152.947 384.08 153.08C384.053 153.213 383.96 153.28 383.8 153.28C383.4 153.28 383.093 152.853 382.88 152C382.72 151.387 382.507 150.933 382.24 150.64C381.973 150.347 381.573 150.2 381.04 150.2H377.32C376.867 150.2 376.52 150.267 376.28 150.4C376.067 150.507 375.96 150.787 375.96 151.24V158.92C375.96 159.933 376.173 160.64 376.6 161.04C377.027 161.413 377.693 161.6 378.6 161.6H381.56C382.413 161.6 383.12 161.56 383.68 161.48C384.267 161.373 384.773 161.187 385.2 160.92C385.627 160.627 386 160.24 386.32 159.76C386.667 159.28 387.053 158.64 387.48 157.84C387.56 157.68 387.653 157.547 387.76 157.44C387.867 157.333 387.987 157.293 388.12 157.32C388.253 157.347 388.36 157.413 388.44 157.52C388.52 157.6 388.56 157.72 388.56 157.88C388.56 158.12 388.493 158.547 388.36 159.16C388.227 159.747 388.053 160.36 387.84 161C387.653 161.64 387.48 162.147 387.32 162.52C387.24 162.707 387.16 162.867 387.08 163C387.027 163.133 386.92 163.2 386.76 163.2C385.48 163.2 384.293 163.187 383.2 163.16C382.107 163.133 381.067 163.107 380.08 163.08C379.093 163.053 378.12 163.027 377.16 163C376.227 162.973 375.253 162.96 374.24 162.96C373.653 162.96 373.147 162.973 372.72 163C372.293 163.053 371.853 163.093 371.4 163.12C370.947 163.173 370.36 163.2 369.64 163.2ZM59.36 215.2C59.0133 215.2 58.7333 215.16 58.52 215.08C58.3067 215.027 58.2 214.92 58.2 214.76C58.2 214.44 58.64 214.2 59.52 214.04C60.5333 213.853 61.2267 213.547 61.6 213.12C62 212.693 62.2 211.987 62.2 211V194.12C62.2 192.92 62.04 192 61.72 191.36C61.4267 190.72 60.7733 190.307 59.76 190.12C59.3067 190.04 58.9733 189.933 58.76 189.8C58.5467 189.667 58.44 189.507 58.44 189.32C58.44 189.16 58.5467 189.053 58.76 189C58.9733 188.92 59.2533 188.88 59.6 188.88C60.5867 188.88 61.4133 188.893 62.08 188.92C62.7733 188.947 63.4533 188.973 64.12 189C64.7867 189 65.5733 189 66.48 189C67.2533 189 68.08 189 68.96 189C69.84 189 70.6933 189 71.52 189C72.3733 189 73.12 188.933 73.76 188.8C74.4267 188.667 75 188.6 75.48 188.6C75.6133 188.6 75.76 188.627 75.92 188.68C76.08 188.733 76.1733 188.827 76.2 188.96C76.2533 189.253 76.2933 189.693 76.32 190.28C76.3467 190.84 76.36 191.387 76.36 191.92C76.3867 192.453 76.4 192.813 76.4 193C76.4 193.56 76.28 193.84 76.04 193.84C75.9067 193.84 75.7867 193.8 75.68 193.72C75.5733 193.613 75.4933 193.493 75.44 193.36C75.3333 192.907 75.2 192.52 75.04 192.2C74.88 191.853 74.7067 191.587 74.52 191.4C74.1467 190.973 73.7333 190.693 73.28 190.56C72.8267 190.4 72.3467 190.32 71.84 190.32H66.76C66.1467 190.32 65.7733 190.52 65.64 190.92C65.5067 191.32 65.4267 191.787 65.4 192.32C65.3733 192.827 65.36 193.453 65.36 194.2C65.36 194.92 65.36 195.627 65.36 196.32C65.36 196.987 65.36 197.667 65.36 198.36C65.36 199.053 65.3733 199.64 65.4 200.12C65.4 200.333 65.4133 200.533 65.44 200.72C65.4933 200.907 65.6133 201 65.8 201C66.6533 201 67.52 200.987 68.4 200.96C69.28 200.907 69.96 200.88 70.44 200.88C71.0267 200.88 71.5333 200.72 71.96 200.4C72.3867 200.08 72.6933 199.693 72.88 199.24C72.9333 199.133 73.04 199 73.2 198.84C73.36 198.653 73.4933 198.56 73.6 198.56C73.7067 198.56 73.8267 198.627 73.96 198.76C74.0933 198.867 74.1467 199.013 74.12 199.2C74.0933 199.653 74.0667 200.053 74.04 200.4C74.0133 200.747 74 201.08 74 201.4C74 201.8 74.0133 202.213 74.04 202.64C74.0667 203.04 74.0933 203.533 74.12 204.12C74.12 204.307 74.0933 204.467 74.04 204.6C74.0133 204.733 73.92 204.8 73.76 204.8C73.4933 204.8 73.28 204.68 73.12 204.44C72.9867 204.2 72.8933 204.013 72.84 203.88C72.6533 203.267 72.3733 202.853 72 202.64C71.6267 202.4 71.28 202.28 70.96 202.28C70.6133 202.28 70.2667 202.28 69.92 202.28C69.6 202.253 69.28 202.24 68.96 202.24C68.5067 202.24 68.0667 202.24 67.64 202.24C67.2133 202.24 66.7867 202.267 66.36 202.32C66.0933 202.347 65.8667 202.44 65.68 202.6C65.4933 202.733 65.4 202.973 65.4 203.32C65.4 204.547 65.4 205.8 65.4 207.08C65.4267 208.333 65.4667 209.627 65.52 210.96C65.5733 211.813 65.7733 212.493 66.12 213C66.4933 213.507 67.1733 213.853 68.16 214.04C68.6133 214.12 68.9467 214.213 69.16 214.32C69.3733 214.427 69.48 214.573 69.48 214.76C69.48 214.92 69.3733 215.027 69.16 215.08C68.9467 215.16 68.6667 215.2 68.32 215.2C67.6 215.2 67.04 215.173 66.64 215.12C66.2667 215.067 65.92 215.027 65.6 215C65.3067 214.947 64.9067 214.92 64.4 214.92C63.76 214.92 63.1867 214.947 62.68 215C62.2 215.027 61.7067 215.067 61.2 215.12C60.6933 215.173 60.08 215.2 59.36 215.2ZM102.949 215.84C102.202 215.84 101.495 215.773 100.829 215.64C100.162 215.533 99.5488 215.32 98.9888 215C98.4288 214.68 97.9088 214.24 97.4288 213.68C96.7888 212.88 96.1754 212.12 95.5888 211.4C95.0021 210.653 94.3754 209.8 93.7088 208.84C93.0688 207.88 92.2821 206.653 91.3488 205.16C90.9488 204.493 90.3754 203.973 89.6288 203.6C89.0421 203.307 88.4554 203.107 87.8688 203C87.3088 202.867 86.8421 202.787 86.4688 202.76C86.2554 202.733 86.0954 202.8 85.9888 202.96C85.9088 203.12 85.8688 203.32 85.8688 203.56V210.6C85.8688 211.453 86.0688 212.2 86.4688 212.84C86.8688 213.453 87.5621 213.853 88.5488 214.04C89.0021 214.12 89.3354 214.213 89.5488 214.32C89.7621 214.427 89.8688 214.573 89.8688 214.76C89.8688 214.92 89.7621 215.027 89.5488 215.08C89.3354 215.16 89.0554 215.2 88.7088 215.2C87.9888 215.2 87.4288 215.173 87.0288 215.12C86.6554 215.067 86.3088 215.027 85.9888 215C85.6954 214.947 85.2954 214.92 84.7888 214.92C84.1221 214.92 83.5221 214.947 82.9888 215C82.4821 215.027 81.9621 215.067 81.4288 215.12C80.9221 215.173 80.3088 215.2 79.5888 215.2C79.2421 215.2 78.9621 215.16 78.7488 215.08C78.5354 215.027 78.4288 214.92 78.4288 214.76C78.4288 214.44 78.8688 214.2 79.7488 214.04C80.7621 213.853 81.4954 213.547 81.9488 213.12C82.4288 212.693 82.6688 211.987 82.6688 211V193.96C82.6688 192.947 82.6154 192.187 82.5088 191.68C82.4288 191.147 82.2154 190.773 81.8688 190.56C81.5488 190.347 81.0021 190.2 80.2288 190.12C79.7754 190.067 79.4421 189.973 79.2288 189.84C79.0154 189.68 78.9088 189.507 78.9088 189.32C78.9088 189.16 79.0154 189.053 79.2288 189C79.4421 188.92 79.7221 188.88 80.0688 188.88C80.7888 188.88 81.3221 188.88 81.6688 188.88C82.0421 188.88 82.3888 188.893 82.7088 188.92C83.0288 188.92 83.4554 188.92 83.9888 188.92C84.4954 188.92 84.9488 188.907 85.3488 188.88C85.7488 188.827 86.1888 188.787 86.6688 188.76C87.1754 188.733 87.8154 188.72 88.5888 188.72C91.5221 188.72 93.7488 189.267 95.2688 190.36C96.8154 191.453 97.5888 193.093 97.5888 195.28C97.5888 196.48 97.3488 197.52 96.8688 198.4C96.3888 199.253 95.7888 199.973 95.0688 200.56C94.3488 201.147 93.6154 201.627 92.8688 202C92.7621 202.027 92.7088 202.093 92.7088 202.2C92.7354 202.28 92.7888 202.387 92.8688 202.52C93.6954 203.773 94.4821 204.96 95.2288 206.08C96.0021 207.2 96.8421 208.293 97.7488 209.36C98.6554 210.427 99.7354 211.533 100.989 212.68C101.682 213.293 102.389 213.667 103.109 213.8C103.829 213.933 104.655 214 105.589 214C105.989 214 106.189 214.147 106.189 214.44C106.189 214.84 105.989 215.133 105.589 215.32C105.189 215.533 104.735 215.667 104.229 215.72C103.722 215.8 103.295 215.84 102.949 215.84ZM87.9888 201.84C89.2154 201.84 90.2688 201.56 91.1488 201C92.0554 200.44 92.7488 199.707 93.2288 198.8C93.7354 197.893 93.9888 196.933 93.9888 195.92C93.9888 194.827 93.8421 193.827 93.5488 192.92C93.2821 192.013 92.7221 191.293 91.8688 190.76C91.0421 190.2 89.7888 189.92 88.1088 189.92C87.2554 189.92 86.6954 190.2 86.4288 190.76C86.1621 191.293 86.0021 192.253 85.9488 193.64C85.9221 194.307 85.8954 195.213 85.8688 196.36C85.8688 197.48 85.8688 198.84 85.8688 200.44C85.8688 201.107 86.0554 201.507 86.4288 201.64C86.8021 201.773 87.3221 201.84 87.9888 201.84ZM121.064 215.56C119.304 215.56 117.624 215.253 116.024 214.64C114.424 214 113.011 213.107 111.784 211.96C110.558 210.787 109.584 209.4 108.864 207.8C108.144 206.173 107.784 204.373 107.784 202.4C107.784 200.587 108.078 198.853 108.664 197.2C109.251 195.52 110.118 194.027 111.264 192.72C112.411 191.413 113.838 190.373 115.544 189.6C117.251 188.827 119.211 188.44 121.424 188.44C123.184 188.44 124.864 188.76 126.464 189.4C128.064 190.013 129.478 190.907 130.704 192.08C131.931 193.227 132.904 194.613 133.624 196.24C134.344 197.84 134.704 199.627 134.704 201.6C134.704 203.387 134.411 205.12 133.824 206.8C133.238 208.48 132.371 209.973 131.224 211.28C130.078 212.587 128.651 213.627 126.944 214.4C125.238 215.173 123.278 215.56 121.064 215.56ZM121.664 213.96C123.718 213.96 125.424 213.533 126.784 212.68C128.144 211.8 129.158 210.587 129.824 209.04C130.518 207.467 130.864 205.64 130.864 203.56C130.864 201.72 130.651 199.987 130.224 198.36C129.798 196.733 129.158 195.307 128.304 194.08C127.478 192.827 126.438 191.853 125.184 191.16C123.931 190.467 122.464 190.12 120.784 190.12C118.784 190.12 117.104 190.547 115.744 191.4C114.384 192.253 113.358 193.453 112.664 195C111.971 196.52 111.624 198.32 111.624 200.4C111.624 202.267 111.824 204.013 112.224 205.64C112.651 207.267 113.278 208.707 114.104 209.96C114.958 211.213 116.011 212.2 117.264 212.92C118.518 213.613 119.984 213.96 121.664 213.96ZM138.412 215.2C138.066 215.2 137.786 215.16 137.572 215.08C137.359 215.027 137.252 214.92 137.252 214.76C137.252 214.573 137.359 214.427 137.572 214.32C137.786 214.213 138.119 214.12 138.572 214.04C139.239 213.907 139.786 213.587 140.212 213.08C140.639 212.573 140.919 211.853 141.052 210.92C141.372 208.52 141.652 206.24 141.892 204.08C142.132 201.893 142.319 199.933 142.452 198.2C142.612 196.44 142.692 195 142.692 193.88C142.692 193.667 142.692 193.44 142.692 193.2C142.692 192.96 142.679 192.747 142.652 192.56C142.626 192.347 142.586 192.133 142.532 191.92C142.479 191.68 142.319 191.453 142.052 191.24C141.572 190.84 141.106 190.573 140.652 190.44C140.199 190.28 139.666 190.147 139.052 190.04C138.786 189.987 138.572 189.893 138.412 189.76C138.252 189.6 138.172 189.427 138.172 189.24C138.172 189.027 138.292 188.907 138.532 188.88C138.799 188.827 139.132 188.8 139.532 188.8C139.799 188.8 140.199 188.813 140.732 188.84C141.292 188.867 141.892 188.907 142.532 188.96C143.172 189.013 143.759 189.053 144.292 189.08C144.852 189.107 145.266 189.12 145.532 189.12C145.719 189.12 145.879 189.173 146.012 189.28C146.146 189.387 146.239 189.547 146.292 189.76C146.426 190.24 146.559 190.747 146.692 191.28C146.826 191.813 146.986 192.333 147.172 192.84L153.492 208.88C153.572 209.067 153.719 209.187 153.932 209.24C154.146 209.267 154.306 209.187 154.412 209L162.292 192.6C162.426 192.147 162.559 191.64 162.692 191.08C162.826 190.52 162.932 190.027 163.012 189.6C163.092 189.253 163.226 189.08 163.412 189.08H164.852C165.652 189.08 166.492 189.027 167.372 188.92C168.279 188.813 168.959 188.76 169.412 188.76C169.546 188.76 169.719 188.787 169.932 188.84C170.146 188.867 170.252 188.973 170.252 189.16C170.252 189.347 170.172 189.493 170.012 189.6C169.879 189.707 169.612 189.84 169.212 190C168.866 190.133 168.479 190.28 168.052 190.44C167.626 190.6 167.226 190.76 166.852 190.92C166.586 191.027 166.359 191.213 166.172 191.48C165.986 191.72 165.892 191.987 165.892 192.28C165.892 194.147 165.919 195.907 165.972 197.56C166.052 199.187 166.132 200.76 166.212 202.28C166.292 203.773 166.386 205.253 166.492 206.72C166.599 208.187 166.692 209.68 166.772 211.2C166.826 212.027 167.092 212.667 167.572 213.12C168.052 213.547 168.786 213.853 169.772 214.04C170.226 214.12 170.559 214.213 170.772 214.32C170.986 214.427 171.092 214.573 171.092 214.76C171.092 214.92 170.986 215.027 170.772 215.08C170.559 215.16 170.279 215.2 169.932 215.2C169.212 215.2 168.612 215.173 168.132 215.12C167.679 215.093 167.239 215.067 166.812 215.04C166.386 215.013 165.866 215 165.252 215C164.719 215 164.266 215.013 163.892 215.04C163.546 215.067 163.159 215.093 162.732 215.12C162.332 215.173 161.772 215.2 161.052 215.2C160.706 215.2 160.426 215.16 160.212 215.08C159.999 215.027 159.892 214.92 159.892 214.76C159.892 214.573 159.999 214.427 160.212 214.32C160.426 214.187 160.759 214.093 161.212 214.04C161.986 213.933 162.519 213.667 162.812 213.24C163.106 212.787 163.252 212.093 163.252 211.16C163.252 209.24 163.226 207.507 163.172 205.96C163.146 204.413 163.092 202.893 163.012 201.4C162.932 199.88 162.852 198.227 162.772 196.44C162.746 196.147 162.666 196.013 162.532 196.04C162.399 196.04 162.266 196.173 162.132 196.44L152.932 215.2C152.879 215.333 152.759 215.4 152.572 215.4C152.386 215.427 152.266 215.347 152.212 215.16C151.172 212.04 150.052 208.973 148.852 205.96C147.679 202.92 146.346 199.653 144.852 196.16C144.799 196.027 144.706 195.96 144.572 195.96C144.439 195.96 144.359 196.027 144.332 196.16C144.092 198.027 143.866 199.747 143.652 201.32C143.466 202.867 143.319 204.4 143.212 205.92C143.106 207.44 143.052 209.107 143.052 210.92C143.052 211.64 143.279 212.307 143.732 212.92C144.186 213.507 144.826 213.88 145.652 214.04C146.106 214.12 146.439 214.213 146.652 214.32C146.866 214.427 146.972 214.573 146.972 214.76C146.972 214.92 146.866 215.027 146.652 215.08C146.439 215.16 146.159 215.2 145.812 215.2C145.092 215.2 144.546 215.173 144.172 215.12C143.826 215.093 143.506 215.067 143.212 215.04C142.946 215.013 142.559 215 142.052 215C141.572 215 141.199 215.013 140.932 215.04C140.666 215.067 140.359 215.093 140.012 215.12C139.666 215.173 139.132 215.2 138.412 215.2ZM187.835 215.2C187.488 215.2 187.208 215.16 186.995 215.08C186.781 215.027 186.675 214.92 186.675 214.76C186.675 214.573 186.781 214.427 186.995 214.32C187.208 214.213 187.541 214.12 187.995 214.04C189.008 213.853 189.781 213.493 190.315 212.96C190.848 212.4 191.115 211.64 191.115 210.68V204.76C191.115 204.227 190.968 203.653 190.675 203.04C190.408 202.4 190.221 201.987 190.115 201.8L185.435 194.12C185.248 193.8 184.955 193.36 184.555 192.8C184.155 192.213 183.715 191.667 183.235 191.16C182.781 190.653 182.328 190.333 181.875 190.2C181.448 190.067 181.115 189.933 180.875 189.8C180.661 189.667 180.555 189.507 180.555 189.32C180.555 189.16 180.661 189.053 180.875 189C181.088 188.92 181.368 188.88 181.715 188.88C182.328 188.88 183.035 188.907 183.835 188.96C184.635 188.987 185.488 189 186.395 189C187.008 189 187.581 188.987 188.115 188.96C188.675 188.933 189.168 188.92 189.595 188.92C189.941 188.92 190.221 188.96 190.435 189.04C190.648 189.093 190.755 189.2 190.755 189.36C190.755 189.547 190.648 189.707 190.435 189.84C190.221 189.947 189.888 190.053 189.435 190.16C189.061 190.267 188.755 190.387 188.515 190.52C188.275 190.653 188.155 190.867 188.155 191.16C188.155 191.507 188.328 191.987 188.675 192.6L192.355 199.4C192.888 200.413 193.261 200.92 193.475 200.92C193.635 200.92 193.808 200.813 193.995 200.6C194.181 200.36 194.448 199.96 194.795 199.4C195.408 198.467 195.955 197.573 196.435 196.72C196.915 195.867 197.488 194.84 198.155 193.64C198.421 193.187 198.608 192.8 198.715 192.48C198.821 192.133 198.875 191.84 198.875 191.6C198.875 191.093 198.688 190.747 198.315 190.56C197.968 190.373 197.608 190.253 197.235 190.2C196.968 190.147 196.675 190.053 196.355 189.92C196.061 189.76 195.915 189.587 195.915 189.4C195.915 189.24 196.021 189.133 196.235 189.08C196.448 189 196.728 188.96 197.075 188.96C197.688 188.96 198.195 188.973 198.595 189C198.995 189 199.488 189 200.075 189C200.901 189 201.688 188.987 202.435 188.96C203.181 188.907 203.781 188.88 204.235 188.88C204.581 188.88 204.861 188.92 205.075 189C205.288 189.053 205.395 189.16 205.395 189.32C205.395 189.507 205.181 189.68 204.755 189.84C204.328 190 203.835 190.16 203.275 190.32C202.581 190.507 201.995 190.893 201.515 191.48C201.061 192.04 200.475 192.867 199.755 193.96C199.221 194.787 198.768 195.48 198.395 196.04C198.048 196.6 197.715 197.12 197.395 197.6C197.101 198.08 196.795 198.587 196.475 199.12C196.155 199.627 195.768 200.253 195.315 201C194.968 201.56 194.728 202.013 194.595 202.36C194.461 202.707 194.381 203.04 194.355 203.36C194.328 203.653 194.315 204.067 194.315 204.6V210.68C194.315 211.587 194.595 212.333 195.155 212.92C195.715 213.48 196.488 213.853 197.475 214.04C197.928 214.12 198.261 214.213 198.475 214.32C198.688 214.427 198.795 214.573 198.795 214.76C198.795 214.92 198.688 215.027 198.475 215.08C198.261 215.16 197.981 215.2 197.635 215.2C196.915 215.2 196.315 215.173 195.835 215.12C195.381 215.093 194.941 215.067 194.515 215.04C194.088 215.013 193.568 215 192.955 215C192.288 215 191.701 215.013 191.195 215.04C190.715 215.067 190.208 215.093 189.675 215.12C189.168 215.173 188.555 215.2 187.835 215.2ZM217.978 215.56C216.218 215.56 214.538 215.253 212.938 214.64C211.338 214 209.925 213.107 208.698 211.96C207.472 210.787 206.498 209.4 205.778 207.8C205.058 206.173 204.698 204.373 204.698 202.4C204.698 200.587 204.992 198.853 205.578 197.2C206.165 195.52 207.032 194.027 208.178 192.72C209.325 191.413 210.752 190.373 212.458 189.6C214.165 188.827 216.125 188.44 218.338 188.44C220.098 188.44 221.778 188.76 223.378 189.4C224.978 190.013 226.392 190.907 227.618 192.08C228.845 193.227 229.818 194.613 230.538 196.24C231.258 197.84 231.618 199.627 231.618 201.6C231.618 203.387 231.325 205.12 230.738 206.8C230.152 208.48 229.285 209.973 228.138 211.28C226.992 212.587 225.565 213.627 223.858 214.4C222.152 215.173 220.192 215.56 217.978 215.56ZM218.578 213.96C220.632 213.96 222.338 213.533 223.698 212.68C225.058 211.8 226.072 210.587 226.738 209.04C227.432 207.467 227.778 205.64 227.778 203.56C227.778 201.72 227.565 199.987 227.138 198.36C226.712 196.733 226.072 195.307 225.218 194.08C224.392 192.827 223.352 191.853 222.098 191.16C220.845 190.467 219.378 190.12 217.698 190.12C215.698 190.12 214.018 190.547 212.658 191.4C211.298 192.253 210.272 193.453 209.578 195C208.885 196.52 208.538 198.32 208.538 200.4C208.538 202.267 208.738 204.013 209.138 205.64C209.565 207.267 210.192 208.707 211.018 209.96C211.872 211.213 212.925 212.2 214.178 212.92C215.432 213.613 216.898 213.96 218.578 213.96ZM248.286 215.56C245.913 215.56 243.926 215.147 242.326 214.32C240.726 213.467 239.526 212.28 238.726 210.76C237.926 209.213 237.526 207.427 237.526 205.4V193.12C237.526 192.16 237.326 191.467 236.926 191.04C236.553 190.587 236.14 190.307 235.686 190.2C234.806 189.96 234.366 189.667 234.366 189.32C234.366 189.16 234.473 189.053 234.686 189C234.9 188.92 235.18 188.88 235.526 188.88C236.14 188.88 236.74 188.907 237.326 188.96C237.94 188.987 238.62 189 239.366 189C239.98 189 240.553 188.987 241.086 188.96C241.646 188.933 242.14 188.92 242.566 188.92C242.913 188.92 243.193 188.96 243.406 189.04C243.62 189.093 243.726 189.2 243.726 189.36C243.726 189.547 243.62 189.693 243.406 189.8C243.193 189.907 242.86 190.027 242.406 190.16C242.086 190.267 241.726 190.573 241.326 191.08C240.926 191.587 240.726 192.24 240.726 193.04V204.28C240.726 206.413 241.086 208.173 241.806 209.56C242.526 210.92 243.513 211.933 244.766 212.6C246.046 213.24 247.5 213.56 249.126 213.56C251.873 213.56 253.886 212.613 255.166 210.72C256.446 208.8 257.086 206.28 257.086 203.16C257.086 202.573 257.073 201.8 257.046 200.84C257.046 199.88 257.033 198.853 257.006 197.76C256.98 196.64 256.953 195.573 256.926 194.56C256.926 193.867 256.86 193.213 256.726 192.6C256.62 191.987 256.446 191.467 256.206 191.04C255.966 190.587 255.66 190.307 255.286 190.2C255.02 190.12 254.726 190.013 254.406 189.88C254.113 189.747 253.966 189.587 253.966 189.4C253.966 189.24 254.073 189.133 254.286 189.08C254.5 189 254.78 188.96 255.126 188.96C255.74 188.96 256.246 188.973 256.646 189C257.046 189 257.54 189 258.126 189C258.553 189 258.953 189 259.326 189C259.7 188.973 260.06 188.947 260.406 188.92C260.753 188.893 261.073 188.88 261.366 188.88C261.713 188.88 261.993 188.92 262.206 189C262.42 189.053 262.526 189.16 262.526 189.32C262.526 189.667 262.086 189.933 261.206 190.12C260.513 190.253 260.02 190.587 259.726 191.12C259.433 191.653 259.26 192.32 259.206 193.12C259.073 195.413 258.98 197.507 258.926 199.4C258.9 201.293 258.86 203.16 258.806 205C258.753 207.053 258.26 208.88 257.326 210.48C256.393 212.08 255.14 213.333 253.566 214.24C252.02 215.12 250.26 215.56 248.286 215.56Z" fill="white"/>
</g>
<defs>
<clipPath id="clip0_24_2">
<rect width="856" height="494" fill="white"/>
</clipPath>
</defs>
</svg>
