<svg width="302" height="182" viewBox="0 0 302 182" fill="none" xmlns="http://www.w3.org/2000/svg">
<rect width="302" height="182" fill="white"/>
<rect x="60" width="183" height="175" rx="87.5" fill="black"/>
<path d="M96.3966 78V66.3636H100.328C101.237 66.3636 101.984 66.5189 102.567 66.8295C103.15 67.1364 103.582 67.5587 103.862 68.0966C104.143 68.6345 104.283 69.2462 104.283 69.9318C104.283 70.6174 104.143 71.2254 103.862 71.7557C103.582 72.286 103.152 72.7027 102.573 73.0057C101.993 73.3049 101.253 73.4545 100.351 73.4545H97.1693V72.1818H100.306C100.927 72.1818 101.427 72.0909 101.806 71.9091C102.188 71.7273 102.465 71.4697 102.635 71.1364C102.809 70.7992 102.897 70.3977 102.897 69.9318C102.897 69.4659 102.809 69.0587 102.635 68.7102C102.461 68.3617 102.183 68.0928 101.8 67.9034C101.417 67.7102 100.912 67.6136 100.283 67.6136H97.8057V78H96.3966ZM101.874 72.7727L104.737 78H103.101L100.283 72.7727H101.874ZM115.911 78V66.3636H122.934V67.6136H117.32V71.5455H122.57V72.7955H117.32V76.75H123.025V78H115.911ZM141.117 69.2727C141.049 68.697 140.772 68.25 140.288 67.9318C139.803 67.6136 139.208 67.4545 138.503 67.4545C137.988 67.4545 137.538 67.5379 137.151 67.7045C136.769 67.8712 136.469 68.1004 136.253 68.392C136.041 68.6837 135.935 69.0152 135.935 69.3864C135.935 69.697 136.009 69.964 136.157 70.1875C136.308 70.4072 136.502 70.5909 136.736 70.7386C136.971 70.8826 137.217 71.0019 137.475 71.0966C137.733 71.1875 137.969 71.2614 138.185 71.3182L139.367 71.6364C139.67 71.7159 140.007 71.8258 140.378 71.9659C140.753 72.1061 141.111 72.2973 141.452 72.5398C141.797 72.7784 142.081 73.0852 142.305 73.4602C142.528 73.8352 142.64 74.2955 142.64 74.8409C142.64 75.4697 142.475 76.0379 142.146 76.5455C141.82 77.053 141.342 77.4564 140.714 77.7557C140.089 78.0549 139.329 78.2045 138.435 78.2045C137.602 78.2045 136.88 78.0701 136.271 77.8011C135.664 77.5322 135.187 77.1572 134.839 76.6761C134.494 76.1951 134.299 75.6364 134.253 75H135.708C135.746 75.4394 135.894 75.803 136.151 76.0909C136.413 76.375 136.742 76.5871 137.14 76.7273C137.541 76.8636 137.973 76.9318 138.435 76.9318C138.973 76.9318 139.456 76.8447 139.884 76.6705C140.312 76.4924 140.651 76.2462 140.901 75.9318C141.151 75.6136 141.276 75.2424 141.276 74.8182C141.276 74.4318 141.168 74.1174 140.952 73.875C140.736 73.6326 140.452 73.4356 140.1 73.2841C139.748 73.1326 139.367 73 138.958 72.8864L137.526 72.4773C136.617 72.2159 135.897 71.8428 135.367 71.358C134.837 70.8731 134.572 70.2386 134.572 69.4545C134.572 68.803 134.748 68.2348 135.1 67.75C135.456 67.2614 135.933 66.8826 136.532 66.6136C137.134 66.3409 137.806 66.2045 138.549 66.2045C139.299 66.2045 139.966 66.339 140.549 66.608C141.132 66.8731 141.594 67.2367 141.935 67.6989C142.28 68.161 142.462 68.6856 142.481 69.2727H141.117ZM160.6 69.2727C160.532 68.697 160.256 68.25 159.771 67.9318C159.286 67.6136 158.691 67.4545 157.987 67.4545C157.471 67.4545 157.021 67.5379 156.634 67.7045C156.252 67.8712 155.952 68.1004 155.737 68.392C155.524 68.6837 155.418 69.0152 155.418 69.3864C155.418 69.697 155.492 69.964 155.64 70.1875C155.792 70.4072 155.985 70.5909 156.22 70.7386C156.454 70.8826 156.701 71.0019 156.958 71.0966C157.216 71.1875 157.452 71.2614 157.668 71.3182L158.85 71.6364C159.153 71.7159 159.49 71.8258 159.862 71.9659C160.237 72.1061 160.595 72.2973 160.935 72.5398C161.28 72.7784 161.564 73.0852 161.788 73.4602C162.011 73.8352 162.123 74.2955 162.123 74.8409C162.123 75.4697 161.958 76.0379 161.629 76.5455C161.303 77.053 160.826 77.4564 160.197 77.7557C159.572 78.0549 158.812 78.2045 157.918 78.2045C157.085 78.2045 156.363 78.0701 155.754 77.8011C155.148 77.5322 154.67 77.1572 154.322 76.6761C153.977 76.1951 153.782 75.6364 153.737 75H155.191C155.229 75.4394 155.377 75.803 155.634 76.0909C155.896 76.375 156.225 76.5871 156.623 76.7273C157.024 76.8636 157.456 76.9318 157.918 76.9318C158.456 76.9318 158.939 76.8447 159.367 76.6705C159.795 76.4924 160.134 76.2462 160.384 75.9318C160.634 75.6136 160.759 75.2424 160.759 74.8182C160.759 74.4318 160.651 74.1174 160.435 73.875C160.22 73.6326 159.935 73.4356 159.583 73.2841C159.231 73.1326 158.85 73 158.441 72.8864L157.009 72.4773C156.1 72.2159 155.381 71.8428 154.85 71.358C154.32 70.8731 154.055 70.2386 154.055 69.4545C154.055 68.803 154.231 68.2348 154.583 67.75C154.939 67.2614 155.417 66.8826 156.015 66.6136C156.617 66.3409 157.29 66.2045 158.032 66.2045C158.782 66.2045 159.449 66.339 160.032 66.608C160.615 66.8731 161.077 67.2367 161.418 67.6989C161.763 68.161 161.945 68.6856 161.964 69.2727H160.6ZM183.538 72.1818C183.538 73.4091 183.316 74.4697 182.873 75.3636C182.43 76.2576 181.822 76.947 181.049 77.4318C180.277 77.9167 179.394 78.1591 178.402 78.1591C177.409 78.1591 176.527 77.9167 175.754 77.4318C174.981 76.947 174.373 76.2576 173.93 75.3636C173.487 74.4697 173.265 73.4091 173.265 72.1818C173.265 70.9545 173.487 69.8939 173.93 69C174.373 68.1061 174.981 67.4167 175.754 66.9318C176.527 66.447 177.409 66.2045 178.402 66.2045C179.394 66.2045 180.277 66.447 181.049 66.9318C181.822 67.4167 182.43 68.1061 182.873 69C183.316 69.8939 183.538 70.9545 183.538 72.1818ZM182.174 72.1818C182.174 71.1742 182.006 70.3239 181.669 69.6307C181.335 68.9375 180.883 68.4129 180.311 68.0568C179.742 67.7008 179.106 67.5227 178.402 67.5227C177.697 67.5227 177.059 67.7008 176.487 68.0568C175.919 68.4129 175.466 68.9375 175.129 69.6307C174.795 70.3239 174.629 71.1742 174.629 72.1818C174.629 73.1894 174.795 74.0398 175.129 74.733C175.466 75.4261 175.919 75.9508 176.487 76.3068C177.059 76.6629 177.697 76.8409 178.402 76.8409C179.106 76.8409 179.742 76.6629 180.311 76.3068C180.883 75.9508 181.335 75.4261 181.669 74.733C182.006 74.0398 182.174 73.1894 182.174 72.1818ZM195.187 78V66.3636H199.119C200.028 66.3636 200.774 66.5189 201.358 66.8295C201.941 67.1364 202.373 67.5587 202.653 68.0966C202.933 68.6345 203.074 69.2462 203.074 69.9318C203.074 70.6174 202.933 71.2254 202.653 71.7557C202.373 72.286 201.943 72.7027 201.363 73.0057C200.784 73.3049 200.043 73.4545 199.142 73.4545H195.96V72.1818H199.096C199.718 72.1818 200.218 72.0909 200.596 71.9091C200.979 71.7273 201.255 71.4697 201.426 71.1364C201.6 70.7992 201.687 70.3977 201.687 69.9318C201.687 69.4659 201.6 69.0587 201.426 68.7102C201.252 68.3617 200.973 68.0928 200.591 67.9034C200.208 67.7102 199.702 67.6136 199.074 67.6136H196.596V78H195.187ZM200.664 72.7727L203.528 78H201.892L199.074 72.7727H200.664Z" fill="white"/>
<path d="M94.1906 101H92.898L96.6366 90.8182H97.9094L101.648 101H100.355L97.3128 92.429H97.2332L94.1906 101ZM94.6679 97.0227H99.8781V98.1165H94.6679V97.0227ZM112.302 93.3636C112.242 92.8598 112.001 92.4688 111.576 92.1903C111.152 91.9119 110.632 91.7727 110.015 91.7727C109.564 91.7727 109.17 91.8456 108.832 91.9915C108.497 92.1373 108.235 92.3378 108.046 92.593C107.861 92.8482 107.768 93.1383 107.768 93.4631C107.768 93.7348 107.833 93.9685 107.962 94.1641C108.094 94.3563 108.264 94.517 108.469 94.6463C108.675 94.7723 108.89 94.8767 109.115 94.9595C109.341 95.0391 109.548 95.1037 109.737 95.1534L110.771 95.4318C111.036 95.5014 111.331 95.5975 111.656 95.7202C111.984 95.8428 112.297 96.0102 112.595 96.2223C112.897 96.4311 113.146 96.6996 113.341 97.0277C113.537 97.3558 113.634 97.7585 113.634 98.2358C113.634 98.786 113.49 99.2831 113.202 99.7273C112.917 100.171 112.499 100.524 111.949 100.786C111.402 101.048 110.738 101.179 109.956 101.179C109.226 101.179 108.595 101.061 108.061 100.826C107.531 100.591 107.113 100.263 106.809 99.8416C106.507 99.4207 106.336 98.9318 106.296 98.375H107.569C107.602 98.7595 107.732 99.0777 107.957 99.3295C108.186 99.5781 108.474 99.7637 108.822 99.8864C109.173 100.006 109.551 100.065 109.956 100.065C110.426 100.065 110.849 99.9891 111.223 99.8366C111.598 99.6809 111.894 99.4654 112.113 99.1903C112.332 98.9119 112.441 98.5871 112.441 98.2159C112.441 97.8778 112.347 97.6027 112.158 97.3906C111.969 97.1785 111.72 97.0062 111.412 96.8736C111.104 96.741 110.771 96.625 110.413 96.5256L109.16 96.1676C108.365 95.9389 107.735 95.6125 107.271 95.1882C106.807 94.764 106.575 94.2088 106.575 93.5227C106.575 92.9527 106.729 92.4555 107.037 92.0312C107.349 91.6037 107.766 91.2723 108.29 91.0369C108.817 90.7983 109.405 90.679 110.055 90.679C110.711 90.679 111.295 90.7966 111.805 91.032C112.315 91.264 112.72 91.5821 113.018 91.9865C113.32 92.3909 113.479 92.8499 113.495 93.3636H112.302ZM124.73 93.3636C124.67 92.8598 124.428 92.4688 124.004 92.1903C123.58 91.9119 123.059 91.7727 122.443 91.7727C121.992 91.7727 121.598 91.8456 121.26 91.9915C120.925 92.1373 120.663 92.3378 120.474 92.593C120.289 92.8482 120.196 93.1383 120.196 93.4631C120.196 93.7348 120.26 93.9685 120.39 94.1641C120.522 94.3563 120.691 94.517 120.897 94.6463C121.102 94.7723 121.318 94.8767 121.543 94.9595C121.768 95.0391 121.976 95.1037 122.165 95.1534L123.199 95.4318C123.464 95.5014 123.759 95.5975 124.084 95.7202C124.412 95.8428 124.725 96.0102 125.023 96.2223C125.325 96.4311 125.573 96.6996 125.769 97.0277C125.964 97.3558 126.062 97.7585 126.062 98.2358C126.062 98.786 125.918 99.2831 125.63 99.7273C125.345 100.171 124.927 100.524 124.377 100.786C123.83 101.048 123.165 101.179 122.383 101.179C121.654 101.179 121.023 101.061 120.489 100.826C119.959 100.591 119.541 100.263 119.236 99.8416C118.935 99.4207 118.764 98.9318 118.724 98.375H119.997C120.03 98.7595 120.159 99.0777 120.385 99.3295C120.613 99.5781 120.902 99.7637 121.25 99.8864C121.601 100.006 121.979 100.065 122.383 100.065C122.854 100.065 123.276 99.9891 123.651 99.8366C124.026 99.6809 124.322 99.4654 124.541 99.1903C124.76 98.9119 124.869 98.5871 124.869 98.2159C124.869 97.8778 124.775 97.6027 124.586 97.3906C124.397 97.1785 124.148 97.0062 123.84 96.8736C123.532 96.741 123.199 96.625 122.841 96.5256L121.588 96.1676C120.792 95.9389 120.163 95.6125 119.699 95.1882C119.235 94.764 119.003 94.2088 119.003 93.5227C119.003 92.9527 119.157 92.4555 119.465 92.0312C119.776 91.6037 120.194 91.2723 120.718 91.0369C121.245 90.7983 121.833 90.679 122.483 90.679C123.139 90.679 123.722 90.7966 124.233 91.032C124.743 91.264 125.147 91.5821 125.446 91.9865C125.747 92.3909 125.906 92.8499 125.923 93.3636H124.73ZM140.18 95.9091C140.18 96.983 139.986 97.911 139.599 98.6932C139.211 99.4754 138.679 100.079 138.003 100.503C137.327 100.927 136.554 101.139 135.686 101.139C134.818 101.139 134.045 100.927 133.369 100.503C132.693 100.079 132.161 99.4754 131.773 98.6932C131.386 97.911 131.192 96.983 131.192 95.9091C131.192 94.8352 131.386 93.9072 131.773 93.125C132.161 92.3428 132.693 91.7396 133.369 91.3153C134.045 90.8911 134.818 90.679 135.686 90.679C136.554 90.679 137.327 90.8911 138.003 91.3153C138.679 91.7396 139.211 92.3428 139.599 93.125C139.986 93.9072 140.18 94.8352 140.18 95.9091ZM138.987 95.9091C138.987 95.0275 138.84 94.2834 138.545 93.6768C138.253 93.0703 137.857 92.6113 137.356 92.2997C136.859 91.9882 136.302 91.8324 135.686 91.8324C135.07 91.8324 134.511 91.9882 134.011 92.2997C133.513 92.6113 133.117 93.0703 132.822 93.6768C132.531 94.2834 132.385 95.0275 132.385 95.9091C132.385 96.7907 132.531 97.5348 132.822 98.1413C133.117 98.7479 133.513 99.2069 134.011 99.5185C134.511 99.83 135.07 99.9858 135.686 99.9858C136.302 99.9858 136.859 99.83 137.356 99.5185C137.857 99.2069 138.253 98.7479 138.545 98.1413C138.84 97.5348 138.987 96.7907 138.987 95.9091ZM153.947 94H152.714C152.641 93.6454 152.513 93.3338 152.331 93.0653C152.152 92.7969 151.933 92.5715 151.675 92.3892C151.419 92.2036 151.136 92.0644 150.824 91.9716C150.513 91.8788 150.188 91.8324 149.85 91.8324C149.234 91.8324 148.675 91.9882 148.175 92.2997C147.677 92.6113 147.281 93.0703 146.986 93.6768C146.695 94.2834 146.549 95.0275 146.549 95.9091C146.549 96.7907 146.695 97.5348 146.986 98.1413C147.281 98.7479 147.677 99.2069 148.175 99.5185C148.675 99.83 149.234 99.9858 149.85 99.9858C150.188 99.9858 150.513 99.9394 150.824 99.8466C151.136 99.7538 151.419 99.6162 151.675 99.4339C151.933 99.2483 152.152 99.0213 152.331 98.7528C152.513 98.4811 152.641 98.1695 152.714 97.8182H153.947C153.854 98.3385 153.685 98.8042 153.44 99.2152C153.194 99.6262 152.889 99.9759 152.525 100.264C152.16 100.549 151.751 100.766 151.297 100.915C150.846 101.065 150.364 101.139 149.85 101.139C148.982 101.139 148.209 100.927 147.533 100.503C146.857 100.079 146.325 99.4754 145.937 98.6932C145.55 97.911 145.356 96.983 145.356 95.9091C145.356 94.8352 145.55 93.9072 145.937 93.125C146.325 92.3428 146.857 91.7396 147.533 91.3153C148.209 90.8911 148.982 90.679 149.85 90.679C150.364 90.679 150.846 90.7536 151.297 90.9027C151.751 91.0518 152.16 91.2706 152.525 91.5589C152.889 91.844 153.194 92.192 153.44 92.603C153.685 93.0107 153.854 93.4763 153.947 94ZM160.672 90.8182V101H159.439V90.8182H160.672ZM167.062 101H165.769L169.508 90.8182H170.78L174.519 101H173.226L170.184 92.429H170.104L167.062 101ZM167.539 97.0227H172.749V98.1165H167.539V97.0227ZM177.859 91.9119V90.8182H185.495V91.9119H182.293V101H181.06V91.9119H177.859ZM190.898 101V90.8182H197.043V91.9119H192.131V95.3523H196.725V96.446H192.131V99.9062H197.122V101H190.898ZM208.333 93.3636C208.274 92.8598 208.032 92.4688 207.608 92.1903C207.183 91.9119 206.663 91.7727 206.046 91.7727C205.596 91.7727 205.201 91.8456 204.863 91.9915C204.528 92.1373 204.267 92.3378 204.078 92.593C203.892 92.8482 203.799 93.1383 203.799 93.4631C203.799 93.7348 203.864 93.9685 203.993 94.1641C204.126 94.3563 204.295 94.517 204.5 94.6463C204.706 94.7723 204.921 94.8767 205.147 94.9595C205.372 95.0391 205.579 95.1037 205.768 95.1534L206.802 95.4318C207.067 95.5014 207.362 95.5975 207.687 95.7202C208.015 95.8428 208.328 96.0102 208.627 96.2223C208.928 96.4311 209.177 96.6996 209.372 97.0277C209.568 97.3558 209.666 97.7585 209.666 98.2358C209.666 98.786 209.522 99.2831 209.233 99.7273C208.948 100.171 208.531 100.524 207.98 100.786C207.434 101.048 206.769 101.179 205.987 101.179C205.258 101.179 204.626 101.061 204.093 100.826C203.562 100.591 203.145 100.263 202.84 99.8416C202.538 99.4207 202.367 98.9318 202.328 98.375H203.6C203.634 98.7595 203.763 99.0777 203.988 99.3295C204.217 99.5781 204.505 99.7637 204.853 99.8864C205.205 100.006 205.582 100.065 205.987 100.065C206.457 100.065 206.88 99.9891 207.255 99.8366C207.629 99.6809 207.926 99.4654 208.144 99.1903C208.363 98.9119 208.473 98.5871 208.473 98.2159C208.473 97.8778 208.378 97.6027 208.189 97.3906C208 97.1785 207.752 97.0062 207.443 96.8736C207.135 96.741 206.802 96.625 206.444 96.5256L205.191 96.1676C204.396 95.9389 203.766 95.6125 203.302 95.1882C202.838 94.764 202.606 94.2088 202.606 93.5227C202.606 92.9527 202.76 92.4555 203.068 92.0312C203.38 91.6037 203.798 91.2723 204.321 91.0369C204.848 90.7983 205.437 90.679 206.086 90.679C206.742 90.679 207.326 90.7966 207.836 91.032C208.347 91.264 208.751 91.5821 209.049 91.9865C209.351 92.3909 209.51 92.8499 209.527 93.3636H208.333Z" fill="white"/>
</svg>
